{
.formatVersion = 3;
axes = (
{
name = Weight;
tag = wght;
}
);
classes = (
{
code = "A O Scedilla Tcedilla a j o scedilla tcedilla one two three";
name = aalt;
},
{
code = "ordfeminine ordmasculine Scommaaccent Tcommaaccent ordfeminine dotlessj ordmasculine scommaaccent tcommaaccent onesuperior twosuperior threesuperior";
name = aalt2;
},
{
code = "gravecomb acutecomb circumflexcomb tildecomb macroncomb brevecomb dotaccentcomb dieresiscomb ringcomb hungarumlautcomb caroncomb commaturnedabovecomb";
name = ccmp_mkmk;
},
{
code = "Lslash Zcaron A B C D E F G H I J K L M N O P Q R S T U V W X Y Z Scaron OE Ydieresis Agrave Aacute Acircumflex Atilde Adieresis Aring AE Ccedilla Egrave Eacute Ecircumflex Edieresis Igrave Iacute Icircumflex Idieresis Eth Ntilde Ograve Oacute Ocircumflex Otilde Odieresis Oslash Ugrave Uacute Ucircumflex Udieresis Yacute Thorn Amacron Aogonek Ccaron Cacute Zacute Dcaron Emacron Edotaccent Ecaron Eogonek Iogonek Imacron Lcaron Lacute Nacute Ncaron Ohungarumlaut Omacron Racute Rcaron Sacute Tcaron Umacron Uring Uhungarumlaut Uogonek Zdotaccent Omega Dcroat Delta Abreve Tcommaaccent Gbreve Idotaccent Scedilla Cdotaccent Gdotaccent Hbar Eng Tcedilla Tbar Wcircumflex Ycircumflex Wgrave Wacute Wdieresis Ygrave Gcommaaccent Kcommaaccent Lcommaaccent Ncommaaccent Rcommaaccent Scommaaccent Acaron Icaron Ocaron Ucaron";
name = cpsp;
},
{
code = "commaaccentcomb cedillacomb dotbelowcomb";
name = mkmk;
},
{
code = "zero one two three four five six seven eight nine";
name = ordn;
}
);
familyName = "Agora VF";
customParameters = (
{
name = glyphOrder;
value = (
.notdef,
A,
Aacute,
Abreve,
Acaron,
Acircumflex,
Adieresis,
Agrave,
Amacron,
Aogonek,
Aring,
Atilde,
AE,
B,
C,
Cacute,
Ccaron,
Ccedilla,
Cdotaccent,
D,
Eth,
Dcaron,
Dcroat,
E,
Eacute,
Ecaron,
Ecircumflex,
Edieresis,
Edotaccent,
Egrave,
Emacron,
Eogonek,
F,
G,
Gbreve,
Gcommaaccent,
Gdotaccent,
H,
Hbar,
I,
Iacute,
Icaron,
Icircumflex,
Idieresis,
Idotaccent,
Igrave,
Imacron,
Iogonek,
J,
K,

glyphs = (
{
glyphname = .notdef;
layers = (
{
layerId = "388820D5-7EEF-4EDE-95C9-B421FC6E7F1D";
shapes = (
{
closed = 1;
nodes = (
(86,0,l),
(570,0,l),
(570,750,l),
(86,750,l)
);
},
{
closed = 1;
nodes = (
(224,138,l),
(224,613,l),
(433,613,l),
(433,138,l)
);
}
);
width = 656;
},
{
layerId = "9088FA62-0D59-4181-A049-8D6D4F8D84ED";
shapes = (
{
closed = 1;
nodes = (
(99,0,l),
(505,0,l),
(505,750,l),
(99,750,l)
);
},
{
closed = 1;
nodes = (
(159,60,l),
(159,690,l),
(445,690,l),
(445,60,l)
);
}
);
width = 604;
},
{
layerId = "445F1214-24C3-4409-A842-6A76E99C229F";
shapes = (
{
closed = 1;
nodes = (
(118,0,l),
(483,0,l),
(483,750,l),
(118,750,l)
);
},
{
closed = 1;
nodes = (
(138,20,l),
(138,730,l),
(463,730,l),
(463,20,l)
);
}
);
width = 600;
}
);
},
{
color = (154, 153, 255, 255);
glyphname = A;
layers = (
{
anchors = (
{
name = b.uni0326;
position = "{333, 0}";
},
{
name = b.uni0328_1;
position = "{685, 0}";
},
{
name = t.uni0308_2;
position = "{333, 690}";
},
{
name = m.uni0335_3;
position = "{0, 0}";
}
);
layerId = "388820D5-7EEF-4EDE-95C9-B421FC6E7F1D";
shapes = (
{
closed = 1;
nodes = (
(-23,0,l),
(179,0,l),
(215,117,l),
(450,117,l),
(484,0,l),
(685,0,l),
(436,690,l),
(227,690,l)
);
},
{
closed = 1;
nodes = (
(262,267,l),
(332,496,l),
(403,267,l)
);
}
);
width = 664;
},
{
anchors = (
{
name = b.uni0326;
position = "{293, 0}";
},
{
name = b.uni0328_1;
position = "{586, 0}";
},
{
name = t.uni0308_2;
position = "{293, 690}";
},
{
name = m.uni0335_3;
position = "{0, 0}";
}
);
layerId = "9088FA62-0D59-4181-A049-8D6D4F8D84ED";
shapes = (
{
closed = 1;
nodes = (
(-1,0,l),
(85,0,l),
(141,159,l),
(444,159,l),
(499,0,l),
(586,0,l),
(336,690,l),
(249,690,l)
);
},
{
closed = 1;
nodes = (
(166,233,l),
(293,598,l),
(419,233,l)
);
}
);
width = 585;
},
{
anchors = (
{
name = b.uni0326;
position = "{277, 0}";
},
{
name = b.uni0328_1;
position = "{538, 0}";
},
{
name = t.uni0308_2;
position = "{277, 690}";
},
{
name = m.uni0335_3;
position = "{0, 0}";
}
);
layerId = "445F1214-24C3-4409-A842-6A76E99C229F";
shapes = (
{
closed = 1;
nodes = (
(16,0,l),
(40,0,l),
(105,177,l),
(451,177,l),
(515,0,l),
(538,0,l),
(289,690,l),
(266,690,l)
);
},
{
closed = 1;
nodes = (
(111,198,l),
(277,663,l),
(444,198,l)
);
}
);
width = 556;
}
);
unicode = 65;
},
{
glyphname = Aogonek;
layers = (
{
anchors = (
{
name = b.uni0326;
position = "{333, 0}";
},
{
name = b.uni0328_1;
position = "{685, 0}";
},
{
name = t.uni0308_2;
position = "{333, 690}";
},
{
name = m.uni0335_3;
position = "{0, 0}";
}
);
layerId = "388820D5-7EEF-4EDE-95C9-B421FC6E7F1D";
shapes = (
{
closed = 1;
nodes = (
(-23,0,l),
(179,0,l),
(215,117,l),
(450,117,l),
(484,0,l),
(541,0,l),
(494,-22,o),
(458,-57,o),
(458,-112,cs),
(458,-174,o),
(501,-230,o),
(583,-237,cs),
(636,-242,o),
(698,-218,o),
(738,-176,c),
(682,-99,l),
(667,-132,o),
(641,-153,o),
(612,-153,cs),
(585,-153,o),
(567,-135,o),
(567,-96,cs),
(567,-50,o),
(612,-32,o),
(685,0,c),
(436,690,l),
(227,690,l)
);
},
{
closed = 1;
nodes = (
(262,267,l),
(332,496,l),
(403,267,l)
);
}
);
width = 664;
},
{
anchors = (
{
name = b.uni0326;
position = "{293, 0}";
},
{
name = b.uni0328_1;
position = "{586, 0}";
},
{
name = t.uni0308_2;
position = "{293, 690}";
},
{
name = m.uni0335_3;
position = "{0, 0}";
}
);
layerId = "9088FA62-0D59-4181-A049-8D6D4F8D84ED";
shapes = (
{
closed = 1;
nodes = (
(-1,0,l),
(85,0,l),
(141,159,l),
(444,159,l),
(499,0,l),
(523,0,l),
(462,-39,o),
(416,-82,o),
(416,-142,cs),
(416,-200,o),
(456,-236,o),
(519,-238,cs),
(565,-240,o),
(608,-225,o),
(643,-191,c),
(616,-153,l),
(595,-182,o),
(565,-197,o),
(531,-197,cs),
(490,-197,o),
(470,-171,o),
(470,-135,cs),
(470,-73,o),
(524,-36,o),
(586,0,c),
(336,690,l),
(249,690,l)
);
},
{
closed = 1;
nodes = (
(166,233,l),
(293,598,l),
(419,233,l)
);
}
);
width = 585;
},
{
anchors = (
{
name = b.uni0326;
position = "{277, 0}";
},
{
name = b.uni0328_1;
position = "{538, 0}";
},
{
name = t.uni0308_2;
position = "{277, 690}";
},
{
name = m.uni0335_3;
position = "{0, 0}";
}
);
layerId = "445F1214-24C3-4409-A842-6A76E99C229F";
shapes = (
{
closed = 1;
nodes = (
(16,0,l),
(40,0,l),
(105,177,l),
(451,177,l),
(515,1,l),
(515,1,l),
(475,-44,o),
(434,-86,o),
(434,-148,cs),
(434,-204,o),
(463,-239,o),
(520,-239,cs),
(560,-239,o),
(585,-227,o),
(613,-200,c),
(604,-185,l),
(578,-208,o),
(557,-220,o),
(520,-220,cs),
(474,-220,o),
(451,-190,o),
(451,-148,cs),
(451,-85,o),
(500,-38,o),
(538,0,c),
(289,690,l),
(266,690,l)
);
},
{
closed = 1;
nodes = (
(111,198,l),
(277,663,l),
(444,198,l)
);
}
);
width = 556;
}
);
unicode = 260;
},
{
glyphname = Aring;
layers = (
{
anchors = (
{
name = b.uni0326;
position = "{333, 0}";
},
{
name = b.uni0328_1;
position = "{685, 0}";
},
{
name = t.uni0308_2;
position = "{333, 690}";
},
{
name = m.uni0335_3;
position = "{0, 0}";
}
);
layerId = "388820D5-7EEF-4EDE-95C9-B421FC6E7F1D";
shapes = (
{
closed = 1;
nodes = (
(-23,0,l),
(179,0,l),
(215,117,l),
(450,117,l),
(484,0,l),
(685,0,l),
(441,674,l),
(455,693,o),
(461,716,o),
(461,742,cs),
(461,806,o),
(409,860,o),
(343,860,cs),
(278,860,o),
(224,806,o),
(224,742,cs),
(224,733,o),
(234,691,o),
(228,693,c)
);
},
{
closed = 1;
nodes = (
(295,768,o),
(314,793,o),
(343,793,cs),
(372,793,o),
(394,768,o),
(394,742,cs),
(394,711,o),
(372,691,o),
(343,691,cs),
(314,691,o),
(295,711,o),
(295,742,cs)
);
},
{
closed = 1;
nodes = (
(262,267,l),
(332,496,l),
(403,267,l)
);
}
);
width = 664;
},
{
anchors = (
{
name = b.uni0326;
position = "{293, 0}";
},
{
name = b.uni0328_1;
position = "{586, 0}";
},
{
name = t.uni0308_2;
position = "{293, 690}";
},
{
name = m.uni0335_3;
position = "{0, 0}";
}
);
layerId = "9088FA62-0D59-4181-A049-8D6D4F8D84ED";
shapes = (
{
closed = 1;
nodes = (
(-1,0,l),
(85,0,l),
(141,159,l),
(444,159,l),
(499,0,l),
(586,0,l),
(345,666,l),
(372,683,o),
(389,713,o),
(389,748,cs),
(389,800,o),
(347,844,o),
(294,844,cs),
(241,844,o),
(197,800,o),
(197,748,cs),
(197,715,o),
(215,684,o),
(241,668,c)
);
},
{
closed = 1;
nodes = (
(239,779,o),
(262,804,o),
(294,804,cs),
(324,804,o),
(349,779,o),
(349,748,cs),
(349,715,o),
(324,691,o),
(294,691,cs),
(262,691,o),
(239,715,o),
(239,748,cs)
);
},
{
closed = 1;
nodes = (
(166,233,l),
(293,598,l),
(419,233,l)
);
}
);
width = 585;
},
{
anchors = (
{
name = b.uni0326;
position = "{277, 0}";
},
{
name = b.uni0328_1;
position = "{538, 0}";
},
{
name = t.uni0308_2;
position = "{277, 690}";
},
{
name = m.uni0335_3;
position = "{0, 0}";
}
);
layerId = "445F1214-24C3-4409-A842-6A76E99C229F";
shapes = (
{
closed = 1;
nodes = (
(16,0,l),
(40,0,l),
(105,177,l),
(451,177,l),
(515,0,l),
(538,0,l),
(294,676,l),
(329,683,o),
(356,714,o),
(356,752,cs),
(356,796,o),
(322,830,o),
(278,830,cs),
(235,830,o),
(200,796,o),
(200,752,cs),
(200,715,o),
(227,684,o),
(261,676,c)
);
},
{
closed = 1;
nodes = (
(221,788,o),
(247,812,o),
(280,811,cs),
(313,810,o),
(337,784,o),
(336,750,cs),
(335,718,o),
(309,693,o),
(277,694,cs),
(244,695,o),
(218,722,o),
(220,754,c)
);
},
{
closed = 1;
nodes = (
(111,198,l),
(277,663,l),
(444,198,l)
);
}
);
width = 556;
}
);
unicode = 197;
},
{
glyphname = AE;
layers = (
{
layerId = "388820D5-7EEF-4EDE-95C9-B421FC6E7F1D";
shapes = (
{
closed = 1;
nodes = (
(-23,0,l),
(186,0,l),
(237,135,l),
(437,135,l),
(437,0,l),
(868,0,l),
(868,156,l),
(617,156,l),
(617,278,l),
(829,278,l),
(829,412,l),
(617,412,l),
(617,534,l),
(868,534,l),
(868,690,l),
(254,690,l)
);
},
{
closed = 1;
nodes = (
(287,273,l),
(382,533,l),
(437,533,l),
(437,273,l)
);
}
);
width = 904;
},
{
layerId = "9088FA62-0D59-4181-A049-8D6D4F8D84ED";
shapes = (
{
closed = 1;
nodes = (
(-1,0,l),
(89,0,l),
(152,163,l),
(373,163,l),
(373,0,l),
(752,0,l),
(752,78,l),
(451,78,l),
(451,307,l),
(713,307,l),
(713,383,l),
(451,383,l),
(451,612,l),
(752,612,l),
(752,690,l),
(276,690,l)
);
},
{
closed = 1;
nodes = (
(181,237,l),
(332,623,l),
(373,623,l),
(373,237,l)
);
}
);
width = 821;
},
{
layerId = "445F1214-24C3-4409-A842-6A76E99C229F";
shapes = (
{
closed = 1;
nodes = (
(16,0,l),
(41,0,l),
(111,178,l),
(345,178,l),
(345,0,l),
(695,0,l),
(695,20,l),
(365,20,l),
(365,335,l),
(658,335,l),
(658,355,l),
(365,355,l),
(365,670,l),
(695,670,l),
(695,690,l),
(293,690,l)
);
},
{
closed = 1;
nodes = (
(120,198,l),
(310,671,l),
(345,671,l),
(345,198,l)
);
}
);
width = 774;
}
);
unicode = 198;
},
{
glyphname = B;
layers = (
{
anchors = (
{
name = b.uni0326;
position = "{325, 0}";
},
{
name = b.uni0328_1;
position = "{0, 0}";
},
{
name = t.uni0308_2;
position = "{325, 690}";
},
{
name = m.uni0335_3;
position = "{0, 0}";
}
);
layerId = "388820D5-7EEF-4EDE-95C9-B421FC6E7F1D";
shapes = (
{
closed = 1;
nodes = (
(61,0,l),
(400,0,ls),
(519,0,o),
(611,63,o),
(611,192,cs),
(611,275,o),
(572,324,o),
(513,351,c),
(559,377,o),
(588,422,o),
(588,495,cs),
(588,622,o),
(493,690,o),
(373,690,cs),
(61,690,l)
);
},
{
closed = 1;
nodes = (
(248,419,l),
(248,528,l),
(349,528,ls),
(378,528,o),
(401,501,o),
(401,473,cs),
(401,446,o),
(378,419,o),
(349,419,cs)
);
},
{
closed = 1;
nodes = (
(248,162,l),
(248,271,l),
(371,271,ls),
(403,271,o),
(424,244,o),
(424,217,cs),
(424,189,o),
(403,162,o),
(371,162,cs)
);
}
);
width = 634;
},
{
anchors = (
{
name = b.uni0326;
position = "{298, 0}";
},
{
name = b.uni0328_1;
position = "{0, 0}";
},
{
name = t.uni0308_2;
position = "{298, 690}";
},
{
name = m.uni0335_3;
position = "{0, 0}";
}
);
layerId = "9088FA62-0D59-4181-A049-8D6D4F8D84ED";
shapes = (
{
closed = 1;
nodes = (
(83,0,l),
(361,0,ls),
(466,0,o),
(550,74,o),
(550,182,cs),
(550,266,o),
(500,325,o),
(428,350,c),
(488,377,o),
(529,432,o),
(529,506,cs),
(529,614,o),
(442,690,o),
(337,690,cs),
(83,690,l)
);
},
{
closed = 1;
nodes = (
(160,383,l),
(160,612,l),
(328,612,ls),
(395,612,o),
(450,565,o),
(450,499,cs),
(450,433,o),
(395,383,o),
(328,383,cs)
);
},
{
closed = 1;
nodes = (
(160,78,l),
(160,307,l),
(351,307,ls),
(416,307,o),
(472,257,o),
(472,191,cs),
(472,125,o),
(416,78,o),
(351,78,cs)
);
}
);
width = 603;
},
{
anchors = (
{
name = b.uni0326;
position = "{289, 0}";
},
{
name = b.uni0328_1;
position = "{0, 0}";
},
{
name = t.uni0308_2;
position = "{289, 690}";
},
{
name = m.uni0335_3;
position = "{0, 0}";
}
);
layerId = "445F1214-24C3-4409-A842-6A76E99C229F";
shapes = (
{
closed = 1;
nodes = (
(100,0,l),
(345,0,ls),
(444,0,o),
(523,81,o),
(523,177,cs),
(523,259,o),
(466,329,o),
(390,348,c),
(455,375,o),
(501,439,o),
(501,513,cs),
(501,611,o),
(422,690,o),
(323,690,cs),
(100,690,l)
);
},
{
closed = 1;
nodes = (
(121,355,l),
(121,670,l),
(323,670,ls),
(411,670,o),
(481,599,o),
(481,513,cs),
(481,426,o),
(411,355,o),
(323,355,cs)
);
},
{
closed = 1;
nodes = (
(121,20,l),
(121,335,l),
(345,335,ls),
(432,335,o),
(503,265,o),
(503,177,cs),
(503,91,o),
(432,20,o),
(345,20,cs)
);
}
);
width = 593;
}
);
leftKerningGroup = B;
unicode = 66;
},
{
glyphname = C;
layers = (
{
anchors = (
{
name = b.uni0326;
position = "{392, 0}";
},
{
name = b.uni0328_1;
position = "{0, 0}";
},
{
name = t.uni0308_2;
position = "{392, 690}";
},
{
name = m.uni0335_3;
position = "{0, 0}";
}
);
layerId = "388820D5-7EEF-4EDE-95C9-B421FC6E7F1D";
shapes = (
{
closed = 1;
nodes = (
(37,150,o),
(195,-9,o),
(391,-9,cs),
(529,-9,o),
(649,70,o),
(707,186,c),
(546,267,l),
(518,210,o),
(462,174,o),
(391,174,cs),
(293,174,o),
(219,246,o),
(219,345,cs),
(219,444,o),
(293,516,o),
(391,516,cs),
(462,516,o),
(518,480,o),
(546,423,c),
(707,504,l),
(649,620,o),
(529,699,o),
(391,699,cs),
(195,699,o),
(37,541,o),
(37,345,cs)
);
}
);
width = 734;
},
{
anchors = (
{
name = b.uni0326;
position = "{409, 0}";
},
{
name = b.uni0328_1;
position = "{0, 0}";
},
{
name = t.uni0308_2;
position = "{409, 690}";
},
{
name = m.uni0335_3;
position = "{0, 0}";
}
);
layerId = "9088FA62-0D59-4181-A049-8D6D4F8D84ED";
shapes = (
{
closed = 1;
nodes = (
(55,150,o),
(214,-9,o),
(410,-9,cs),
(542,-9,o),
(658,63,o),
(718,171,c),
(651,209,l),
(604,125,o),
(514,69,o),
(410,69,cs),
(257,69,o),
(134,192,o),
(134,345,cs),
(134,498,o),
(257,621,o),
(410,621,cs),
(514,621,o),
(604,565,o),
(651,481,c),
(718,519,l),
(658,627,o),
(542,699,o),
(410,699,cs),
(214,699,o),
(55,541,o),
(55,345,cs)
);
}
);
width = 756;
},
{
anchors = (
{
name = b.uni0326;
position = "{430, 0}";
},
{
name = b.uni0328_1;
position = "{0, 0}";
},
{
name = t.uni0308_2;
position = "{430, 690}";
},
{
name = m.uni0335_3;
position = "{0, 0}";
}
);
layerId = "445F1214-24C3-4409-A842-6A76E99C229F";
shapes = (
{
closed = 1;
nodes = (
(75,150,o),
(234,-9,o),
(429,-9,cs),
(560,-9,o),
(674,61,o),
(735,166,c),
(718,176,l),
(660,78,o),
(553,11,o),
(429,11,cs),
(245,11,o),
(95,160,o),
(95,345,cs),
(95,530,o),
(245,679,o),
(429,679,cs),
(553,679,o),
(660,613,o),
(718,514,c),
(735,524,l),
(674,629,o),
(560,699,o),
(429,699,cs),
(234,699,o),
(75,541,o),
(75,345,cs)
);
}
);
width = 790;
}
);
leftKerningGroup = C2;
rightKerningGroup = C;
unicode = 67;
},
{
glyphname = Ccedilla;
layers = (
{
anchors = (
{
name = b.uni0326;
position = "{396, -239}";
},
{
name = b.uni0328_1;
position = "{0, 0}";
},
{
name = t.uni0308_2;
position = "{392, 690}";
},
{
name = m.uni0335_3;
position = "{0, 0}";
}
);
layerId = "388820D5-7EEF-4EDE-95C9-B421FC6E7F1D";
shapes = (
{
closed = 1;
nodes = (
(37,163,o),
(172,15,o),
(348,-7,c),
(302,-87,l),
(361,-120,l),
(396,-100,o),
(424,-106,o),
(424,-134,cs),
(424,-150,o),
(411,-163,o),
(396,-163,cs),
(382,-163,o),
(368,-152,o),
(362,-139,c),
(287,-162,l),
(297,-205,o),
(347,-239,o),
(396,-239,cs),
(455,-239,o),
(502,-193,o),
(502,-134,cs),
(502,-78,o),
(457,-40,o),
(400,-50,c),
(428,-8,l),
(550,6,o),
(653,79,o),
(707,186,c),
(546,267,l),
(518,210,o),
(462,174,o),
(391,174,cs),
(293,174,o),
(219,246,o),
(219,345,cs),
(219,444,o),
(293,516,o),
(391,516,cs),
(462,516,o),
(518,480,o),
(546,423,c),
(707,504,l),
(649,620,o),
(529,699,o),
(391,699,cs),
(195,699,o),
(37,541,o),
(37,345,cs)
);
}
);
width = 734;
},
{
anchors = (
{
name = b.uni0326;
position = "{421, -239}";
},
{
name = b.uni0328_1;
position = "{0, 0}";
},
{
name = t.uni0308_2;
position = "{409, 690}";
},
{
name = m.uni0335_3;
position = "{0, 0}";
}
);
layerId = "9088FA62-0D59-4181-A049-8D6D4F8D84ED";
shapes = (
{
closed = 1;
nodes = (
(55,159,o),
(200,5,o),
(382,-8,c),
(346,-81,l),
(382,-105,l),
(432,-85,o),
(472,-102,o),
(472,-144,cs),
(472,-173,o),
(449,-195,o),
(421,-195,cs),
(398,-195,o),
(369,-181,o),
(355,-162,c),
(315,-178,l),
(332,-213,o),
(379,-239,o),
(421,-239,cs),
(475,-239,o),
(515,-197,o),
(515,-144,cs),
(515,-86,o),
(466,-48,o),
(403,-61,c),
(428,-9,l),
(553,-2,o),
(660,69,o),
(718,171,c),
(651,209,l),
(604,125,o),
(514,69,o),
(410,69,cs),
(257,69,o),
(134,192,o),
(134,345,cs),
(134,498,o),
(257,621,o),
(410,621,cs),
(514,621,o),
(604,565,o),
(651,481,c),
(718,519,l),
(658,627,o),
(542,699,o),
(410,699,cs),
(214,699,o),
(55,541,o),
(55,345,cs)
);
}
);
width = 756;
},
{
anchors = (
{
name = b.uni0326;
position = "{445, -239}";
},
{
name = b.uni0328_1;
position = "{0, 0}";
},
{
name = t.uni0308_2;
position = "{430, 690}";
},
{
name = m.uni0335_3;
position = "{0, 0}";
}
);
layerId = "445F1214-24C3-4409-A842-6A76E99C229F";
shapes = (
{
closed = 1;
nodes = (
(75,154,o),
(227,-2,o),
(415,-9,c),
(385,-76,l),
(402,-91,l),
(465,-72,o),
(513,-99,o),
(513,-152,cs),
(513,-190,o),
(484,-220,o),
(445,-220,cs),
(414,-220,o),
(375,-203,o),
(357,-181,c),
(342,-193,l),
(364,-219,o),
(410,-239,o),
(445,-239,cs),
(494,-239,o),
(531,-200,o),
(531,-152,cs),
(531,-91,o),
(478,-55,o),
(409,-70,c),
(436,-9,l),
(565,-7,o),
(675,62,o),
(735,166,c),
(718,176,l),
(660,78,o),
(553,11,o),
(429,11,cs),
(245,11,o),
(95,160,o),
(95,345,cs),
(95,530,o),
(245,679,o),
(429,679,cs),
(553,679,o),
(660,613,o),
(718,514,c),
(735,524,l),
(674,629,o),
(560,699,o),
(429,699,cs),
(234,699,o),
(75,541,o),
(75,345,cs)
);
}
);
width = 790;
}
);
unicode = 199;
},
{
glyphname = D;
layers = (
{
anchors = (
{
name = b.uni0326;
position = "{307, 0}";
},
{
name = b.uni0328_1;
position = "{0, 0}";
},
{
name = t.uni0308_2;
position = "{307, 690}";
},
{
name = m.uni0335_3;
position = "{171, 345}";
}
);
layerId = "388820D5-7EEF-4EDE-95C9-B421FC6E7F1D";
shapes = (
{
closed = 1;
nodes = (
(61,0,l),
(305,0,ls),
(495,0,o),
(650,154,o),
(650,345,cs),
(650,536,o),
(495,690,o),
(305,690,cs),
(61,690,l)
);
},
{
closed = 1;
nodes = (
(248,162,l),
(248,528,l),
(305,528,ls),
(395,528,o),
(465,448,o),
(465,345,cs),
(465,242,o),
(395,162,o),
(305,162,cs)
);
}
);
width = 687;
},
{
anchors = (
{
name = b.uni0326;
position = "{273, 0}";
},
{
name = b.uni0328_1;
position = "{0, 0}";
},
{
name = t.uni0308_2;
position = "{273, 690}";
},
{
name = m.uni0335_3;
position = "{148, 345}";
}
);
layerId = "9088FA62-0D59-4181-A049-8D6D4F8D84ED";
shapes = (
{
closed = 1;
nodes = (
(83,0,l),
(274,0,ls),
(464,0,o),
(619,154,o),
(619,345,cs),
(619,536,o),
(464,690,o),
(274,690,cs),
(83,690,l)
);
},
{
closed = 1;
nodes = (
(160,78,l),
(160,612,l),
(273,612,ls),
(423,612,o),
(540,498,o),
(540,345,cs),
(540,192,o),
(423,78,o),
(273,78,cs)
);
}
);
width = 675;
},
{
anchors = (
{
name = b.uni0326;
position = "{262, 0}";
},
{
name = b.uni0328_1;
position = "{0, 0}";
},
{
name = t.uni0308_2;
position = "{262, 690}";
},
{
name = m.uni0335_3;
position = "{142, 345}";
}
);
layerId = "445F1214-24C3-4409-A842-6A76E99C229F";
shapes = (
{
closed = 1;
nodes = (
(100,0,l),
(262,0,ls),
(453,0,o),
(607,154,o),
(607,345,cs),
(607,536,o),
(453,690,o),
(262,690,cs),
(100,690,l)
);
},
{
closed = 1;
nodes = (
(121,20,l),
(121,670,l),
(262,670,ls),
(443,670,o),
(588,526,o),
(588,345,cs),
(588,164,o),
(443,20,o),
(262,20,cs)
);
}
);
width = 684;
}
);
leftKerningGroup = B;
rightKerningGroup = C;
unicode = 68;
},
{
glyphname = Eth;
layers = (
{
anchors = (
{
name = b.uni0326;
position = "{307, 0}";
},
{
name = b.uni0328_1;
position = "{0, 0}";
},
{
name = t.uni0308_2;
position = "{307, 690}";
},
{
name = m.uni0335_3;
position = "{171, 345}";
}
);
layerId = "388820D5-7EEF-4EDE-95C9-B421FC6E7F1D";
shapes = (
{
closed = 1;
nodes = (
(61,0,l),
(305,0,ls),
(495,0,o),
(650,154,o),
(650,345,cs),
(650,536,o),
(495,690,o),
(305,690,cs),
(61,690,l),
(61,385,l),
(-1,385,l),
(-1,304,l),
(61,304,l)
);
},
{
closed = 1;
nodes = (
(248,162,l),
(248,304,l),
(344,304,l),
(344,385,l),
(248,385,l),
(248,528,l),
(305,528,ls),
(395,528,o),
(465,448,o),
(465,345,cs),
(465,242,o),
(395,162,o),
(305,162,cs)
);
}
);
width = 687;
},
{
anchors = (
{
name = b.uni0326;
position = "{273, 0}";
},
{
name = b.uni0328_1;
position = "{0, 0}";
},
{
name = t.uni0308_2;
position = "{273, 690}";
},
{
name = m.uni0335_3;
position = "{148, 345}";
}
);
layerId = "9088FA62-0D59-4181-A049-8D6D4F8D84ED";
shapes = (
{
closed = 1;
nodes = (
(83,0,l),
(274,0,ls),
(464,0,o),
(619,154,o),
(619,345,cs),
(619,536,o),
(464,690,o),
(274,690,cs),
(83,690,l),
(83,381,l),
(12,381,l),
(12,312,l),
(83,312,l)
);
},
{
closed = 1;
nodes = (
(160,78,l),
(160,312,l),
(282,312,l),
(282,381,l),
(160,381,l),
(160,612,l),
(273,612,ls),
(423,612,o),
(540,498,o),
(540,345,cs),
(540,192,o),
(423,78,o),
(273,78,cs)
);
}
);
width = 675;
},
{
anchors = (
{
name = b.uni0326;
position = "{262, 0}";
},
{
name = b.uni0328_1;
position = "{0, 0}";
},
{
name = t.uni0308_2;
position = "{262, 690}";
},
{
name = m.uni0335_3;
position = "{142, 345}";
}
);
layerId = "445F1214-24C3-4409-A842-6A76E99C229F";
shapes = (
{
closed = 1;
nodes = (
(100,0,l),
(262,0,ls),
(453,0,o),
(607,154,o),
(607,345,cs),
(607,536,o),
(453,690,o),
(262,690,cs),
(100,690,l),
(100,355,l),
(26,355,l),
(26,335,l),
(100,335,l)
);
},
{
closed = 1;
nodes = (
(121,20,l),
(121,335,l),
(257,335,l),
(257,355,l),
(121,355,l),
(121,670,l),
(262,670,ls),
(443,670,o),
(588,526,o),
(588,345,cs),
(588,164,o),
(443,20,o),
(262,20,cs)
);
}
);
width = 684;
}
);
unicode = 208;
},
{
glyphname = Dcroat;
layers = (
{
anchors = (
{
name = b.uni0326;
position = "{307, 0}";
},
{
name = b.uni0328_1;
position = "{0, 0}";
},
{
name = t.uni0308_2;
position = "{307, 690}";
},
{
name = m.uni0335_3;
position = "{171, 345}";
}
);
layerId = "388820D5-7EEF-4EDE-95C9-B421FC6E7F1D";
shapes = (
{
closed = 1;
nodes = (
(61,0,l),
(305,0,ls),
(495,0,o),
(650,154,o),
(650,345,cs),
(650,536,o),
(495,690,o),
(305,690,cs),
(61,690,l),
(61,385,l),
(-1,385,l),
(-1,304,l),
(61,304,l)
);
},
{
closed = 1;
nodes = (
(248,162,l),
(248,304,l),
(344,304,l),
(344,385,l),
(248,385,l),
(248,528,l),
(305,528,ls),
(395,528,o),
(465,448,o),
(465,345,cs),
(465,242,o),
(395,162,o),
(305,162,cs)
);
}
);
width = 687;
},
{
anchors = (
{
name = b.uni0326;
position = "{273, 0}";
},
{
name = b.uni0328_1;
position = "{0, 0}";
},
{
name = t.uni0308_2;
position = "{273, 690}";
},
{
name = m.uni0335_3;
position = "{148, 345}";
}
);
layerId = "9088FA62-0D59-4181-A049-8D6D4F8D84ED";
shapes = (
{
closed = 1;
nodes = (
(83,0,l),
(274,0,ls),
(464,0,o),
(619,154,o),
(619,345,cs),
(619,536,o),
(464,690,o),
(274,690,cs),
(83,690,l),
(83,381,l),
(12,381,l),
(12,312,l),
(83,312,l)
);
},
{
closed = 1;
nodes = (
(160,78,l),
(160,312,l),
(282,312,l),
(282,381,l),
(160,381,l),
(160,612,l),
(273,612,ls),
(423,612,o),
(540,498,o),
(540,345,cs),
(540,192,o),
(423,78,o),
(273,78,cs)
);
}
);
width = 675;
},
{
anchors = (
{
name = b.uni0326;
position = "{262, 0}";
},
{
name = b.uni0328_1;
position = "{0, 0}";
},
{
name = t.uni0308_2;
position = "{262, 690}";
},
{
name = m.uni0335_3;
position = "{142, 345}";
}
);
layerId = "445F1214-24C3-4409-A842-6A76E99C229F";
shapes = (
{
closed = 1;
nodes = (
(100,0,l),
(262,0,ls),
(453,0,o),
(607,154,o),
(607,345,cs),
(607,536,o),
(453,690,o),
(262,690,cs),
(100,690,l),
(100,355,l),
(26,355,l),
(26,335,l),
(100,335,l)
);
},
{
closed = 1;
nodes = (
(121,20,l),
(121,335,l),
(257,335,l),
(257,355,l),
(121,355,l),
(121,670,l),
(262,670,ls),
(443,670,o),
(588,526,o),
(588,345,cs),
(588,164,o),
(443,20,o),
(262,20,cs)
);
}
);
width = 684;
}
);
unicode = 272;
},
{
glyphname = E;
layers = (
{
anchors = (
{
name = b.uni0326;
position = "{283, 0}";
},
{
name = b.uni0328_1;
position = "{500, 0}";
},
{
name = t.uni0308_2;
position = "{283, 690}";
},
{
name = m.uni0335_3;
position = "{0, 0}";
}
);
layerId = "388820D5-7EEF-4EDE-95C9-B421FC6E7F1D";
shapes = (
{
closed = 1;
nodes = (
(67,0,l),
(500,0,l),
(500,162,l),
(254,162,l),
(254,265,l),
(461,265,l),
(461,425,l),
(254,425,l),
(254,528,l),
(500,528,l),
(500,690,l),
(67,690,l)
);
}
);
width = 536;
},
{
anchors = (
{
name = b.uni0326;
position = "{279, 0}";
},
{
name = b.uni0328_1;
position = "{469, 0}";
},
{
name = t.uni0308_2;
position = "{279, 690}";
},
{
name = m.uni0335_3;
position = "{0, 0}";
}
);
layerId = "9088FA62-0D59-4181-A049-8D6D4F8D84ED";
shapes = (
{
closed = 1;
nodes = (
(89,0,l),
(469,0,l),
(469,75,l),
(167,75,l),
(167,307,l),
(430,307,l),
(430,383,l),
(167,383,l),
(167,615,l),
(469,615,l),
(469,690,l),
(89,690,l)
);
}
);
width = 536;
},
{
anchors = (
{
name = b.uni0326;
position = "{282, 0}";
},
{
name = b.uni0328_1;
position = "{456, 0}";
},
{
name = t.uni0308_2;
position = "{282, 690}";
},
{
name = m.uni0335_3;
position = "{0, 0}";
}
);
layerId = "445F1214-24C3-4409-A842-6A76E99C229F";
shapes = (
{
closed = 1;
nodes = (
(106,0,l),
(457,0,l),
(457,20,l),
(126,20,l),
(126,335,l),
(417,335,l),
(417,355,l),
(126,355,l),
(126,670,l),
(457,670,l),
(457,690,l),
(106,690,l)
);
}
);
width = 535;
}
);
leftKerningGroup = B;
rightKerningGroup = E;
unicode = 69;
},
{
glyphname = Eogonek;
layers = (
{
anchors = (
{
name = b.uni0326;
position = "{283, 0}";
},
{
name = b.uni0328_1;
position = "{500, 0}";
},
{
name = t.uni0308_2;
position = "{283, 690}";
},
{
name = m.uni0335_3;
position = "{0, 0}";
}
);
layerId = "388820D5-7EEF-4EDE-95C9-B421FC6E7F1D";
shapes = (
{
closed = 1;
nodes = (
(67,0,l),
(356,0,l),
(309,-22,o),
(273,-57,o),
(273,-112,cs),
(273,-174,o),
(314,-230,o),
(397,-237,cs),
(451,-242,o),
(513,-218,o),
(553,-176,c),
(497,-99,l),
(482,-132,o),
(455,-153,o),
(427,-153,cs),
(400,-153,o),
(381,-135,o),
(381,-96,cs),
(381,-50,o),
(426,-32,o),
(500,0,c),
(500,162,l),
(254,162,l),
(254,265,l),
(461,265,l),
(461,425,l),
(254,425,l),
(254,528,l),
(500,528,l),
(500,690,l),
(67,690,l)
);
}
);
width = 536;
},
{
anchors = (
{
name = b.uni0326;
position = "{279, 0}";
},
{
name = b.uni0328_1;
position = "{469, 0}";
},
{
name = t.uni0308_2;
position = "{279, 690}";
},
{
name = m.uni0335_3;
position = "{0, 0}";
}
);
layerId = "9088FA62-0D59-4181-A049-8D6D4F8D84ED";
shapes = (
{
closed = 1;
nodes = (
(89,0,l),
(406,0,l),
(344,-39,o),
(299,-82,o),
(299,-142,cs),
(299,-200,o),
(339,-236,o),
(403,-238,cs),
(449,-240,o),
(491,-225,o),
(525,-191,c),
(499,-153,l),
(478,-182,o),
(447,-197,o),
(414,-197,cs),
(374,-197,o),
(352,-171,o),
(352,-135,cs),
(352,-73,o),
(407,-36,o),
(469,0,c),
(469,75,l),
(167,75,l),
(167,307,l),
(430,307,l),
(430,383,l),
(167,383,l),
(167,615,l),
(469,615,l),
(469,690,l),
(89,690,l)
);
}
);
width = 536;
},
{
anchors = (
{
name = b.uni0326;
position = "{282, 0}";
},
{
name = b.uni0328_1;
position = "{456, 0}";
},
{
name = t.uni0308_2;
position = "{282, 690}";
},
{
name = m.uni0335_3;
position = "{0, 0}";
}
);
layerId = "445F1214-24C3-4409-A842-6A76E99C229F";
shapes = (
{
closed = 1;
nodes = (
(106,0,l),
(434,0,l),
(392,-45,o),
(353,-86,o),
(353,-148,cs),
(353,-204,o),
(383,-239,o),
(439,-239,cs),
(480,-239,o),
(505,-227,o),
(532,-200,c),
(523,-185,l),
(498,-208,o),
(476,-220,o),
(439,-220,cs),
(393,-220,o),
(370,-190,o),
(370,-148,cs),
(370,-85,o),
(420,-38,o),
(457,0,c),
(457,20,l),
(126,20,l),
(126,335,l),
(417,335,l),
(417,355,l),
(126,355,l),
(126,670,l),
(457,670,l),
(457,690,l),
(106,690,l)
);
}
);
width = 535;
}
);
unicode = 280;
},
{
glyphname = F;
layers = (
{
layerId = "388820D5-7EEF-4EDE-95C9-B421FC6E7F1D";
shapes = (
{
closed = 1;
nodes = (
(67,0,l),
(254,0,l),
(254,265,l),
(461,265,l),
(461,425,l),
(254,425,l),
(254,528,l),
(500,528,l),
(500,690,l),
(67,690,l)
);
}
);
width = 507;
},
{
layerId = "9088FA62-0D59-4181-A049-8D6D4F8D84ED";
shapes = (
{
closed = 1;
nodes = (
(89,0,l),
(167,0,l),
(167,307,l),
(430,307,l),
(430,383,l),
(167,383,l),
(167,615,l),
(469,615,l),
(469,690,l),
(89,690,l)
);
}
);
width = 489;
},
{
layerId = "445F1214-24C3-4409-A842-6A76E99C229F";
shapes = (
{
closed = 1;
nodes = (
(106,0,l),
(126,0,l),
(126,335,l),
(417,335,l),
(417,355,l),
(126,355,l),
(126,670,l),
(457,670,l),
(457,690,l),
(106,690,l)
);
}
);
width = 502;
}
);
leftKerningGroup = B;
unicode = 70;
},
{
glyphname = G;
layers = (
{
anchors = (
{
name = b.uni0326;
position = "{392, 0}";
},
{
name = b.uni0328_1;
position = "{758, 9}";
},
{
name = t.uni0308_2;
position = "{392, 690}";
},
{
name = m.uni0335_3;
position = "{392, 345}";
}
);
layerId = "388820D5-7EEF-4EDE-95C9-B421FC6E7F1D";
shapes = (
{
closed = 1;
nodes = (
(37,150,o),
(195,-9,o),
(391,-9,cs),
(587,-9,o),
(746,150,o),
(746,345,cs),
(746,385,l),
(390,385,l),
(390,243,l),
(535,243,l),
(502,201,o),
(451,174,o),
(391,174,cs),
(292,174,o),
(218,246,o),
(218,345,cs),
(218,444,o),
(292,516,o),
(391,516,cs),
(461,516,o),
(518,480,o),
(546,423,c),
(707,504,l),
(649,620,o),
(528,699,o),
(391,699,cs),
(195,699,o),
(37,541,o),
(37,345,cs)
);
}
);
width = 781;
},
{
anchors = (
{
name = b.uni0326;
position = "{413, 0}";
},
{
name = b.uni0328_1;
position = "{617, 9}";
},
{
name = t.uni0308_2;
position = "{413, 690}";
},
{
name = m.uni0335_3;
position = "{413, 345}";
}
);
layerId = "9088FA62-0D59-4181-A049-8D6D4F8D84ED";
shapes = (
{
closed = 1;
nodes = (
(59,150,o),
(216,-9,o),
(413,-9,cs),
(609,-9,o),
(767,150,o),
(767,345,cs),
(767,367,l),
(412,367,l),
(412,295,l),
(683,295,l),
(661,165,o),
(548,69,o),
(413,69,cs),
(261,69,o),
(137,192,o),
(137,345,cs),
(137,498,o),
(261,621,o),
(413,621,cs),
(516,621,o),
(607,565,o),
(653,481,c),
(720,519,l),
(660,627,o),
(545,699,o),
(413,699,cs),
(216,699,o),
(59,541,o),
(59,345,cs)
);
}
);
width = 825;
},
{
anchors = (
{
name = b.uni0326;
position = "{430, 0}";
},
{
name = b.uni0328_1;
position = "{541, 9}";
},
{
name = t.uni0308_2;
position = "{430, 690}";
},
{
name = m.uni0335_3;
position = "{430, 345}";
}
);
layerId = "445F1214-24C3-4409-A842-6A76E99C229F";
shapes = (
{
closed = 1;
nodes = (
(75,150,o),
(234,-9,o),
(429,-9,cs),
(626,-9,o),
(783,150,o),
(783,345,cs),
(783,352,l),
(429,352,l),
(429,331,l),
(763,331,l),
(756,152,o),
(610,11,o),
(429,11,cs),
(245,11,o),
(95,160,o),
(95,345,cs),
(95,530,o),
(245,679,o),
(429,679,cs),
(553,679,o),
(660,613,o),
(718,514,c),
(736,524,l),
(675,629,o),
(561,699,o),
(429,699,cs),
(234,699,o),
(75,541,o),
(75,345,cs)
);
}
);
width = 860;
}
);
leftKerningGroup = C2;
rightKerningGroup = C;
unicode = 71;
},
{
glyphname = H;
layers = (
{
anchors = (
{
name = b.uni0326;
position = "{364, 0}";
},
{
name = b.uni0328_1;
position = "{0, 0}";
},
{
name = t.uni0308_2;
position = "{364, 690}";
},
{
name = m.uni0335_3;
position = "{365, 547}";
}
);
layerId = "388820D5-7EEF-4EDE-95C9-B421FC6E7F1D";
shapes = (
{
closed = 1;
nodes = (
(61,0,l),
(248,0,l),
(248,265,l),
(483,265,l),
(483,0,l),
(670,0,l),
(670,690,l),
(483,690,l),
(483,426,l),
(248,426,l),
(248,690,l),
(61,690,l)
);
}
);
width = 732;
},
{
anchors = (
{
name = b.uni0326;
position = "{352, 0}";
},
{
name = b.uni0328_1;
position = "{0, 0}";
},
{
name = t.uni0308_2;
position = "{352, 690}";
},
{
name = m.uni0335_3;
position = "{349, 538}";
}
);
layerId = "9088FA62-0D59-4181-A049-8D6D4F8D84ED";
shapes = (
{
closed = 1;
nodes = (
(83,0,l),
(162,0,l),
(162,306,l),
(536,306,l),
(536,0,l),
(615,0,l),
(615,690,l),
(536,690,l),
(536,384,l),
(162,384,l),
(162,690,l),
(83,690,l)
);
}
);
width = 698;
},
{
anchors = (
{
name = b.uni0326;
position = "{350, 0}";
},
{
name = b.uni0328_1;
position = "{0, 0}";
},
{
name = t.uni0308_2;
position = "{350, 690}";
},
{
name = m.uni0335_3;
position = "{345, 534}";
}
);
layerId = "445F1214-24C3-4409-A842-6A76E99C229F";
shapes = (
{
closed = 1;
nodes = (
(100,0,l),
(121,0,l),
(121,335,l),
(569,335,l),
(569,0,l),
(590,0,l),
(590,690,l),
(569,690,l),
(569,355,l),
(121,355,l),
(121,690,l),
(100,690,l)
);
}
);
width = 690;
}
);
leftKerningGroup = B;
rightKerningGroup = E;
unicode = 72;
},
{
glyphname = Hbar;
layers = (
{
anchors = (
{
name = b.uni0326;
position = "{364, 0}";
},
{
name = b.uni0328_1;
position = "{0, 0}";
},
{
name = t.uni0308_2;
position = "{364, 690}";
},
{
name = m.uni0335_3;
position = "{365, 547}";
}
);
layerId = "388820D5-7EEF-4EDE-95C9-B421FC6E7F1D";
shapes = (
{
closed = 1;
nodes = (
(61,0,l),
(248,0,l),
(248,265,l),
(483,265,l),
(483,0,l),
(670,0,l),
(670,515,l),
(718,515,l),
(718,578,l),
(670,578,l),
(670,690,l),
(483,690,l),
(483,578,l),
(248,578,l),
(248,690,l),
(61,690,l),
(61,578,l),
(14,578,l),
(14,515,l),
(61,515,l)
);
},
{
closed = 1;
nodes = (
(248,426,l),
(248,515,l),
(483,515,l),
(483,426,l)
);
}
);
width = 732;
},
{
anchors = (
{
name = b.uni0326;
position = "{352, 0}";
},
{
name = b.uni0328_1;
position = "{0, 0}";
},
{
name = t.uni0308_2;
position = "{352, 690}";
},
{
name = m.uni0335_3;
position = "{349, 538}";
}
);
layerId = "9088FA62-0D59-4181-A049-8D6D4F8D84ED";
shapes = (
{
closed = 1;
nodes = (
(83,0,l),
(162,0,l),
(162,306,l),
(536,306,l),
(536,0,l),
(615,0,l),
(615,513,l),
(677,513,l),
(677,565,l),
(615,565,l),
(615,690,l),
(536,690,l),
(536,565,l),
(162,565,l),
(162,690,l),
(83,690,l),
(83,565,l),
(20,565,l),
(20,513,l),
(83,513,l)
);
},
{
closed = 1;
nodes = (
(162,384,l),
(162,513,l),
(536,513,l),
(536,384,l)
);
}
);
width = 698;
},
{
anchors = (
{
name = b.uni0326;
position = "{350, 0}";
},
{
name = b.uni0328_1;
position = "{0, 0}";
},
{
name = t.uni0308_2;
position = "{350, 690}";
},
{
name = m.uni0335_3;
position = "{345, 534}";
}
);
layerId = "445F1214-24C3-4409-A842-6A76E99C229F";
shapes = (
{
closed = 1;
nodes = (
(100,0,l),
(121,0,l),
(121,335,l),
(569,335,l),
(569,0,l),
(590,0,l),
(590,526,l),
(661,526,l),
(661,545,l),
(590,545,l),
(590,690,l),
(569,690,l),
(569,545,l),
(121,545,l),
(121,690,l),
(100,690,l),
(100,545,l),
(29,545,l),
(29,526,l),
(100,526,l)
);
},
{
closed = 1;
nodes = (
(121,355,l),
(121,526,l),
(569,526,l),
(569,355,l)
);
}
);
width = 690;
}
);
unicode = 294;
},
{
glyphname = I;
layers = (
{
anchors = (
{
name = b.uni0326;
position = "{159, 0}";
},
{
name = b.uni0328_1;
position = "{254, 0}";
},
{
name = t.uni0308_2;
position = "{159, 690}";
},
{
name = m.uni0335_3;
position = "{0, 0}";
}
);
layerId = "388820D5-7EEF-4EDE-95C9-B421FC6E7F1D";
shapes = (
{
closed = 1;
nodes = (
(67,0,l),
(254,0,l),
(254,690,l),
(67,690,l)
);
}
);
width = 320;
},
{
anchors = (
{
name = b.uni0326;
position = "{128, 0}";
},
{
name = b.uni0328_1;
position = "{168, 0}";
},
{
name = t.uni0308_2;
position = "{128, 690}";
},
{
name = m.uni0335_3;
position = "{0, 0}";
}
);
layerId = "9088FA62-0D59-4181-A049-8D6D4F8D84ED";
shapes = (
{
closed = 1;
nodes = (
(89,0,l),
(167,0,l),
(167,690,l),
(89,690,l)
);
}
);
width = 255;
},
{
anchors = (
{
name = b.uni0326;
position = "{116, 0}";
},
{
name = b.uni0328_1;
position = "{126, 0}";
},
{
name = t.uni0308_2;
position = "{116, 690}";
},
{
name = m.uni0335_3;
position = "{0, 0}";
}
);
layerId = "445F1214-24C3-4409-A842-6A76E99C229F";
shapes = (
{
closed = 1;
nodes = (
(106,0,l),
(126,0,l),
(126,690,l),
(106,690,l)
);
}
);
width = 232;
}
);
leftKerningGroup = B;
rightKerningGroup = E;
unicode = 73;
},
{
glyphname = Iogonek;
layers = (
{
anchors = (
{
name = b.uni0326;
position = "{159, 0}";
},
{
name = b.uni0328_1;
position = "{254, 0}";
},
{
name = t.uni0308_2;
position = "{159, 690}";
},
{
name = m.uni0335_3;
position = "{0, 0}";
}
);
layerId = "388820D5-7EEF-4EDE-95C9-B421FC6E7F1D";
shapes = (
{
closed = 1;
nodes = (
(27,-174,o),
(69,-230,o),
(151,-237,cs),
(205,-242,o),
(267,-218,o),
(306,-176,c),
(250,-99,l),
(236,-132,o),
(208,-153,o),
(181,-153,cs),
(153,-153,o),
(136,-135,o),
(136,-96,cs),
(136,-50,o),
(181,-32,o),
(254,0,c),
(254,690,l),
(67,690,l),
(67,0,l),
(109,0,l),
(63,-22,o),
(27,-57,o),
(27,-112,cs)
);
}
);
width = 320;
},
{
anchors = (
{
name = b.uni0326;
position = "{128, 0}";
},
{
name = b.uni0328_1;
position = "{168, 0}";
},
{
name = t.uni0308_2;
position = "{128, 690}";
},
{
name = m.uni0335_3;
position = "{0, 0}";
}
);
layerId = "9088FA62-0D59-4181-A049-8D6D4F8D84ED";
shapes = (
{
closed = 1;
nodes = (
(-2,-200,o),
(38,-236,o),
(101,-238,cs),
(148,-240,o),
(190,-225,o),
(225,-191,c),
(198,-153,l),
(178,-182,o),
(147,-197,o),
(112,-197,cs),
(73,-197,o),
(51,-171,o),
(51,-135,cs),
(51,-73,o),
(106,-36,o),
(167,0,c),
(167,690,l),
(89,690,l),
(89,0,l),
(105,0,l),
(44,-39,o),
(-2,-82,o),
(-2,-142,cs)
);
}
);
width = 255;
},
{
anchors = (
{
name = b.uni0326;
position = "{116, 0}";
},
{
name = b.uni0328_1;
position = "{126, 0}";
},
{
name = t.uni0308_2;
position = "{116, 690}";
},
{
name = m.uni0335_3;
position = "{0, 0}";
}
);
layerId = "445F1214-24C3-4409-A842-6A76E99C229F";
shapes = (
{
closed = 1;
nodes = (
(23,-204,o),
(52,-239,o),
(109,-239,cs),
(150,-239,o),
(174,-227,o),
(202,-200,c),
(193,-185,l),
(168,-208,o),
(146,-220,o),
(109,-220,cs),
(63,-220,o),
(40,-190,o),
(40,-148,cs),
(40,-85,o),
(89,-38,o),
(126,0,c),
(126,690,l),
(106,690,l),
(106,5,l),
(107,5,l),
(65,-43,o),
(23,-85,o),
(23,-148,cs)
);
}
);
width = 232;
}
);
unicode = 302;
},
{
glyphname = J;
layers = (
{
anchors = (
{
name = b.uni0326;
position = "{263, 0}";
},
{
name = b.uni0328_1;
position = "{0, 0}";
},
{
name = t.uni0308_2;
position = "{263, 690}";
},
{
name = m.uni0335_3;
position = "{0, 0}";
}
);
layerId = "388820D5-7EEF-4EDE-95C9-B421FC6E7F1D";
shapes = (
{
closed = 1;
nodes = (
(27,141,l),
(44,48,o),
(123,-9,o),
(263,-9,cs),
(423,-9,o),
(504,65,o),
(504,183,cs),
(504,690,l),
(316,690,l),
(316,207,ls),
(316,177,o),
(292,152,o),
(263,152,cs),
(237,152,o),
(216,171,o),
(211,198,c)
);
}
);
width = 556;
},
{
anchors = (
{
name = b.uni0326;
position = "{214, 0}";
},
{
name = b.uni0328_1;
position = "{0, 0}";
},
{
name = t.uni0308_2;
position = "{214, 690}";
},
{
name = m.uni0335_3;
position = "{0, 0}";
}
);
layerId = "9088FA62-0D59-4181-A049-8D6D4F8D84ED";
shapes = (
{
closed = 1;
nodes = (
(38,143,l),
(48,48,o),
(115,-9,o),
(214,-9,cs),
(321,-9,o),
(391,59,o),
(391,168,cs),
(391,690,l),
(313,690,l),
(313,176,ls),
(313,110,o),
(271,68,o),
(214,68,cs),
(163,68,o),
(122,104,o),
(117,161,c)
);
}
);
width = 460;
},
{
anchors = (
{
name = b.uni0326;
position = "{214, 0}";
},
{
name = b.uni0328_1;
position = "{0, 0}";
},
{
name = t.uni0308_2;
position = "{215, 690}";
},
{
name = m.uni0335_3;
position = "{0, 0}";
}
);
layerId = "445F1214-24C3-4409-A842-6A76E99C229F";
shapes = (
{
closed = 1;
nodes = (
(54,143,l),
(66,56,o),
(132,-9,o),
(214,-9,cs),
(304,-9,o),
(376,71,o),
(376,169,cs),
(376,690,l),
(357,690,l),
(357,169,ls),
(357,82,o),
(292,11,o),
(214,11,cs),
(144,11,o),
(84,70,o),
(75,146,c)
);
}
);
width = 463;
}
);
unicode = 74;
},
{
glyphname = K;
layers = (
{
anchors = (
{
name = b.uni0326;
position = "{369, 0}";
},
{
name = b.uni0328_1;
position = "{0, 0}";
},
{
name = t.uni0308_2;
position = "{346, 690}";
},
{
name = m.uni0335_3;
position = "{0, 0}";
}
);
layerId = "388820D5-7EEF-4EDE-95C9-B421FC6E7F1D";
shapes = (
{
closed = 1;
nodes = (
(61,0,l),
(248,0,l),
(248,305,l),
(256,305,l),
(500,0,l),
(749,0,l),
(414,390,l),
(703,690,l),
(465,690,l),
(265,465,l),
(248,465,l),
(248,690,l),
(61,690,l)
);
}
);
width = 718;
},
{
anchors = (
{
name = b.uni0326;
position = "{300, 0}";
},
{
name = b.uni0328_1;
position = "{0, 0}";
},
{
name = t.uni0308_2;
position = "{289, 690}";
},
{
name = m.uni0335_3;
position = "{0, 0}";
}
);
layerId = "9088FA62-0D59-4181-A049-8D6D4F8D84ED";
shapes = (
{
closed = 1;
nodes = (
(83,0,l),
(162,0,l),
(162,337,l),
(209,337,l),
(496,0,l),
(605,0,l),
(277,372,l),
(590,690,l),
(482,690,l),
(209,410,l),
(162,410,l),
(162,690,l),
(83,690,l)
);
}
);
width = 596;
},
{
anchors = (
{
name = b.uni0326;
position = "{268, 0}";
},
{
name = b.uni0328_1;
position = "{0, 0}";
},
{
name = t.uni0308_2;
position = "{263, 690}";
},
{
name = m.uni0335_3;
position = "{0, 0}";
}
);
layerId = "445F1214-24C3-4409-A842-6A76E99C229F";
shapes = (
{
closed = 1;
nodes = (
(100,0,l),
(121,0,l),
(121,362,l),
(161,362,l),
(486,0,l),
(516,0,l),
(180,373,l),
(507,690,l),
(477,690,l),
(162,383,l),
(121,383,l),
(121,690,l),
(100,690,l)
);
}
);
width = 516;
}
);
leftKerningGroup = B;
unicode = 75;
},
{
glyphname = Kcommaaccent;
layers = (
{
anchors = (
{
name = b.uni0326;
position = "{369, 0}";
},
{
name = b.uni0328_1;
position = "{0, 0}";
},
{
name = t.uni0308_2;
position = "{346, 690}";
},
{
name = m.uni0335_3;
position = "{0, 0}";
}
);
layerId = "388820D5-7EEF-4EDE-95C9-B421FC6E7F1D";
shapes = (
{
closed = 1;
nodes = (
(61,0,l),
(248,0,l),
(248,305,l),
(256,305,l),
(500,0,l),
(749,0,l),
(414,390,l),
(703,690,l),
(465,690,l),
(265,465,l),
(248,465,l),
(248,690,l),
(61,690,l)
);
},
{
closed = 1;
nodes = (
(235,-235,l),
(314,-235,l),
(440,-55,l),
(296,-55,l)
);
}
);
width = 718;
},
{
anchors = (
{
name = b.uni0326;
position = "{300, 0}";
},
{
name = b.uni0328_1;
position = "{0, 0}";
},
{
name = t.uni0308_2;
position = "{289, 690}";
},
{
name = m.uni0335_3;
position = "{0, 0}";
}
);
layerId = "9088FA62-0D59-4181-A049-8D6D4F8D84ED";
shapes = (
{
closed = 1;
nodes = (
(83,0,l),
(162,0,l),
(162,337,l),
(209,337,l),
(496,0,l),
(605,0,l),
(277,372,l),
(590,690,l),
(482,690,l),
(209,410,l),
(162,410,l),
(162,690,l),
(83,690,l)
);
},
{
closed = 1;
nodes = (
(185,-218,l),
(237,-218,l),
(346,-55,l),
(254,-55,l)
);
}
);
width = 596;
},
{
anchors = (
{
name = b.uni0326;
position = "{268, 0}";
},
{
name = b.uni0328_1;
position = "{0, 0}";
},
{
name = t.uni0308_2;
position = "{263, 690}";
},
{
name = m.uni0335_3;
position = "{0, 0}";
}
);
layerId = "445F1214-24C3-4409-A842-6A76E99C229F";
shapes = (
{
closed = 1;
nodes = (
(100,0,l),
(121,0,l),
(121,362,l),
(161,362,l),
(486,0,l),
(516,0,l),
(180,373,l),
(507,690,l),
(477,690,l),
(162,383,l),
(121,383,l),
(121,690,l),
(100,690,l)
);
},
{
closed = 1;
nodes = (
(181,-230,l),
(202,-230,l),
(279,-55,l),
(256,-55,l)
);
}
);
width = 516;
}
);
unicode = 310;
},
{
glyphname = L;
layers = (
{
anchors = (
{
name = b.uni0326;
position = "{263, 0}";
},
{
name = b.uni0328_1;
position = "{0, 0}";
},
{
name = t.uni0308_2;
position = "{155, 690}";
},
{
name = m.uni0335_3;
position = "{155, 345}";
}
);
layerId = "388820D5-7EEF-4EDE-95C9-B421FC6E7F1D";
shapes = (
{
closed = 1;
nodes = (
(61,0,l),
(464,0,l),
(464,162,l),
(248,162,l),
(248,690,l),
(61,690,l)
);
}
);
width = 463;
},
{
anchors = (
{
name = b.uni0326;
position = "{250, 0}";
},
{
name = b.uni0328_1;
position = "{0, 0}";
},
{
name = t.uni0308_2;
position = "{123, 690}";
},
{
name = m.uni0335_3;
position = "{124, 345}";
}
);
layerId = "9088FA62-0D59-4181-A049-8D6D4F8D84ED";
shapes = (
{
closed = 1;
nodes = (
(83,0,l),
(416,0,l),
(416,78,l),
(162,78,l),
(162,690,l),
(83,690,l)
);
}
);
width = 426;
},
{
anchors = (
{
name = b.uni0326;
position = "{248, 0}";
},
{
name = b.uni0328_1;
position = "{0, 0}";
},
{
name = t.uni0308_2;
position = "{110, 690}";
},
{
name = m.uni0335_3;
position = "{110, 345}";
}
);
layerId = "445F1214-24C3-4409-A842-6A76E99C229F";
shapes = (
{
closed = 1;
nodes = (
(100,0,l),
(397,0,l),
(397,20,l),
(121,20,l),
(121,690,l),
(100,690,l)
);
}
);
width = 414;
}
);
leftKerningGroup = B;
rightKerningGroup = L;
unicode = 76;
},
{
glyphname = Lcaron;
layers = (
{
anchors = (
{
name = b.uni0326;
position = "{263, 0}";
},
{
name = b.uni0328_1;
position = "{0, 0}";
},
{
name = t.uni0308_2;
position = "{155, 690}";
},
{
name = m.uni0335_3;
position = "{150, 345}";
}
);
layerId = "388820D5-7EEF-4EDE-95C9-B421FC6E7F1D";
shapes = (
{
closed = 1;
nodes = (
(561,690,l),
(423,690,l),
(343,412,l),
(429,412,l)
);
},
{
alignment = -1;
ref = L;
}
);
width = 529;
},
{
anchors = (
{
name = b.uni0326;
position = "{250, 0}";
},
{
name = b.uni0328_1;
position = "{0, 0}";
},
{
name = t.uni0308_2;
position = "{123, 690}";
},
{
name = m.uni0335_3;
position = "{147, 345}";
}
);
layerId = "9088FA62-0D59-4181-A049-8D6D4F8D84ED";
shapes = (
{
closed = 1;
nodes = (
(414,690,l),
(329,690,l),
(255,413,l),
(308,413,l)
);
},
{
alignment = -1;
ref = L;
}
);
width = 429;
},
{
anchors = (
{
name = b.uni0326;
position = "{248, 0}";
},
{
name = b.uni0328_1;
position = "{0, 0}";
},
{
name = t.uni0308_2;
position = "{110, 690}";
},
{
name = m.uni0335_3;
position = "{111, 345}";
}
);
layerId = "445F1214-24C3-4409-A842-6A76E99C229F";
shapes = (
{
closed = 1;
nodes = (
(378,690,l),
(356,690,l),
(270,412,l),
(291,412,l)
);
},
{
alignment = -1;
ref = L;
}
);
width = 414;
}
);
leftKerningGroup = B;
rightKerningGroup = L;
unicode = 317;
},
{
glyphname = Lslash;
layers = (
{
anchors = (
{
name = b.uni0326;
position = "{263, 0}";
},
{
name = b.uni0328_1;
position = "{0, 0}";
},
{
name = t.uni0308_2;
position = "{155, 690}";
},
{
name = m.uni0335_3;
position = "{155, 345}";
}
);
layerId = "388820D5-7EEF-4EDE-95C9-B421FC6E7F1D";
shapes = (
{
closed = 1;
nodes = (
(7,124,l),
(61,180,l),
(61,0,l),
(464,0,l),
(464,162,l),
(248,162,l),
(248,376,l),
(373,506,l),
(302,566,l),
(248,510,l),
(248,690,l),
(61,690,l),
(61,314,l),
(-63,187,l)
);
}
);
width = 463;
},
{
anchors = (
{
name = b.uni0326;
position = "{250, 0}";
},
{
name = b.uni0328_1;
position = "{0, 0}";
},
{
name = t.uni0308_2;
position = "{123, 690}";
},
{
name = m.uni0335_3;
position = "{124, 345}";
}
);
layerId = "9088FA62-0D59-4181-A049-8D6D4F8D84ED";
shapes = (
{
closed = 1;
nodes = (
(18,195,l),
(83,263,l),
(83,0,l),
(416,0,l),
(416,78,l),
(162,78,l),
(162,346,l),
(270,461,l),
(228,495,l),
(162,425,l),
(162,690,l),
(83,690,l),
(83,342,l),
(-23,229,l)
);
}
);
width = 426;
},
{
anchors = (
{
name = b.uni0326;
position = "{248, 0}";
},
{
name = b.uni0328_1;
position = "{0, 0}";
},
{
name = t.uni0308_2;
position = "{110, 690}";
},
{
name = m.uni0335_3;
position = "{110, 345}";
}
);
layerId = "445F1214-24C3-4409-A842-6A76E99C229F";
shapes = (
{
closed = 1;
nodes = (
(35,249,l),
(100,320,l),
(100,0,l),
(397,0,l),
(397,20,l),
(121,20,l),
(121,343,l),
(200,429,l),
(185,442,l),
(121,371,l),
(121,690,l),
(100,690,l),
(100,348,l),
(21,260,l)
);
}
);
width = 414;
}
);
unicode = 321;
},
{
glyphname = M;
layers = (
{
layerId = "388820D5-7EEF-4EDE-95C9-B421FC6E7F1D";
shapes = (
{
closed = 1;
nodes = (
(61,0,l),
(248,0,l),
(248,352,l),
(413,0,l),
(510,0,l),
(674,350,l),
(674,0,l),
(861,0,l),
(861,690,l),
(659,690,l),
(461,269,l),
(264,690,l),
(61,690,l)
);
}
);
width = 922;
},
{
layerId = "9088FA62-0D59-4181-A049-8D6D4F8D84ED";
shapes = (
{
closed = 1;
nodes = (
(83,0,l),
(162,0,l),
(162,536,l),
(397,0,l),
(459,0,l),
(696,534,l),
(696,0,l),
(773,0,l),
(773,690,l),
(691,690,l),
(429,97,l),
(167,690,l),
(83,690,l)
);
}
);
width = 857;
},
{
layerId = "445F1214-24C3-4409-A842-6A76E99C229F";
shapes = (
{
closed = 1;
nodes = (
(100,0,l),
(121,0,l),
(121,644,l),
(408,0,l),
(424,0,l),
(712,644,l),
(712,0,l),
(732,0,l),
(732,690,l),
(714,690,l),
(416,25,l),
(119,690,l),
(100,690,l)
);
}
);
width = 834;
}
);
leftKerningGroup = B;
rightKerningGroup = E;
unicode = 77;
},
{
glyphname = N;
layers = (
{
anchors = (
{
name = b.uni0326;
position = "{398, 0}";
},
{
name = b.uni0328_1;
position = "{0, 0}";
},
{
name = t.uni0308_2;
position = "{407, 690}";
},
{
name = m.uni0335_3;
position = "{0, 0}";
}
);
layerId = "388820D5-7EEF-4EDE-95C9-B421FC6E7F1D";
shapes = (
{
closed = 1;
nodes = (
(61,0,l),
(248,0,l),
(248,407,l),
(546,0,l),
(744,0,l),
(744,690,l),
(557,690,l),
(557,284,l),
(257,690,l),
(61,690,l)
);
}
);
width = 806;
},
{
anchors = (
{
name = b.uni0326;
position = "{373, 0}";
},
{
name = b.uni0328_1;
position = "{0, 0}";
},
{
name = t.uni0308_2;
position = "{368, 690}";
},
{
name = m.uni0335_3;
position = "{0, 0}";
}
);
layerId = "9088FA62-0D59-4181-A049-8D6D4F8D84ED";
shapes = (
{
closed = 1;
nodes = (
(83,0,l),
(162,0,l),
(162,560,l),
(581,0,l),
(656,0,l),
(656,690,l),
(579,690,l),
(579,130,l),
(158,690,l),
(83,690,l)
);
}
);
width = 739;
},
{
anchors = (
{
name = b.uni0326;
position = "{363, 0}";
},
{
name = b.uni0328_1;
position = "{0, 0}";
},
{
name = t.uni0308_2;
position = "{352, 690}";
},
{
name = m.uni0335_3;
position = "{0, 0}";
}
);
layerId = "445F1214-24C3-4409-A842-6A76E99C229F";
shapes = (
{
closed = 1;
nodes = (
(100,0,l),
(121,0,l),
(121,640,l),
(606,0,l),
(615,0,l),
(615,690,l),
(595,690,l),
(595,49,l),
(110,690,l),
(100,690,l)
);
}
);
width = 717;
}
);
leftKerningGroup = B;
rightKerningGroup = E;
unicode = 78;
},
{
glyphname = Eng;
layers = (
{
anchors = (
{
name = b.uni0326;
position = "{398, 0}";
},
{
name = b.uni0328_1;
position = "{0, 0}";
},
{
name = t.uni0308_2;
position = "{407, 690}";
},
{
name = m.uni0335_3;
position = "{0, 0}";
}
);
layerId = "388820D5-7EEF-4EDE-95C9-B421FC6E7F1D";
shapes = (
{
closed = 1;
nodes = (
(61,0,l),
(248,0,l),
(248,407,l),
(546,0,l),
(546,-56,ls),
(546,-144,o),
(515,-146,o),
(473,-149,c),
(473,-262,l),
(616,-261,o),
(744,-215,o),
(744,-63,cs),
(744,690,l),
(557,690,l),
(557,284,l),
(257,690,l),
(61,690,l)
);
}
);
width = 806;
},
{
anchors = (
{
name = b.uni0326;
position = "{373, 0}";
},
{
name = b.uni0328_1;
position = "{0, 0}";
},
{
name = t.uni0308_2;
position = "{368, 690}";
},
{
name = m.uni0335_3;
position = "{0, 0}";
}
);
layerId = "9088FA62-0D59-4181-A049-8D6D4F8D84ED";
shapes = (
{
closed = 1;
nodes = (
(83,0,l),
(162,0,l),
(162,560,l),
(581,0,l),
(581,-93,ls),
(581,-154,o),
(553,-163,o),
(521,-162,c),
(521,-231,l),
(612,-231,o),
(656,-199,o),
(656,-99,cs),
(656,690,l),
(579,690,l),
(579,130,l),
(158,690,l),
(83,690,l)
);
}
);
width = 739;
},
{
anchors = (
{
name = b.uni0326;
position = "{363, 0}";
},
{
name = b.uni0328_1;
position = "{0, 0}";
},
{
name = t.uni0308_2;
position = "{352, 690}";
},
{
name = m.uni0335_3;
position = "{0, 0}";
}
);
layerId = "445F1214-24C3-4409-A842-6A76E99C229F";
shapes = (
{
closed = 1;
nodes = (
(100,0,l),
(121,0,l),
(121,640,l),
(596,15,l),
(596,-112,ls),
(596,-161,o),
(568,-186,o),
(527,-181,c),
(527,-201,l),
(581,-206,o),
(615,-171,o),
(615,-113,cs),
(615,690,l),
(595,690,l),
(595,49,l),
(110,690,l),
(100,690,l)
);
}
);
width = 717;
}
);
leftKerningGroup = B;
rightKerningGroup = E;
unicode = 330;
},
{
glyphname = O;
layers = (
{
anchors = (
{
name = b.uni0326;
position = "{392, 0}";
},
{
name = b.uni0328_1;
position = "{758, 9}";
},
{
name = t.uni0308_2;
position = "{392, 690}";
},
{
name = m.uni0335_3;
position = "{392, 345}";
}
);
layerId = "388820D5-7EEF-4EDE-95C9-B421FC6E7F1D";
shapes = (
{
closed = 1;
nodes = (
(37,150,o),
(195,-9,o),
(391,-9,cs),
(587,-9,o),
(746,150,o),
(746,345,cs),
(746,541,o),
(587,699,o),
(391,699,cs),
(195,699,o),
(37,541,o),
(37,345,cs)
);
},
{
closed = 1;
nodes = (
(219,444,o),
(293,516,o),
(391,516,cs),
(489,516,o),
(562,444,o),
(562,345,cs),
(562,246,o),
(489,174,o),
(391,174,cs),
(293,174,o),
(219,246,o),
(219,345,cs)
);
}
);
width = 782;
},
{
anchors = (
{
name = b.uni0326;
position = "{409, 0}";
},
{
name = b.uni0328_1;
position = "{614, 9}";
},
{
name = t.uni0308_2;
position = "{409, 690}";
},
{
name = m.uni0335_3;
position = "{409, 345}";
}
);
layerId = "9088FA62-0D59-4181-A049-8D6D4F8D84ED";
shapes = (
{
closed = 1;
nodes = (
(55,150,o),
(214,-9,o),
(410,-9,cs),
(606,-9,o),
(764,150,o),
(764,345,cs),
(764,541,o),
(606,699,o),
(410,699,cs),
(214,699,o),
(55,541,o),
(55,345,cs)
);
},
{
closed = 1;
nodes = (
(134,498,o),
(257,621,o),
(410,621,cs),
(564,621,o),
(685,498,o),
(685,345,cs),
(685,192,o),
(564,69,o),
(410,69,cs),
(257,69,o),
(134,192,o),
(134,345,cs)
);
}
);
width = 820;
},
{
anchors = (
{
name = b.uni0326;
position = "{430, 0}";
},
{
name = b.uni0328_1;
position = "{541, 9}";
},
{
name = t.uni0308_2;
position = "{430, 690}";
},
{
name = m.uni0335_3;
position = "{430, 345}";
}
);
layerId = "445F1214-24C3-4409-A842-6A76E99C229F";
shapes = (
{
closed = 1;
nodes = (
(75,150,o),
(234,-9,o),
(429,-9,cs),
(626,-9,o),
(783,150,o),
(783,345,cs),
(783,541,o),
(626,699,o),
(429,699,cs),
(234,699,o),
(75,541,o),
(75,345,cs)
);
},
{
closed = 1;
nodes = (
(95,530,o),
(245,679,o),
(429,679,cs),
(614,679,o),
(764,530,o),
(764,345,cs),
(764,160,o),
(614,11,o),
(429,11,cs),
(245,11,o),
(95,160,o),
(95,345,cs)
);
}
);
width = 860;
}
);
leftKerningGroup = C2;
rightKerningGroup = C;
unicode = 79;
},
{
glyphname = Oslash;
layers = (
{
anchors = (
{
name = b.uni0326;
position = "{392, 0}";
},
{
name = b.uni0328_1;
position = "{758, 9}";
},
{
name = t.uni0308_2;
position = "{392, 690}";
},
{
name = m.uni0335_3;
position = "{392, 345}";
}
);
layerId = "388820D5-7EEF-4EDE-95C9-B421FC6E7F1D";
shapes = (
{
closed = 1;
nodes = (
(76,1,l),
(183,-62,l),
(243,23,l),
(288,2,o),
(338,-9,o),
(391,-9,cs),
(587,-9,o),
(746,150,o),
(746,345,cs),
(746,443,o),
(705,533,o),
(641,597,c),
(705,689,l),
(599,752,l),
(539,668,l),
(494,689,o),
(444,699,o),
(391,699,cs),
(195,699,o),
(37,541,o),
(37,345,cs),
(37,247,o),
(76,158,o),
(141,94,c)
);
},
{
closed = 1;
nodes = (
(247,247,l),
(229,275,o),
(219,309,o),
(219,345,cs),
(219,444,o),
(293,516,o),
(391,516,cs),
(406,516,o),
(420,514,o),
(432,513,c)
);
},
{
closed = 1;
nodes = (
(535,443,l),
(552,415,o),
(562,383,o),
(562,345,cs),
(562,246,o),
(489,174,o),
(391,174,cs),
(376,174,o),
(364,176,o),
(350,178,c)
);
}
);
width = 782;
},
{
anchors = (
{
name = b.uni0326;
position = "{409, 0}";
},
{
name = b.uni0328_1;
position = "{614, 9}";
},
{
name = t.uni0308_2;
position = "{409, 690}";
},
{
name = m.uni0335_3;
position = "{409, 345}";
}
);
layerId = "9088FA62-0D59-4181-A049-8D6D4F8D84ED";
shapes = (
{
closed = 1;
nodes = (
(125,-8,l),
(181,-42,l),
(236,36,l),
(288,8,o),
(347,-9,o),
(410,-9,cs),
(606,-9,o),
(764,150,o),
(764,345,cs),
(764,454,o),
(716,550,o),
(639,615,c),
(695,696,l),
(640,731,l),
(586,653,l),
(534,682,o),
(474,699,o),
(410,699,cs),
(214,699,o),
(55,541,o),
(55,345,cs),
(55,237,o),
(105,139,o),
(181,75,c)
);
},
{
closed = 1;
nodes = (
(134,498,o),
(257,621,o),
(410,621,cs),
(458,621,o),
(501,609,o),
(540,588,c),
(226,138,l),
(170,189,o),
(134,262,o),
(134,345,cs)
);
},
{
closed = 1;
nodes = (
(594,550,l),
(649,501,o),
(685,427,o),
(685,345,cs),
(685,192,o),
(564,69,o),
(410,69,cs),
(363,69,o),
(319,81,o),
(280,102,c)
);
}
);
width = 820;
},
{
anchors = (
{
name = b.uni0326;
position = "{430, 0}";
},
{
name = b.uni0328_1;
position = "{541, 9}";
},
{
name = t.uni0308_2;
position = "{430, 690}";
},
{
name = m.uni0335_3;
position = "{430, 345}";
}
);
layerId = "445F1214-24C3-4409-A842-6A76E99C229F";
shapes = (
{
closed = 1;
nodes = (
(182,6,l),
(198,-4,l),
(236,49,l),
(291,13,o),
(359,-9,o),
(429,-9,cs),
(626,-9,o),
(783,150,o),
(783,345,cs),
(783,462,o),
(728,566,o),
(641,630,c),
(678,682,l),
(661,692,l),
(626,639,l),
(569,677,o),
(502,699,o),
(429,699,cs),
(234,699,o),
(75,541,o),
(75,345,cs),
(75,228,o),
(132,124,o),
(220,60,c)
);
},
{
closed = 1;
nodes = (
(95,530,o),
(245,679,o),
(429,679,cs),
(498,679,o),
(562,658,o),
(614,623,c),
(231,76,l),
(149,137,o),
(95,234,o),
(95,345,cs)
);
},
{
closed = 1;
nodes = (
(629,613,l),
(711,552,o),
(764,456,o),
(764,345,cs),
(764,160,o),
(614,11,o),
(429,11,cs),
(362,11,o),
(300,31,o),
(247,65,c)
);
}
);
width = 860;
}
);
unicode = 216;
},
{
glyphname = OE;
layers = (
{
layerId = "388820D5-7EEF-4EDE-95C9-B421FC6E7F1D";
shapes = (
{
closed = 1;
nodes = (
(37,150,o),
(195,-9,o),
(391,-9,cs),
(432,-9,o),
(471,-2,o),
(506,9,c),
(506,0,l),
(906,0,l),
(906,156,l),
(678,156,l),
(678,266,l),
(867,266,l),
(867,424,l),
(678,424,l),
(678,534,l),
(906,534,l),
(906,690,l),
(506,690,l),
(506,681,l),
(471,692,o),
(432,699,o),
(391,699,cs),
(195,699,o),
(37,541,o),
(37,345,cs)
);
},
{
closed = 1;
nodes = (
(218,443,o),
(294,518,o),
(391,518,cs),
(436,518,o),
(475,502,o),
(506,476,c),
(506,214,l),
(475,188,o),
(436,172,o),
(391,172,cs),
(294,172,o),
(218,248,o),
(218,345,cs)
);
}
);
width = 944;
},
{
layerId = "9088FA62-0D59-4181-A049-8D6D4F8D84ED";
shapes = (
{
closed = 1;
nodes = (
(55,150,o),
(214,-9,o),
(410,-9,cs),
(451,-9,o),
(490,-2,o),
(527,10,c),
(527,0,l),
(895,0,l),
(895,75,l),
(593,75,l),
(593,307,l),
(855,307,l),
(855,383,l),
(593,383,l),
(593,615,l),
(895,615,l),
(895,690,l),
(527,690,l),
(527,680,l),
(490,692,o),
(451,699,o),
(410,699,cs),
(214,699,o),
(55,541,o),
(55,345,cs)
);
},
{
closed = 1;
nodes = (
(132,498,o),
(256,623,o),
(411,623,cs),
(452,623,o),
(491,614,o),
(527,598,c),
(527,92,l),
(491,76,o),
(452,67,o),
(411,67,cs),
(256,67,o),
(132,192,o),
(132,345,cs)
);
}
);
width = 961;
},
{
layerId = "445F1214-24C3-4409-A842-6A76E99C229F";
shapes = (
{
closed = 1;
nodes = (
(75,150,o),
(234,-9,o),
(429,-9,cs),
(466,-9,o),
(500,-3,o),
(532,6,c),
(532,0,l),
(882,0,l),
(882,20,l),
(552,20,l),
(552,335,l),
(844,335,l),
(844,355,l),
(552,355,l),
(552,670,l),
(882,670,l),
(882,690,l),
(532,690,l),
(532,684,l),
(500,693,o),
(466,699,o),
(429,699,cs),
(234,699,o),
(75,541,o),
(75,345,cs)
);
},
{
closed = 1;
nodes = (
(95,530,o),
(245,679,o),
(429,679,cs),
(466,679,o),
(500,673,o),
(532,664,c),
(532,26,l),
(500,17,o),
(466,11,o),
(429,11,cs),
(245,11,o),
(95,160,o),
(95,345,cs)
);
}
);
width = 960;
}
);
leftKerningGroup = C2;
unicode = 338;
},
{
glyphname = P;
layers = (
{
layerId = "388820D5-7EEF-4EDE-95C9-B421FC6E7F1D";
shapes = (
{
closed = 1;
nodes = (
(61,0,l),
(248,0,l),
(248,266,l),
(374,266,ls),
(496,266,o),
(588,354,o),
(588,475,cs),
(588,594,o),
(496,690,o),
(374,690,cs),
(61,690,l)
);
},
{
closed = 1;
nodes = (
(248,417,l),
(248,528,l),
(344,528,ls),
(382,528,o),
(409,506,o),
(409,474,cs),
(409,441,o),
(382,417,o),
(344,417,cs)
);
}
);
width = 585;
},
{
layerId = "9088FA62-0D59-4181-A049-8D6D4F8D84ED";
shapes = (
{
closed = 1;
nodes = (
(83,0,l),
(162,0,l),
(162,305,l),
(333,305,ls),
(441,305,o),
(526,389,o),
(526,497,cs),
(526,604,o),
(441,690,o),
(333,690,cs),
(83,690,l)
);
},
{
closed = 1;
nodes = (
(162,379,l),
(162,615,l),
(325,615,ls),
(393,615,o),
(448,567,o),
(448,496,cs),
(448,422,o),
(393,379,o),
(325,379,cs)
);
}
);
width = 545;
},
{
layerId = "445F1214-24C3-4409-A842-6A76E99C229F";
shapes = (
{
closed = 1;
nodes = (
(100,0,l),
(121,0,l),
(121,326,l),
(316,326,ls),
(416,326,o),
(498,407,o),
(498,508,cs),
(498,610,o),
(416,690,o),
(316,690,cs),
(100,690,l)
);
},
{
closed = 1;
nodes = (
(121,346,l),
(121,670,l),
(315,670,ls),
(405,670,o),
(477,598,o),
(477,508,cs),
(477,417,o),
(406,346,o),
(315,346,cs)
);
}
);
width = 534;
}
);
leftKerningGroup = B;
unicode = 80;
},
{
glyphname = Thorn;
layers = (
{
layerId = "388820D5-7EEF-4EDE-95C9-B421FC6E7F1D";
shapes = (
{
closed = 1;
nodes = (
(68,0,l),
(249,0,l),
(249,164,l),
(379,164,ls),
(498,164,o),
(590,255,o),
(590,370,cs),
(590,491,o),
(498,587,o),
(379,587,cs),
(249,587,l),
(249,690,l),
(68,690,l)
);
},
{
closed = 1;
nodes = (
(249,323,l),
(249,429,l),
(373,429,ls),
(403,429,o),
(427,406,o),
(427,375,cs),
(427,348,o),
(403,323,o),
(373,323,cs)
);
}
);
width = 605;
},
{
layerId = "9088FA62-0D59-4181-A049-8D6D4F8D84ED";
shapes = (
{
closed = 1;
nodes = (
(90,0,l),
(166,0,l),
(166,210,l),
(338,210,ls),
(445,210,o),
(531,294,o),
(531,400,cs),
(531,507,o),
(445,595,o),
(338,595,cs),
(166,595,l),
(166,690,l),
(90,690,l)
);
},
{
closed = 1;
nodes = (
(166,285,l),
(166,519,l),
(332,519,ls),
(401,519,o),
(453,471,o),
(453,403,cs),
(453,333,o),
(403,285,o),
(332,285,cs)
);
}
);
width = 567;
},
{
layerId = "445F1214-24C3-4409-A842-6A76E99C229F";
shapes = (
{
closed = 1;
nodes = (
(107,0,l),
(128,0,l),
(128,234,l),
(322,234,ls),
(422,234,o),
(505,315,o),
(505,416,cs),
(505,518,o),
(422,598,o),
(322,598,cs),
(128,598,l),
(128,690,l),
(107,690,l)
);
},
{
closed = 1;
nodes = (
(128,254,l),
(128,578,l),
(321,578,ls),
(412,578,o),
(484,506,o),
(484,416,cs),
(484,325,o),
(412,254,o),
(321,254,cs)
);
}
);
width = 558;
}
);
unicode = 222;
},
{
glyphname = Q;
layers = (
{
anchors = (
{
name = b.uni0326;
position = "{392, 0}";
},
{
name = b.uni0328_1;
position = "{758, 9}";
},
{
name = t.uni0308_2;
position = "{392, 690}";
},
{
name = m.uni0335_3;
position = "{392, 345}";
}
);
layerId = "388820D5-7EEF-4EDE-95C9-B421FC6E7F1D";
shapes = (
{
closed = 1;
nodes = (
(37,150,o),
(195,-9,o),
(391,-9,cs),
(419,-9,o),
(447,-6,o),
(472,0,c),
(771,0,l),
(771,127,l),
(716,127,l),
(635,87,l),
(703,151,o),
(746,243,o),
(746,345,cs),
(746,541,o),
(587,699,o),
(391,699,cs),
(195,699,o),
(37,541,o),
(37,345,cs)
);
},
{
closed = 1;
nodes = (
(219,444,o),
(293,516,o),
(391,516,cs),
(489,516,o),
(562,444,o),
(562,345,cs),
(562,246,o),
(489,174,o),
(391,174,cs),
(293,174,o),
(219,246,o),
(219,345,cs)
);
}
);
width = 781;
},
{
anchors = (
{
name = b.uni0326;
position = "{409, 0}";
},
{
name = b.uni0328_1;
position = "{614, 9}";
},
{
name = t.uni0308_2;
position = "{409, 690}";
},
{
name = m.uni0335_3;
position = "{409, 345}";
}
);
layerId = "9088FA62-0D59-4181-A049-8D6D4F8D84ED";
shapes = (
{
closed = 1;
nodes = (
(55,150,o),
(214,-9,o),
(410,-9,cs),
(437,-9,o),
(465,-6,o),
(490,0,c),
(790,0,l),
(790,72,l),
(689,72,l),
(589,39,l),
(693,100,o),
(764,214,o),
(764,345,cs),
(764,541,o),
(606,699,o),
(410,699,cs),
(214,699,o),
(55,541,o),
(55,345,cs)
);
},
{
closed = 1;
nodes = (
(134,498,o),
(257,621,o),
(410,621,cs),
(564,621,o),
(685,498,o),
(685,345,cs),
(685,192,o),
(564,69,o),
(410,69,cs),
(257,69,o),
(134,192,o),
(134,345,cs)
);
}
);
width = 825;
},
{
anchors = (
{
name = b.uni0326;
position = "{430, 0}";
},
{
name = b.uni0328_1;
position = "{541, 9}";
},
{
name = t.uni0308_2;
position = "{430, 690}";
},
{
name = m.uni0335_3;
position = "{430, 345}";
}
);
layerId = "445F1214-24C3-4409-A842-6A76E99C229F";
shapes = (
{
closed = 1;
nodes = (
(75,150,o),
(234,-9,o),
(429,-9,cs),
(457,-9,o),
(484,-6,o),
(510,0,c),
(775,0,l),
(775,20,l),
(613,20,l),
(545,10,l),
(684,57,o),
(783,190,o),
(783,345,cs),
(783,541,o),
(626,699,o),
(429,699,cs),
(234,699,o),
(75,541,o),
(75,345,cs)
);
},
{
closed = 1;
nodes = (
(95,530,o),
(245,679,o),
(429,679,cs),
(614,679,o),
(764,530,o),
(764,345,cs),
(764,160,o),
(614,11,o),
(429,11,cs),
(245,11,o),
(95,160,o),
(95,345,cs)
);
}
);
width = 860;
}
);
leftKerningGroup = C2;
rightKerningGroup = E;
unicode = 81;
},
{
glyphname = R;
layers = (
{
anchors = (
{
name = b.uni0326;
position = "{325, 0}";
},
{
name = b.uni0328_1;
position = "{0, 0}";
},
{
name = t.uni0308_2;
position = "{325, 690}";
},
{
name = m.uni0335_3;
position = "{0, 0}";
}
);
layerId = "388820D5-7EEF-4EDE-95C9-B421FC6E7F1D";
shapes = (
{
closed = 1;
nodes = (
(61,0,l),
(248,0,l),
(248,247,l),
(278,247,l),
(435,0,l),
(646,0,l),
(456,269,l),
(535,298,o),
(588,375,o),
(588,470,cs),
(588,591,o),
(499,690,o),
(374,690,cs),
(61,690,l)
);
},
{
closed = 1;
nodes = (
(248,395,l),
(248,528,l),
(344,528,ls),
(382,528,o),
(409,500,o),
(409,462,cs),
(409,423,o),
(381,395,o),
(344,395,cs)
);
}
);
width = 634;
},
{
anchors = (
{
name = b.uni0326;
position = "{291, 0}";
},
{
name = b.uni0328_1;
position = "{0, 0}";
},
{
name = t.uni0308_2;
position = "{291, 690}";
},
{
name = m.uni0335_3;
position = "{0, 0}";
}
);
layerId = "9088FA62-0D59-4181-A049-8D6D4F8D84ED";
shapes = (
{
closed = 1;
nodes = (
(83,0,l),
(162,0,l),
(162,309,l),
(288,309,l),
(481,0,l),
(571,0,l),
(367,313,l),
(458,327,o),
(526,403,o),
(526,496,cs),
(526,604,o),
(440,690,o),
(333,690,cs),
(83,690,l)
);
},
{
closed = 1;
nodes = (
(162,383,l),
(162,612,l),
(328,612,ls),
(395,612,o),
(448,565,o),
(448,497,cs),
(448,429,o),
(396,383,o),
(328,383,cs)
);
}
);
width = 581;
},
{
anchors = (
{
name = b.uni0326;
position = "{277, 0}";
},
{
name = b.uni0328_1;
position = "{0, 0}";
},
{
name = t.uni0308_2;
position = "{277, 690}";
},
{
name = m.uni0335_3;
position = "{0, 0}";
}
);
layerId = "445F1214-24C3-4409-A842-6A76E99C229F";
shapes = (
{
closed = 1;
nodes = (
(100,0,l),
(121,0,l),
(121,327,l),
(305,327,l),
(512,0,l),
(536,0,l),
(325,327,l),
(422,332,o),
(498,412,o),
(498,508,cs),
(498,610,o),
(416,690,o),
(316,690,cs),
(100,690,l)
);
},
{
closed = 1;
nodes = (
(121,346,l),
(121,670,l),
(315,670,ls),
(405,670,o),
(477,598,o),
(477,508,cs),
(477,417,o),
(406,346,o),
(315,346,cs)
);
}
);
width = 563;
}
);
leftKerningGroup = B;
unicode = 82;
},
{
glyphname = S;
layers = (
{
anchors = (
{
name = b.uni0326;
position = "{294, -1}";
},
{
name = b.uni0328_1;
position = "{0, 0}";
},
{
name = t.uni0308_2;
position = "{279, 690}";
},
{
name = m.uni0335_3;
position = "{0, 0}";
}
);
layerId = "388820D5-7EEF-4EDE-95C9-B421FC6E7F1D";
shapes = (
{
closed = 1;
nodes = (
(13,152,l),
(60,64,o),
(163,-9,o),
(292,-9,cs),
(426,-9,o),
(542,69,o),
(542,202,cs),
(542,467,o),
(232,401,o),
(232,499,cs),
(232,524,o),
(251,536,o),
(275,536,cs),
(307,536,o),
(344,515,o),
(382,476,c),
(504,595,l),
(448,660,o),
(364,699,o),
(277,699,cs),
(168,699,o),
(43,637,o),
(43,486,cs),
(43,245,o),
(355,302,o),
(355,205,cs),
(355,183,o),
(336,165,o),
(295,165,cs),
(237,165,o),
(189,196,o),
(165,247,c)
);
}
);
width = 566;
},
{
anchors = (
{
name = b.uni0326;
position = "{250, 0}";
},
{
name = b.uni0328_1;
position = "{0, 0}";
},
{
name = t.uni0308_2;
position = "{258, 690}";
},
{
name = m.uni0335_3;
position = "{0, 0}";
}
);
layerId = "9088FA62-0D59-4181-A049-8D6D4F8D84ED";
shapes = (
{
closed = 1;
nodes = (
(32,132,l),
(69,47,o),
(155,-9,o),
(260,-9,cs),
(377,-9,o),
(473,61,o),
(473,183,cs),
(473,418,o),
(139,361,o),
(139,522,cs),
(139,589,o),
(194,622,o),
(256,622,cs),
(308,622,o),
(352,600,o),
(380,561,c),
(440,612,l),
(401,661,o),
(333,699,o),
(254,699,cs),
(148,699,o),
(60,630,o),
(60,517,cs),
(60,294,o),
(395,349,o),
(395,180,cs),
(395,109,o),
(336,69,o),
(261,69,cs),
(184,69,o),
(127,111,o),
(103,173,c)
);
}
);
width = 507;
},
{
anchors = (
{
name = b.uni0326;
position = "{262, 0}";
},
{
name = b.uni0328_1;
position = "{0, 0}";
},
{
name = t.uni0308_2;
position = "{278, 690}";
},
{
name = m.uni0335_3;
position = "{0, 0}";
}
);
layerId = "445F1214-24C3-4409-A842-6A76E99C229F";
shapes = (
{
closed = 1;
nodes = (
(54,121,l),
(83,48,o),
(163,-9,o),
(265,-9,cs),
(363,-9,o),
(470,45,o),
(470,164,cs),
(470,384,o),
(109,333,o),
(109,536,cs),
(109,634,o),
(192,679,o),
(270,679,cs),
(337,679,o),
(391,645,o),
(418,609,c),
(434,621,l),
(403,662,o),
(343,699,o),
(268,699,cs),
(184,699,o),
(89,649,o),
(89,535,cs),
(89,314,o),
(450,366,o),
(450,164,cs),
(450,64,o),
(362,11,o),
(266,11,cs),
(168,11,o),
(98,64,o),
(73,128,c)
);
}
);
width = 524;
}
);
unicode = 83;
},
{
glyphname = Scedilla;
layers = (
{
anchors = (
{
name = b.uni0326;
position = "{298, -240}";
},
{
name = b.uni0328_1;
position = "{0, 0}";
},
{
name = t.uni0308_2;
position = "{279, 690}";
},
{
name = m.uni0335_3;
position = "{0, 0}";
}
);
layerId = "388820D5-7EEF-4EDE-95C9-B421FC6E7F1D";
shapes = (
{
closed = 1;
nodes = (
(13,152,l),
(55,73,o),
(140,7,o),
(250,-7,c),
(204,-88,l),
(263,-122,l),
(299,-101,o),
(325,-108,o),
(325,-135,cs),
(325,-151,o),
(313,-164,o),
(298,-164,cs),
(284,-164,o),
(269,-153,o),
(263,-141,c),
(188,-165,l),
(200,-206,o),
(248,-240,o),
(298,-240,cs),
(356,-240,o),
(403,-194,o),
(403,-135,cs),
(403,-80,o),
(358,-42,o),
(302,-51,c),
(330,-7,l),
(447,6,o),
(542,81,o),
(542,202,cs),
(542,467,o),
(232,401,o),
(232,499,cs),
(232,524,o),
(251,536,o),
(275,536,cs),
(307,536,o),
(344,515,o),
(382,476,c),
(504,595,l),
(448,660,o),
(364,699,o),
(277,699,cs),
(168,699,o),
(43,637,o),
(43,486,cs),
(43,245,o),
(355,302,o),
(355,205,cs),
(355,183,o),
(336,165,o),
(295,165,cs),
(237,165,o),
(189,196,o),
(165,247,c)
);
}
);
width = 566;
},
{
anchors = (
{
name = b.uni0326;
position = "{262, -239}";
},
{
name = b.uni0328_1;
position = "{0, 0}";
},
{
name = t.uni0308_2;
position = "{258, 690}";
},
{
name = m.uni0335_3;
position = "{0, 0}";
}
);
layerId = "9088FA62-0D59-4181-A049-8D6D4F8D84ED";
shapes = (
{
closed = 1;
nodes = (
(32,132,l),
(64,56,o),
(136,3,o),
(224,-7,c),
(187,-81,l),
(223,-105,l),
(272,-85,o),
(313,-102,o),
(313,-144,cs),
(313,-173,o),
(290,-196,o),
(262,-196,cs),
(239,-196,o),
(210,-181,o),
(196,-162,c),
(156,-178,l),
(172,-213,o),
(220,-239,o),
(262,-239,cs),
(316,-239,o),
(356,-197,o),
(356,-144,cs),
(356,-86,o),
(306,-48,o),
(243,-61,c),
(269,-9,l),
(383,-5,o),
(473,64,o),
(473,183,cs),
(473,418,o),
(139,361,o),
(139,522,cs),
(139,589,o),
(194,622,o),
(256,622,cs),
(308,622,o),
(352,600,o),
(380,561,c),
(440,612,l),
(401,661,o),
(333,699,o),
(254,699,cs),
(148,699,o),
(60,630,o),
(60,517,cs),
(60,294,o),
(395,349,o),
(395,180,cs),
(395,109,o),
(336,69,o),
(261,69,cs),
(184,69,o),
(127,111,o),
(103,173,c)
);
}
);
width = 507;
},
{
anchors = (
{
name = b.uni0326;
position = "{278, -239}";
},
{
name = b.uni0328_1;
position = "{0, 0}";
},
{
name = t.uni0308_2;
position = "{278, 690}";
},
{
name = m.uni0335_3;
position = "{0, 0}";
}
);
layerId = "445F1214-24C3-4409-A842-6A76E99C229F";
shapes = (
{
closed = 1;
nodes = (
(54,121,l),
(81,52,o),
(154,-3,o),
(249,-9,c),
(218,-76,l),
(235,-91,l),
(297,-72,o),
(345,-99,o),
(345,-152,cs),
(345,-190,o),
(316,-220,o),
(277,-220,cs),
(247,-220,o),
(207,-203,o),
(189,-181,c),
(174,-193,l),
(196,-219,o),
(242,-239,o),
(277,-239,cs),
(327,-239,o),
(365,-200,o),
(365,-152,cs),
(365,-91,o),
(311,-55,o),
(242,-70,c),
(268,-9,l),
(366,-8,o),
(470,46,o),
(470,164,cs),
(470,384,o),
(109,333,o),
(109,536,cs),
(109,634,o),
(192,679,o),
(270,679,cs),
(337,679,o),
(391,645,o),
(418,609,c),
(434,621,l),
(403,662,o),
(343,699,o),
(268,699,cs),
(184,699,o),
(89,649,o),
(89,535,cs),
(89,314,o),
(450,366,o),
(450,164,cs),
(450,64,o),
(362,11,o),
(266,11,cs),
(168,11,o),
(98,64,o),
(73,128,c)
);
}
);
width = 524;
}
);
unicode = 350;
},
{
glyphname = T;
layers = (
{
anchors = (
{
name = b.uni0326;
position = "{248, 0}";
},
{
name = b.uni0328_1;
position = "{0, 0}";
},
{
name = t.uni0308_2;
position = "{248, 690}";
},
{
name = m.uni0335_3;
position = "{248, 345}";
}
);
layerId = "388820D5-7EEF-4EDE-95C9-B421FC6E7F1D";
shapes = (
{
closed = 1;
nodes = (
(154,0,l),
(340,0,l),
(340,528,l),
(507,528,l),
(507,690,l),
(-12,690,l),
(-12,528,l),
(154,528,l)
);
}
);
width = 494;
},
{
anchors = (
{
name = b.uni0326;
position = "{238, 0}";
},
{
name = b.uni0328_1;
position = "{0, 0}";
},
{
name = t.uni0308_2;
position = "{238, 690}";
},
{
name = m.uni0335_3;
position = "{238, 345}";
}
);
layerId = "9088FA62-0D59-4181-A049-8D6D4F8D84ED";
shapes = (
{
closed = 1;
nodes = (
(199,0,l),
(278,0,l),
(278,612,l),
(468,612,l),
(468,690,l),
(9,690,l),
(9,612,l),
(199,612,l)
);
}
);
width = 478;
},
{
anchors = (
{
name = b.uni0326;
position = "{239, 0}";
},
{
name = b.uni0328_1;
position = "{0, 0}";
},
{
name = t.uni0308_2;
position = "{239, 690}";
},
{
name = m.uni0335_3;
position = "{239, 345}";
}
);
layerId = "445F1214-24C3-4409-A842-6A76E99C229F";
shapes = (
{
closed = 1;
nodes = (
(229,1,l),
(249,1,l),
(249,670,l),
(452,670,l),
(452,690,l),
(27,690,l),
(27,670,l),
(229,670,l)
);
}
);
width = 478;
}
);
unicode = 84;
},
{
glyphname = Tbar;
layers = (
{
anchors = (
{
name = b.uni0326;
position = "{248, 0}";
},
{
name = b.uni0328_1;
position = "{0, 0}";
},
{
name = t.uni0308_2;
position = "{248, 690}";
},
{
name = m.uni0335_3;
position = "{248, 345}";
}
);
layerId = "388820D5-7EEF-4EDE-95C9-B421FC6E7F1D";
shapes = (
{
closed = 1;
nodes = (
(74,304,l),
(154,304,l),
(154,0,l),
(340,0,l),
(340,304,l),
(420,304,l),
(420,385,l),
(340,385,l),
(340,528,l),
(507,528,l),
(507,690,l),
(-12,690,l),
(-12,528,l),
(154,528,l),
(154,385,l),
(74,385,l)
);
}
);
width = 494;
},
{
anchors = (
{
name = b.uni0326;
position = "{238, 0}";
},
{
name = b.uni0328_1;
position = "{0, 0}";
},
{
name = t.uni0308_2;
position = "{238, 690}";
},
{
name = m.uni0335_3;
position = "{238, 345}";
}
);
layerId = "9088FA62-0D59-4181-A049-8D6D4F8D84ED";
shapes = (
{
closed = 1;
nodes = (
(103,312,l),
(199,312,l),
(199,0,l),
(278,0,l),
(278,312,l),
(372,312,l),
(372,381,l),
(278,381,l),
(278,612,l),
(468,612,l),
(468,690,l),
(9,690,l),
(9,612,l),
(199,612,l),
(199,381,l),
(103,381,l)
);
}
);
width = 478;
},
{
anchors = (
{
name = b.uni0326;
position = "{239, 0}";
},
{
name = b.uni0328_1;
position = "{0, 0}";
},
{
name = t.uni0308_2;
position = "{239, 690}";
},
{
name = m.uni0335_3;
position = "{239, 345}";
}
);
layerId = "445F1214-24C3-4409-A842-6A76E99C229F";
shapes = (
{
closed = 1;
nodes = (
(123,335,l),
(229,335,l),
(229,1,l),
(249,1,l),
(249,335,l),
(355,335,l),
(355,355,l),
(249,355,l),
(249,670,l),
(452,670,l),
(452,690,l),
(27,690,l),
(27,670,l),
(229,670,l),
(229,355,l),
(123,355,l)
);
}
);
width = 478;
}
);
unicode = 358;
},
{
glyphname = Tcedilla;
layers = (
{
anchors = (
{
name = b.uni0326;
position = "{252, -239}";
},
{
name = b.uni0328_1;
position = "{0, 0}";
},
{
name = t.uni0308_2;
position = "{248, 690}";
},
{
name = m.uni0335_3;
position = "{248, 345}";
}
);
layerId = "388820D5-7EEF-4EDE-95C9-B421FC6E7F1D";
shapes = (
{
closed = 1;
nodes = (
(143,-162,l),
(153,-205,o),
(201,-239,o),
(252,-239,cs),
(310,-239,o),
(356,-193,o),
(356,-134,cs),
(356,-78,o),
(313,-40,o),
(256,-50,c),
(288,0,l),
(340,0,l),
(340,528,l),
(507,528,l),
(507,690,l),
(-12,690,l),
(-12,528,l),
(154,528,l),
(154,0,l),
(207,0,l),
(158,-87,l),
(217,-120,l),
(252,-100,o),
(280,-106,o),
(280,-134,cs),
(280,-150,o),
(267,-163,o),
(252,-163,cs),
(238,-163,o),
(224,-152,o),
(217,-139,c)
);
}
);
width = 494;
},
{
anchors = (
{
name = b.uni0326;
position = "{249, -239}";
},
{
name = b.uni0328_1;
position = "{0, 0}";
},
{
name = t.uni0308_2;
position = "{238, 690}";
},
{
name = m.uni0335_3;
position = "{238, 345}";
}
);
layerId = "9088FA62-0D59-4181-A049-8D6D4F8D84ED";
shapes = (
{
closed = 1;
nodes = (
(144,-178,l),
(161,-213,o),
(208,-239,o),
(250,-239,cs),
(304,-239,o),
(345,-197,o),
(345,-144,cs),
(345,-86,o),
(294,-48,o),
(231,-61,c),
(261,0,l),
(278,0,l),
(278,612,l),
(468,612,l),
(468,690,l),
(9,690,l),
(9,612,l),
(199,612,l),
(199,0,l),
(216,0,l),
(175,-81,l),
(210,-105,l),
(261,-85,o),
(300,-102,o),
(300,-144,cs),
(300,-173,o),
(278,-195,o),
(250,-195,cs),
(228,-195,o),
(198,-181,o),
(185,-162,c)
);
}
);
width = 478;
},
{
anchors = (
{
name = b.uni0326;
position = "{256, -239}";
},
{
name = b.uni0328_1;
position = "{0, 0}";
},
{
name = t.uni0308_2;
position = "{239, 690}";
},
{
name = m.uni0335_3;
position = "{239, 345}";
}
);
layerId = "445F1214-24C3-4409-A842-6A76E99C229F";
shapes = (
{
closed = 1;
nodes = (
(152,-192,l),
(174,-217,o),
(220,-238,o),
(255,-238,cs),
(304,-238,o),
(342,-199,o),
(342,-151,cs),
(342,-90,o),
(288,-54,o),
(219,-69,c),
(248,1,l),
(249,1,l),
(249,670,l),
(452,670,l),
(452,690,l),
(27,690,l),
(27,670,l),
(229,670,l),
(229,1,l),
(230,1,l),
(195,-75,l),
(212,-90,l),
(275,-71,o),
(322,-98,o),
(322,-151,cs),
(322,-189,o),
(293,-219,o),
(255,-219,cs),
(224,-219,o),
(184,-201,o),
(167,-180,c)
);
}
);
width = 478;
}
);
unicode = 354;
},
{
glyphname = U;
layers = (
{
anchors = (
{
name = b.uni0326;
position = "{357, 0}";
},
{
name = b.uni0328_1;
position = "{541, 40}";
},
{
name = t.uni0308_2;
position = "{357, 690}";
},
{
name = m.uni0335_3;
position = "{0, 0}";
}
);
layerId = "388820D5-7EEF-4EDE-95C9-B421FC6E7F1D";
shapes = (
{
closed = 1;
nodes = (
(58,219,ls),
(58,91,o),
(190,-9,o),
(357,-9,cs),
(524,-9,o),
(657,91,o),
(657,219,cs),
(657,690,l),
(469,690,l),
(469,255,ls),
(469,198,o),
(419,153,o),
(357,153,cs),
(295,153,o),
(245,198,o),
(245,255,cs),
(245,690,l),
(58,690,l)
);
}
);
width = 714;
},
{
anchors = (
{
name = b.uni0326;
position = "{340, 0}";
},
{
name = b.uni0328_1;
position = "{464, 18}";
},
{
name = t.uni0308_2;
position = "{340, 690}";
},
{
name = m.uni0335_3;
position = "{0, 0}";
}
);
layerId = "9088FA62-0D59-4181-A049-8D6D4F8D84ED";
shapes = (
{
closed = 1;
nodes = (
(80,227,ls),
(80,91,o),
(190,-9,o),
(340,-9,cs),
(492,-9,o),
(602,91,o),
(602,227,cs),
(602,690,l),
(523,690,l),
(523,239,ls),
(523,141,o),
(445,68,o),
(340,68,cs),
(235,68,o),
(158,141,o),
(158,239,cs),
(158,690,l),
(80,690,l)
);
}
);
width = 682;
},
{
anchors = (
{
name = b.uni0326;
position = "{337, 0}";
},
{
name = b.uni0328_1;
position = "{422, 9}";
},
{
name = t.uni0308_2;
position = "{337, 690}";
},
{
name = m.uni0335_3;
position = "{0, 0}";
}
);
layerId = "445F1214-24C3-4409-A842-6A76E99C229F";
shapes = (
{
closed = 1;
nodes = (
(97,230,ls),
(97,98,o),
(205,-9,o),
(337,-9,cs),
(470,-9,o),
(577,98,o),
(577,230,cs),
(577,690,l),
(557,690,l),
(557,230,ls),
(557,109,o),
(459,11,o),
(337,11,cs),
(215,11,o),
(117,109,o),
(117,230,cs),
(117,690,l),
(97,690,l)
);
}
);
width = 674;
}
);
unicode = 85;
},
{
glyphname = Uogonek;
layers = (
{
anchors = (
{
name = b.uni0326;
position = "{357, 0}";
},
{
name = b.uni0328_1;
position = "{541, 40}";
},
{
name = t.uni0308_2;
position = "{357, 690}";
},
{
name = m.uni0335_3;
position = "{0, 0}";
}
);
layerId = "388820D5-7EEF-4EDE-95C9-B421FC6E7F1D";
shapes = (
{
closed = 1;
nodes = (
(58,219,ls),
(58,94,o),
(182,-5,o),
(343,-9,c),
(345,-9,o),
(346,-9,o),
(350,-9,c),
(341,1,l),
(324,-18,o),
(314,-41,o),
(314,-72,cs),
(314,-134,o),
(355,-190,o),
(438,-197,cs),
(491,-202,o),
(553,-178,o),
(592,-136,c),
(536,-59,l),
(523,-92,o),
(496,-113,o),
(467,-113,cs),
(439,-113,o),
(422,-95,o),
(422,-56,cs),
(422,-28,o),
(439,-11,o),
(469,7,c),
(580,39,o),
(657,121,o),
(657,219,cs),
(657,690,l),
(469,690,l),
(469,255,ls),
(469,198,o),
(419,153,o),
(357,153,cs),
(295,153,o),
(245,198,o),
(245,255,cs),
(245,690,l),
(58,690,l)
);
}
);
width = 714;
},
{
anchors = (
{
name = b.uni0326;
position = "{340, 0}";
},
{
name = b.uni0328_1;
position = "{464, 18}";
},
{
name = t.uni0308_2;
position = "{340, 690}";
},
{
name = m.uni0335_3;
position = "{0, 0}";
}
);
layerId = "9088FA62-0D59-4181-A049-8D6D4F8D84ED";
shapes = (
{
closed = 1;
nodes = (
(80,227,ls),
(80,91,o),
(190,-9,o),
(339,-9,cs),
(352,-9,o),
(361,-9,o),
(373,-6,c),
(375,1,l),
(328,-34,o),
(294,-73,o),
(294,-123,cs),
(294,-182,o),
(335,-218,o),
(398,-220,cs),
(444,-222,o),
(486,-207,o),
(521,-173,c),
(494,-135,l),
(474,-164,o),
(443,-179,o),
(409,-179,cs),
(369,-179,o),
(348,-152,o),
(348,-117,cs),
(348,-59,o),
(394,-22,o),
(450,10,c),
(543,46,o),
(602,127,o),
(602,227,cs),
(602,690,l),
(523,690,l),
(523,239,ls),
(523,141,o),
(445,68,o),
(340,68,cs),
(235,68,o),
(158,141,o),
(158,239,cs),
(158,690,l),
(80,690,l)
);
}
);
width = 682;
},
{
anchors = (
{
name = b.uni0326;
position = "{337, 0}";
},
{
name = b.uni0328_1;
position = "{422, 9}";
},
{
name = t.uni0308_2;
position = "{337, 690}";
},
{
name = m.uni0335_3;
position = "{0, 0}";
}
);
layerId = "445F1214-24C3-4409-A842-6A76E99C229F";
shapes = (
{
closed = 1;
nodes = (
(97,230,ls),
(97,98,o),
(205,-9,o),
(337,-9,cs),
(359,-9,o),
(379,-6,o),
(399,0,c),
(395,7,l),
(357,-37,o),
(319,-79,o),
(319,-139,cs),
(319,-194,o),
(348,-230,o),
(405,-230,cs),
(445,-230,o),
(469,-217,o),
(498,-190,c),
(489,-176,l),
(463,-199,o),
(442,-211,o),
(405,-211,cs),
(359,-211,o),
(336,-181,o),
(336,-138,cs),
(336,-77,o),
(380,-33,o),
(417,5,c),
(510,37,o),
(577,125,o),
(577,230,cs),
(577,690,l),
(557,690,l),
(557,230,ls),
(557,109,o),
(459,11,o),
(337,11,cs),
(215,11,o),
(117,109,o),
(117,230,cs),
(117,690,l),
(97,690,l)
);
}
);
width = 674;
}
);
unicode = 370;
},
{
glyphname = V;
layers = (
{
layerId = "388820D5-7EEF-4EDE-95C9-B421FC6E7F1D";
shapes = (
{
closed = 1;
nodes = (
(227,0,l),
(436,0,l),
(685,690,l),
(476,690,l),
(332,246,l),
(187,690,l),
(-23,690,l)
);
}
);
width = 664;
},
{
layerId = "9088FA62-0D59-4181-A049-8D6D4F8D84ED";
shapes = (
{
closed = 1;
nodes = (
(249,0,l),
(336,0,l),
(586,690,l),
(499,690,l),
(293,101,l),
(87,690,l),
(-1,690,l)
);
}
);
width = 585;
},
{
layerId = "445F1214-24C3-4409-A842-6A76E99C229F";
shapes = (
{
closed = 1;
nodes = (
(266,0,l),
(289,0,l),
(538,690,l),
(515,690,l),
(277,27,l),
(40,690,l),
(16,690,l)
);
}
);
width = 556;
}
);
unicode = 86;
},
{
glyphname = W;
layers = (
{
anchors = (
{
name = b.uni0326;
position = "{478, 0}";
},
{
name = b.uni0328_1;
position = "{0, 0}";
},
{
name = t.uni0308_2;
position = "{478, 690}";
},
{
name = m.uni0335_3;
position = "{0, 0}";
}
);
layerId = "388820D5-7EEF-4EDE-95C9-B421FC6E7F1D";
shapes = (
{
closed = 1;
nodes = (
(156,0,l),
(376,0,l),
(477,420,l),
(577,0,l),
(797,0,l),
(975,690,l),
(776,690,l),
(676,248,l),
(559,690,l),
(394,690,l),
(277,248,l),
(179,690,l),
(-19,690,l)
);
}
);
width = 953;
},
{
anchors = (
{
name = b.uni0326;
position = "{468, 0}";
},
{
name = b.uni0328_1;
position = "{0, 0}";
},
{
name = t.uni0308_2;
position = "{468, 690}";
},
{
name = m.uni0335_3;
position = "{0, 0}";
}
);
layerId = "9088FA62-0D59-4181-A049-8D6D4F8D84ED";
shapes = (
{
closed = 1;
nodes = (
(207,0,l),
(292,0,l),
(466,603,l),
(642,0,l),
(725,0,l),
(939,690,l),
(857,690,l),
(684,129,l),
(518,690,l),
(412,690,l),
(248,130,l),
(76,690,l),
(-8,690,l)
);
}
);
width = 931;
},
{
anchors = (
{
name = b.uni0326;
position = "{492, 0}";
},
{
name = b.uni0328_1;
position = "{0, 0}";
},
{
name = t.uni0308_2;
position = "{490, 690}";
},
{
name = m.uni0335_3;
position = "{0, 0}";
}
);
layerId = "445F1214-24C3-4409-A842-6A76E99C229F";
shapes = (
{
closed = 1;
nodes = (
(247,0,l),
(270,0,l),
(488,657,l),
(706,0,l),
(729,0,l),
(958,690,l),
(935,690,l),
(718,29,l),
(500,690,l),
(476,690,l),
(259,29,l),
(40,690,l),
(17,690,l)
);
}
);
width = 976;
}
);
unicode = 87;
},
{
glyphname = X;
layers = (
{
layerId = "388820D5-7EEF-4EDE-95C9-B421FC6E7F1D";
shapes = (
{
closed = 1;
nodes = (
(-22,0,l),
(191,0,l),
(319,205,l),
(449,0,l),
(661,0,l),
(419,359,l),
(644,690,l),
(431,690,l),
(319,514,l),
(208,690,l),
(-4,690,l),
(219,359,l)
);
}
);
width = 638;
},
{
layerId = "9088FA62-0D59-4181-A049-8D6D4F8D84ED";
shapes = (
{
closed = 1;
nodes = (
(0,0,l),
(96,0,l),
(278,285,l),
(461,0,l),
(557,0,l),
(321,350,l),
(550,690,l),
(457,690,l),
(278,416,l),
(100,690,l),
(7,690,l),
(235,350,l)
);
}
);
width = 557;
},
{
layerId = "445F1214-24C3-4409-A842-6A76E99C229F";
shapes = (
{
closed = 1;
nodes = (
(17,0,l),
(43,0,l),
(262,328,l),
(481,0,l),
(507,0,l),
(274,345,l),
(505,690,l),
(481,690,l),
(262,363,l),
(42,690,l),
(18,690,l),
(251,345,l)
);
}
);
width = 524;
}
);
unicode = 88;
},
{
glyphname = Y;
layers = (
{
anchors = (
{
name = b.uni0326;
position = "{316, 0}";
},
{
name = b.uni0328_1;
position = "{0, 0}";
},
{
name = t.uni0308_2;
position = "{316, 690}";
},
{
name = m.uni0335_3;
position = "{0, 0}";
}
);
layerId = "388820D5-7EEF-4EDE-95C9-B421FC6E7F1D";
shapes = (
{
closed = 1;
nodes = (
(221,0,l),
(408,0,l),
(408,325,l),
(650,690,l),
(445,690,l),
(316,482,l),
(185,690,l),
(-22,690,l),
(221,324,l)
);
}
);
width = 628;
},
{
anchors = (
{
name = b.uni0326;
position = "{282, 0}";
},
{
name = b.uni0328_1;
position = "{0, 0}";
},
{
name = t.uni0308_2;
position = "{282, 690}";
},
{
name = m.uni0335_3;
position = "{0, 0}";
}
);
layerId = "9088FA62-0D59-4181-A049-8D6D4F8D84ED";
shapes = (
{
closed = 1;
nodes = (
(242,0,l),
(320,0,l),
(320,328,l),
(561,690,l),
(465,690,l),
(281,408,l),
(97,690,l),
(0,690,l),
(242,327,l)
);
}
);
width = 561;
},
{
anchors = (
{
name = b.uni0326;
position = "{268, 0}";
},
{
name = b.uni0328_1;
position = "{0, 0}";
},
{
name = t.uni0308_2;
position = "{268, 690}";
},
{
name = m.uni0335_3;
position = "{0, 0}";
}
);
layerId = "445F1214-24C3-4409-A842-6A76E99C229F";
shapes = (
{
closed = 1;
nodes = (
(258,0,l),
(278,0,l),
(278,330,l),
(519,690,l),
(494,690,l),
(268,348,l),
(42,690,l),
(17,690,l),
(258,330,l)
);
}
);
width = 537;
}
);
unicode = 89;
},
{
glyphname = Z;
layers = (
{
anchors = (
{
name = b.uni0326;
position = "{288, 0}";
},
{
name = b.uni0328_1;
position = "{0, 0}";
},
{
name = t.uni0308_2;
position = "{306, 690}";
},
{
name = m.uni0335_3;
position = "{0, 0}";
}
);
layerId = "388820D5-7EEF-4EDE-95C9-B421FC6E7F1D";
shapes = (
{
closed = 1;
nodes = (
(20,0,l),
(551,0,l),
(551,162,l),
(304,162,l),
(558,690,l),
(47,690,l),
(47,528,l),
(277,528,l)
);
}
);
width = 580;
},
{
anchors = (
{
name = b.uni0326;
position = "{301, 0}";
},
{
name = b.uni0328_1;
position = "{0, 0}";
},
{
name = t.uni0308_2;
position = "{307, 690}";
},
{
name = m.uni0335_3;
position = "{0, 0}";
}
);
layerId = "9088FA62-0D59-4181-A049-8D6D4F8D84ED";
shapes = (
{
closed = 1;
nodes = (
(42,0,l),
(564,0,l),
(564,78,l),
(180,78,l),
(551,690,l),
(69,690,l),
(69,612,l),
(415,612,l)
);
}
);
width = 606;
},
{
anchors = (
{
name = b.uni0326;
position = "{314, 0}";
},
{
name = b.uni0328_1;
position = "{0, 0}";
},
{
name = t.uni0308_2;
position = "{314, 690}";
},
{
name = m.uni0335_3;
position = "{0, 0}";
}
);
layerId = "445F1214-24C3-4409-A842-6A76E99C229F";
shapes = (
{
closed = 1;
nodes = (
(59,0,l),
(577,0,l),
(577,20,l),
(98,20,l),
(554,690,l),
(71,690,l),
(71,670,l),
(516,670,l)
);
}
);
width = 632;
}
);
unicode = 90;
},
{
glyphname = a;
layers = (
{
anchors = (
{
name = b.uni0326;
position = "{309, 0}";
},
{
name = b.uni0328_1;
position = "{608, 0}";
},
{
name = t.uni0308_2;
position = "{308, 500}";
},
{
name = m.uni0335_3;
position = "{0, 0}";
},
{
name = a5;
position = "{222, 15}";
}
);
layerId = "388820D5-7EEF-4EDE-95C9-B421FC6E7F1D";
shapes = (
{
closed = 1;
nodes = (
(319,-10,o),
(386,19,o),
(424,65,c),
(406,68,l),
(438,19,o),
(490,-10,o),
(555,-10,cs),
(569,-10,o),
(590,-6,o),
(608,0,c),
(608,150,l),
(584,150,ls),
(568,150,o),
(559,175,o),
(559,215,cs),
(559,299,ls),
(559,428,o),
(461,510,o),
(306,510,cs),
(186,510,o),
(103,463,o),
(79,379,c),
(235,336,l),
(236,364,o),
(264,376,o),
(306,376,cs),
(348,376,o),
(374,354,o),
(374,320,cs),
(374,176,l),
(374,138,o),
(338,110,o),
(298,110,cs),
(263,110,o),
(240,131,o),
(240,151,cs),
(240,172,o),
(254,192,o),
(276,192,cs),
(389,192,l),
(389,299,l),
(209,299,ls),
(115,299,o),
(55,232,o),
(55,142,cs),
(55,54,o),
(129,-10,o),
(244,-10,cs)
);
}
);
width = 616;
},
{
anchors = (
{
name = b.uni0326;
position = "{309, 0}";
},
{
name = b.uni0328_1;
position = "{586, 0}";
},
{
name = t.uni0308_2;
position = "{285, 500}";
},
{
name = m.uni0335_3;
position = "{0, 0}";
},
{
name = a5;
position = "{222, 15}";
}
);
layerId = "9088FA62-0D59-4181-A049-8D6D4F8D84ED";
shapes = (
{
closed = 1;
nodes = (
(331,-10,o),
(406,29,o),
(439,91,c),
(429,96,l),
(441,34,o),
(483,-10,o),
(549,-10,cs),
(563,-10,o),
(576,-6,o),
(586,0,c),
(586,65,l),
(555,65,ls),
(528,65,o),
(504,84,o),
(504,130,cs),
(504,313,ls),
(504,431,o),
(406,510,o),
(286,510,cs),
(193,510,o),
(114,463,o),
(88,396,c),
(155,363,l),
(179,408,o),
(230,433,o),
(285,433,cs),
(364,433,o),
(426,390,o),
(426,313,cs),
(426,174,ls),
(426,99,o),
(336,58,o),
(253,58,cs),
(191,58,o),
(151,94,o),
(151,139,cs),
(151,184,o),
(190,222,o),
(251,222,cs),
(441,222,l),
(441,287,l),
(235,287,ls),
(131,287,o),
(66,224,o),
(66,138,cs),
(66,53,o),
(131,-10,o),
(236,-10,cs)
);
}
);
width = 596;
},
{
anchors = (
{
name = b.uni0326;
position = "{313, 3}";
},
{
name = b.uni0328_1;
position = "{548, 0}";
},
{
name = t.uni0308_2;
position = "{269, 500}";
},
{
name = m.uni0335_3;
position = "{0, 0}";
}
);
layerId = "445F1214-24C3-4409-A842-6A76E99C229F";
shapes = (
{
closed = 1;
nodes = (
(326,-10,o),
(411,15,o),
(444,81,c),
(439,109,l),
(433,34,o),
(456,-10,o),
(519,-10,cs),
(528,-10,o),
(538,-8,o),
(548,0,c),
(548,10,l),
(526,10,ls),
(475,10,o),
(458,38,o),
(458,89,cs),
(458,351,ls),
(458,439,o),
(385,510,o),
(285,510,cs),
(197,510,o),
(121,457,o),
(100,393,c),
(118,386,l),
(143,449,o),
(213,489,o),
(285,489,cs),
(374,489,o),
(438,428,o),
(438,351,cs),
(438,121,ls),
(438,45,o),
(325,10,o),
(238,10,cs),
(151,10,o),
(100,55,o),
(100,128,cs),
(100,195,o),
(146,240,o),
(219,240,cs),
(453,240,l),
(453,260,l),
(219,260,ls),
(134,260,o),
(80,208,o),
(80,126,cs),
(80,43,o),
(138,-10,o),
(236,-10,cs)
);
}
);
width = 568;
}
);
leftKerningGroup = a2;
rightKerningGroup = a;
unicode = 97;
},
{
glyphname = ae;
layers = (
{
anchors = (
{
name = b.uni0326;
position = "{679, -1}";
},
{
name = b.uni0328_1;
position = "{811, 20}";
},
{
name = t.uni0308_2;
position = "{478, 500}";
},
{
name = m.uni0335_3;
position = "{0, 0}";
}
);
layerId = "388820D5-7EEF-4EDE-95C9-B421FC6E7F1D";
shapes = (
{
closed = 1;
nodes = (
(55,48,o),
(118,-10,o),
(241,-10,cs),
(325,-10,o),
(394,15,o),
(446,68,c),
(498,18,o),
(574,-10,o),
(666,-10,cs),
(819,-10,o),
(913,63,o),
(935,171,c),
(758,171,l),
(749,139,o),
(716,120,o),
(665,120,cs),
(598,120,o),
(574,155,o),
(570,220,c),
(943,220,l),
(944,251,l),
(943,411,o),
(833,511,o),
(661,511,cs),
(590,511,o),
(529,494,o),
(481,463,c),
(439,494,o),
(380,510,o),
(308,510,cs),
(188,510,o),
(103,463,o),
(79,379,c),
(235,336,l),
(236,364,o),
(264,380,o),
(306,376,c),
(345,375,o),
(371,359,o),
(371,320,cs),
(371,294,l),
(240,294,ls),
(126,294,o),
(55,238,o),
(55,140,cs)
);
},
{
closed = 1;
nodes = (
(578,323,l),
(590,356,o),
(615,375,o),
(665,375,cs),
(713,375,o),
(739,356,o),
(753,323,c)
);
},
{
closed = 1;
nodes = (
(248,175,o),
(269,193,o),
(294,193,cs),
(379,193,l),
(380,185,o),
(383,179,o),
(384,173,c),
(371,136,o),
(334,115,o),
(295,115,cs),
(269,115,o),
(248,125,o),
(248,150,cs)
);
}
);
width = 980;
},
{
anchors = (
{
name = b.uni0326;
position = "{679, 0}";
},
{
name = b.uni0328_1;
position = "{796, 25}";
},
{
name = t.uni0308_2;
position = "{478, 505}";
},
{
name = m.uni0335_3;
position = "{0, 0}";
}
);
layerId = "9088FA62-0D59-4181-A049-8D6D4F8D84ED";
shapes = (
{
closed = 1;
nodes = (
(66,55,o),
(141,-10,o),
(248,-10,cs),
(318,-10,o),
(399,30,o),
(465,94,c),
(513,30,o),
(588,-10,o),
(673,-10,cs),
(791,-10,o),
(890,69,o),
(923,176,c),
(840,176,l),
(813,111,o),
(748,68,o),
(673,68,cs),
(574,68,o),
(495,143,o),
(490,239,c),
(931,239,l),
(933,255,l),
(929,399,o),
(815,510,o),
(673,510,cs),
(590,510,o),
(516,471,o),
(469,411,c),
(438,471,o),
(370,510,o),
(286,510,cs),
(193,510,o),
(114,463,o),
(88,396,c),
(165,370,l),
(179,415,o),
(230,446,o),
(285,446,cs),
(356,446,o),
(409,396,o),
(409,328,cs),
(409,308,l),
(264,308,ls),
(144,308,o),
(66,248,o),
(66,150,cs)
);
},
{
closed = 1;
nodes = (
(500,309,l),
(525,381,o),
(593,433,o),
(673,433,cs),
(753,433,o),
(820,381,o),
(844,309,c)
);
},
{
closed = 1;
nodes = (
(144,205,o),
(188,236,o),
(264,236,cs),
(413,236,l),
(414,210,o),
(420,184,o),
(429,160,c),
(374,100,o),
(303,61,o),
(248,61,cs),
(184,61,o),
(144,95,o),
(144,148,cs)
);
}
);
width = 983;
},
{
anchors = (
{
name = b.uni0326;
position = "{716, 0}";
},
{
name = b.uni0328_1;
position = "{911, 78}";
},
{
name = t.uni0308_2;
position = "{479, 510}";
},
{
name = m.uni0335_3;
position = "{0, 0}";
}
);
layerId = "445F1214-24C3-4409-A842-6A76E99C229F";
shapes = (
{
closed = 1;
nodes = (
(80,54,o),
(156,-10,o),
(263,-10,cs),
(330,-10,o),
(421,50,o),
(486,135,c),
(529,49,o),
(618,-10,o),
(719,-10,cs),
(834,-10,o),
(933,66,o),
(966,171,c),
(946,171,l),
(914,78,o),
(824,10,o),
(719,10,cs),
(581,10,o),
(479,119,o),
(479,255,c),
(978,255,l),
(978,263,l),
(969,404,o),
(858,510,o),
(719,510,cs),
(611,510,o),
(519,444,o),
(479,350,c),
(469,444,o),
(394,510,o),
(293,510,cs),
(199,510,o),
(115,460,o),
(93,393,c),
(111,386,l),
(139,446,o),
(215,490,o),
(293,490,cs),
(389,490,o),
(460,423,o),
(460,329,cs),
(460,295,l),
(243,295,ls),
(148,295,o),
(80,231,o),
(80,143,cs)
);
},
{
closed = 1;
nodes = (
(480,275,l),
(495,398,o),
(594,490,o),
(719,490,cs),
(843,490,o),
(944,396,o),
(958,275,c)
);
},
{
closed = 1;
nodes = (
(100,219,o),
(160,275,o),
(243,275,cs),
(460,275,l),
(455,236,o),
(463,189,o),
(478,154,c),
(418,70,o),
(328,10,o),
(263,10,cs),
(168,10,o),
(100,65,o),
(100,143,cs)
);
}
);
width = 1043;
}
);
unicode = 230;
},
{
glyphname = b;
layers = (
{
anchors = (
{
name = b.uni0326;
position = "{430, 0}";
},
{
name = b.uni0328_1;
position = "{0, 0}";
},
{
name = t.uni0308_2;
position = "{434, 500}";
},
{
name = m.uni0335_3;
position = "{0, 0}";
}
);
layerId = "388820D5-7EEF-4EDE-95C9-B421FC6E7F1D";
shapes = (
{
closed = 1;
nodes = (
(69,0,l),
(254,-1,l),
(254,36,l),
(288,8,o),
(333,-10,o),
(385,-10,cs),
(520,-10,o),
(626,104,o),
(626,250,cs),
(626,396,o),
(520,510,o),
(385,510,cs),
(333,510,o),
(288,493,o),
(254,464,c),
(254,750,l),
(69,750,l)
);
},
{
closed = 1;
nodes = (
(244,306,o),
(288,349,o),
(343,349,cs),
(399,349,o),
(441,306,o),
(441,250,cs),
(441,194,o),
(399,151,o),
(343,151,cs),
(288,151,o),
(244,194,o),
(244,250,cs)
);
}
);
width = 661;
},
{
anchors = (
{
name = b.uni0326;
position = "{380, 0}";
},
{
name = b.uni0328_1;
position = "{0, 0}";
},
{
name = t.uni0308_2;
position = "{373, 500}";
},
{
name = m.uni0335_3;
position = "{0, 0}";
}
);
layerId = "9088FA62-0D59-4181-A049-8D6D4F8D84ED";
shapes = (
{
closed = 1;
nodes = (
(91,0,l),
(169,0,l),
(169,65,l),
(216,19,o),
(280,-10,o),
(351,-10,cs),
(495,-10,o),
(611,106,o),
(611,250,cs),
(611,394,o),
(495,510,o),
(351,510,cs),
(280,510,o),
(216,481,o),
(169,435,c),
(169,750,l),
(91,750,l)
);
},
{
closed = 1;
nodes = (
(169,351,o),
(250,433,o),
(351,433,cs),
(453,433,o),
(534,351,o),
(534,250,cs),
(534,149,o),
(453,68,o),
(351,68,cs),
(250,68,o),
(169,149,o),
(169,250,cs)
);
}
);
width = 668;
},
{
anchors = (
{
name = b.uni0326;
position = "{420, 0}";
},
{
name = b.uni0328_1;
position = "{0, 0}";
},
{
name = t.uni0308_2;
position = "{395, 500}";
},
{
name = m.uni0335_3;
position = "{0, 0}";
}
);
layerId = "445F1214-24C3-4409-A842-6A76E99C229F";
shapes = (
{
closed = 1;
nodes = (
(110,0,l),
(130,0,l),
(130,151,l),
(170,56,o),
(263,-10,o),
(370,-10,cs),
(513,-10,o),
(630,108,o),
(630,250,cs),
(630,393,o),
(513,510,o),
(370,510,cs),
(263,510,o),
(170,444,o),
(130,349,c),
(130,750,l),
(110,750,l)
);
},
{
closed = 1;
nodes = (
(130,383,o),
(238,490,o),
(370,490,cs),
(503,490,o),
(610,383,o),
(610,250,cs),
(610,118,o),
(503,10,o),
(370,10,cs),
(238,10,o),
(130,118,o),
(130,250,cs)
);
}
);
width = 700;
}
);
rightKerningGroup = b;
unicode = 98;
},
{
glyphname = c;
layers = (
{
anchors = (
{
name = b.uni0326;
position = "{294, -1}";
},
{
name = b.uni0328_1;
position = "{0, 0}";
},
{
name = t.uni0308_2;
position = "{281, 500}";
},
{
name = m.uni0335_3;
position = "{0, 0}";
}
);
layerId = "388820D5-7EEF-4EDE-95C9-B421FC6E7F1D";
shapes = (
{
closed = 1;
nodes = (
(34,99,o),
(143,-10,o),
(319,-10,cs),
(479,-10,o),
(584,81,o),
(600,213,c),
(411,213,l),
(398,176,o),
(363,153,o),
(319,151,c),
(260,153,o),
(219,194,o),
(219,250,cs),
(219,306,o),
(260,348,o),
(319,349,c),
(363,348,o),
(398,324,o),
(411,288,c),
(600,288,l),
(584,419,o),
(479,510,o),
(319,510,cs),
(143,510,o),
(34,401,o),
(34,250,cs)
);
}
);
width = 629;
},
{
anchors = (
{
name = b.uni0326;
position = "{323, 0}";
},
{
name = b.uni0328_1;
position = "{0, 0}";
},
{
name = t.uni0308_2;
position = "{321, 504}";
},
{
name = m.uni0335_3;
position = "{0, 0}";
}
);
layerId = "9088FA62-0D59-4181-A049-8D6D4F8D84ED";
shapes = (
{
closed = 1;
nodes = (
(56,106,o),
(173,-10,o),
(316,-10,cs),
(433,-10,o),
(530,65,o),
(564,170,c),
(481,170,l),
(451,109,o),
(389,68,o),
(316,68,cs),
(215,68,o),
(134,148,o),
(134,250,cs),
(134,353,o),
(215,433,o),
(316,433,cs),
(389,433,o),
(451,391,o),
(481,330,c),
(564,330,l),
(530,435,o),
(433,510,o),
(316,510,cs),
(173,510,o),
(56,394,o),
(56,250,cs)
);
}
);
width = 596;
},
{
anchors = (
{
name = b.uni0326;
position = "{328, 0}";
},
{
name = b.uni0328_1;
position = "{0, 0}";
},
{
name = t.uni0308_2;
position = "{330, 500}";
},
{
name = m.uni0335_3;
position = "{0, 0}";
}
);
layerId = "445F1214-24C3-4409-A842-6A76E99C229F";
shapes = (
{
closed = 1;
nodes = (
(70,108,o),
(188,-10,o),
(330,-10,cs),
(439,-10,o),
(534,59,o),
(573,155,c),
(553,155,l),
(515,69,o),
(428,10,o),
(330,10,cs),
(199,10,o),
(88,114,o),
(90,250,c),
(88,386,o),
(199,490,o),
(330,490,cs),
(428,490,o),
(515,431,o),
(553,345,c),
(573,345,l),
(534,441,o),
(439,510,o),
(330,510,cs),
(188,510,o),
(70,393,o),
(70,250,cs)
);
}
);
width = 630;
}
);
leftKerningGroup = a2;
rightKerningGroup = b;
unicode = 99;
},
{
glyphname = ccedilla;
layers = (
{
anchors = (
{
name = b.uni0326;
position = "{300, -261}";
},
{
name = b.uni0328_1;
position = "{0, 0}";
},
{
name = t.uni0308_2;
position = "{281, 500}";
},
{
name = m.uni0335_3;
position = "{0, 0}";
}
);
layerId = "388820D5-7EEF-4EDE-95C9-B421FC6E7F1D";
shapes = (
{
closed = 1;
nodes = (
(181,-180,l),
(194,-225,o),
(246,-261,o),
(300,-261,cs),
(363,-261,o),
(413,-211,o),
(413,-148,cs),
(413,-88,o),
(364,-46,o),
(301,-56,c),
(331,-10,l),
(484,-5,o),
(584,85,o),
(600,213,c),
(411,213,l),
(398,176,o),
(363,153,o),
(319,151,c),
(260,153,o),
(219,194,o),
(219,250,cs),
(219,306,o),
(260,348,o),
(319,349,c),
(363,348,o),
(398,324,o),
(411,288,c),
(600,288,l),
(584,419,o),
(479,510,o),
(319,510,cs),
(143,510,o),
(34,401,o),
(34,250,cs),
(34,119,o),
(115,20,o),
(251,-4,c),
(200,-95,l),
(261,-130,l),
(301,-108,o),
(333,-116,o),
(333,-148,cs),
(333,-166,o),
(318,-181,o),
(300,-181,cs),
(284,-181,o),
(266,-170,o),
(259,-155,c)
);
}
);
width = 629;
},
{
anchors = (
{
name = b.uni0326;
position = "{335, -260}";
},
{
name = b.uni0328_1;
position = "{0, 0}";
},
{
name = t.uni0308_2;
position = "{321, 504}";
},
{
name = m.uni0335_3;
position = "{0, 0}";
}
);
layerId = "9088FA62-0D59-4181-A049-8D6D4F8D84ED";
shapes = (
{
closed = 1;
nodes = (
(220,-195,l),
(239,-231,o),
(290,-260,o),
(335,-260,cs),
(394,-260,o),
(438,-214,o),
(438,-156,cs),
(438,-94,o),
(383,-53,o),
(314,-66,c),
(343,-9,l),
(446,1,o),
(533,73,o),
(564,170,c),
(481,170,l),
(451,109,o),
(389,68,o),
(316,68,cs),
(215,68,o),
(134,148,o),
(134,250,cs),
(134,353,o),
(215,433,o),
(316,433,cs),
(389,433,o),
(451,391,o),
(481,330,c),
(564,330,l),
(530,435,o),
(433,510,o),
(316,510,cs),
(173,510,o),
(56,394,o),
(56,250,cs),
(56,114,o),
(161,3,o),
(294,-9,c),
(255,-88,l),
(293,-113,l),
(348,-91,o),
(391,-111,o),
(391,-156,cs),
(391,-189,o),
(366,-214,o),
(335,-214,cs),
(310,-214,o),
(278,-198,o),
(263,-178,c)
);
}
);
width = 596;
},
{
anchors = (
{
name = b.uni0326;
position = "{345, -260}";
},
{
name = b.uni0328_1;
position = "{0, 0}";
},
{
name = t.uni0308_2;
position = "{330, 500}";
},
{
name = m.uni0335_3;
position = "{0, 0}";
}
);
layerId = "445F1214-24C3-4409-A842-6A76E99C229F";
shapes = (
{
closed = 1;
nodes = (
(233,-210,l),
(256,-238,o),
(306,-260,o),
(345,-260,cs),
(398,-260,o),
(439,-218,o),
(439,-165,cs),
(439,-99,o),
(380,-60,o),
(305,-76,c),
(334,-10,l),
(441,-9,o),
(534,60,o),
(573,155,c),
(553,155,l),
(515,69,o),
(428,10,o),
(330,10,cs),
(199,10,o),
(88,114,o),
(90,250,c),
(88,386,o),
(199,490,o),
(330,490,cs),
(428,490,o),
(515,431,o),
(553,345,c),
(573,345,l),
(534,441,o),
(439,510,o),
(330,510,cs),
(188,510,o),
(70,393,o),
(70,250,cs),
(70,114,o),
(179,-1,o),
(314,-10,c),
(280,-83,l),
(298,-99,l),
(366,-79,o),
(419,-108,o),
(419,-165,cs),
(419,-208,o),
(388,-240,o),
(345,-240,cs),
(311,-240,o),
(268,-221,o),
(248,-198,c)
);
}
);
width = 630;
}
);
unicode = 231;
},
{
glyphname = d;
layers = (
{
anchors = (
{
name = b.uni0326;
position = "{276, 0}";
},
{
name = b.uni0328_1;
position = "{590, 0}";
},
{
name = t.uni0308_2;
position = "{210, 500}";
},
{
name = m.uni0335_3;
position = "{470, 641}";
}
);
layerId = "388820D5-7EEF-4EDE-95C9-B421FC6E7F1D";
shapes = (
{
closed = 1;
nodes = (
(34,104,o),
(140,-10,o),
(276,-10,cs),
(329,-10,o),
(373,8,o),
(406,36,c),
(406,-1,l),
(591,0,l),
(591,750,l),
(406,750,l),
(406,464,l),
(373,493,o),
(329,510,o),
(276,510,cs),
(140,510,o),
(34,396,o),
(34,250,cs)
);
},
{
closed = 1;
nodes = (
(219,306,o),
(263,349,o),
(319,349,cs),
(373,349,o),
(418,306,o),
(418,250,cs),
(418,194,o),
(373,151,o),
(319,151,cs),
(263,151,o),
(219,194,o),
(219,250,cs)
);
}
);
width = 661;
},
{
anchors = (
{
name = b.uni0326;
position = "{315, 0}";
},
{
name = b.uni0328_1;
position = "{578, 0}";
},
{
name = t.uni0308_2;
position = "{316, 500}";
},
{
name = m.uni0335_3;
position = "{500, 690}";
}
);
layerId = "9088FA62-0D59-4181-A049-8D6D4F8D84ED";
shapes = (
{
closed = 1;
nodes = (
(56,106,o),
(173,-10,o),
(316,-10,cs),
(388,-10,o),
(451,19,o),
(499,65,c),
(499,0,l),
(576,0,l),
(576,750,l),
(499,750,l),
(499,435,l),
(451,481,o),
(388,510,o),
(316,510,cs),
(173,510,o),
(56,394,o),
(56,250,cs)
);
},
{
closed = 1;
nodes = (
(134,351,o),
(215,433,o),
(316,433,cs),
(416,433,o),
(499,351,o),
(499,250,cs),
(499,149,o),
(416,68,o),
(316,68,cs),
(215,68,o),
(134,149,o),
(134,250,cs)
);
}
);
width = 668;
},
{
anchors = (
{
name = b.uni0326;
position = "{330, 0}";
},
{
name = b.uni0328_1;
position = "{590, 0}";
},
{
name = t.uni0308_2;
position = "{330, 500}";
},
{
name = m.uni0335_3;
position = "{545, 698}";
}
);
layerId = "445F1214-24C3-4409-A842-6A76E99C229F";
shapes = (
{
closed = 1;
nodes = (
(70,108,o),
(188,-10,o),
(330,-10,cs),
(438,-10,o),
(530,56,o),
(570,151,c),
(570,0,l),
(590,0,l),
(590,750,l),
(570,750,l),
(570,349,l),
(530,444,o),
(438,510,o),
(330,510,cs),
(188,510,o),
(70,393,o),
(70,250,cs)
);
},
{
closed = 1;
nodes = (
(90,383,o),
(198,490,o),
(330,490,cs),
(463,490,o),
(570,383,o),
(570,250,cs),
(570,118,o),
(463,10,o),
(330,10,cs),
(198,10,o),
(90,118,o),
(90,250,cs)
);
}
);
width = 700;
}
);
leftKerningGroup = a2;
unicode = 100;
},
{
glyphname = eth;
layers = (
{
layerId = "388820D5-7EEF-4EDE-95C9-B421FC6E7F1D";
shapes = (
{
closed = 1;
nodes = (
(34,104,o),
(159,-10,o),
(318,-10,cs),
(478,-10,o),
(601,104,o),
(601,250,cs),
(601,466,o),
(520,631,o),
(393,723,c),
(435,776,l),
(354,838,l),
(303,771,l),
(251,793,o),
(195,803,o),
(136,803,c),
(98,658,l),
(130,660,o),
(166,656,o),
(203,646,c),
(170,604,l),
(253,543,l),
(295,596,l),
(321,575,o),
(345,545,o),
(365,506,c),
(350,509,o),
(334,510,o),
(318,510,cs),
(159,510,o),
(34,396,o),
(34,250,cs)
);
},
{
closed = 1;
nodes = (
(219,306,o),
(263,349,o),
(318,349,cs),
(373,349,o),
(416,306,o),
(416,250,cs),
(416,194,o),
(373,151,o),
(318,151,cs),
(263,151,o),
(219,194,o),
(219,250,cs)
);
}
);
width = 628;
},
{
layerId = "9088FA62-0D59-4181-A049-8D6D4F8D84ED";
shapes = (
{
closed = 1;
nodes = (
(56,106,o),
(176,-10,o),
(325,-10,cs),
(473,-10,o),
(593,106,o),
(593,250,cs),
(593,434,o),
(521,593,o),
(410,683,c),
(455,740,l),
(416,770,l),
(370,713,l),
(318,745,o),
(259,763,o),
(195,763,c),
(180,699,l),
(231,698,o),
(283,685,o),
(328,659,c),
(275,593,l),
(315,560,l),
(370,630,l),
(418,591,o),
(458,535,o),
(484,460,c),
(439,491,o),
(384,510,o),
(325,510,cs),
(176,510,o),
(56,394,o),
(56,250,cs)
);
},
{
closed = 1;
nodes = (
(141,351,o),
(223,434,o),
(325,434,cs),
(426,434,o),
(508,351,o),
(508,250,cs),
(508,149,o),
(426,66,o),
(325,66,cs),
(223,66,o),
(141,149,o),
(141,250,cs)
);
}
);
width = 641;
},
{
layerId = "445F1214-24C3-4409-A842-6A76E99C229F";
shapes = (
{
closed = 1;
nodes = (
(70,108,o),
(188,-10,o),
(330,-10,cs),
(473,-10,o),
(590,108,o),
(590,250,cs),
(590,429,o),
(523,584,o),
(420,675,c),
(470,739,l),
(455,753,l),
(405,688,l),
(345,735,o),
(275,763,o),
(200,763,c),
(200,743,l),
(271,743,o),
(336,718,o),
(393,673,c),
(330,593,l),
(345,580,l),
(408,660,l),
(483,594,o),
(536,493,o),
(559,373,c),
(515,454,o),
(429,510,o),
(330,510,cs),
(188,510,o),
(70,393,o),
(70,250,cs)
);
},
{
closed = 1;
nodes = (
(90,383,o),
(198,490,o),
(330,490,cs),
(463,490,o),
(570,383,o),
(570,250,cs),
(570,118,o),
(463,10,o),
(330,10,cs),
(198,10,o),
(90,118,o),
(90,250,cs)
);
}
);
width = 658;
}
);
leftKerningGroup = a2;
unicode = 240;
},
{
glyphname = dcaron;
layers = (
{
anchors = (
{
name = b.uni0326;
position = "{276, 0}";
},
{
name = b.uni0328_1;
position = "{590, 0}";
},
{
name = t.uni0308_2;
position = "{210, 500}";
},
{
name = m.uni0335_3;
position = "{470, 641}";
}
);
layerId = "388820D5-7EEF-4EDE-95C9-B421FC6E7F1D";
shapes = (
{
closed = 1;
nodes = (
(34,104,o),
(140,-10,o),
(276,-10,cs),
(329,-10,o),
(373,8,o),
(406,36,c),
(406,-1,l),
(591,0,l),
(590,750,l),
(405,750,l),
(406,464,l),
(373,493,o),
(329,510,o),
(276,510,cs),
(140,510,o),
(34,396,o),
(34,250,cs)
);
},
{
closed = 1;
nodes = (
(654,448,l),
(744,448,l),
(885,750,l),
(740,750,l)
);
},
{
closed = 1;
nodes = (
(219,306,o),
(263,349,o),
(319,349,cs),
(373,349,o),
(418,306,o),
(418,250,cs),
(418,194,o),
(373,151,o),
(319,151,cs),
(263,151,o),
(219,194,o),
(219,250,cs)
);
}
);
width = 858;
},
{
anchors = (
{
name = b.uni0326;
position = "{315, 0}";
},
{
name = b.uni0328_1;
position = "{578, 0}";
},
{
name = t.uni0308_2;
position = "{316, 500}";
},
{
name = m.uni0335_3;
position = "{500, 690}";
}
);
layerId = "9088FA62-0D59-4181-A049-8D6D4F8D84ED";
shapes = (
{
closed = 1;
nodes = (
(56,106,o),
(173,-10,o),
(316,-10,cs),
(388,-10,o),
(451,19,o),
(499,65,c),
(499,0,l),
(576,0,l),
(576,750,l),
(499,750,l),
(499,435,l),
(451,481,o),
(388,510,o),
(316,510,cs),
(173,510,o),
(56,394,o),
(56,250,cs)
);
},
{
closed = 1;
nodes = (
(636,449,l),
(693,449,l),
(806,750,l),
(718,750,l)
);
},
{
closed = 1;
nodes = (
(134,351,o),
(215,433,o),
(316,433,cs),
(416,433,o),
(499,351,o),
(499,250,cs),
(499,149,o),
(416,68,o),
(316,68,cs),
(215,68,o),
(134,149,o),
(134,250,cs)
);
}
);
width = 798;
},
{
anchors = (
{
name = b.uni0326;
position = "{330, 0}";
},
{
name = b.uni0328_1;
position = "{590, 0}";
},
{
name = t.uni0308_2;
position = "{330, 500}";
},
{
name = m.uni0335_3;
position = "{545, 698}";
}
);
layerId = "445F1214-24C3-4409-A842-6A76E99C229F";
shapes = (
{
closed = 1;
nodes = (
(70,108,o),
(188,-10,o),
(330,-10,cs),
(438,-10,o),
(530,56,o),
(570,151,c),
(570,0,l),
(590,0,l),
(590,750,l),
(570,750,l),
(570,349,l),
(530,444,o),
(438,510,o),
(330,510,cs),
(188,510,o),
(70,393,o),
(70,250,cs)
);
},
{
closed = 1;
nodes = (
(660,448,l),
(681,448,l),
(775,750,l),
(753,750,l)
);
},
{
closed = 1;
nodes = (
(90,383,o),
(198,490,o),
(330,490,cs),
(463,490,o),
(570,383,o),
(570,250,cs),
(570,118,o),
(463,10,o),
(330,10,cs),
(198,10,o),
(90,118,o),
(90,250,cs)
);
}
);
width = 784;
}
);
leftKerningGroup = a2;
unicode = 271;
},
{
glyphname = dcroat;
layers = (
{
anchors = (
{
name = b.uni0326;
position = "{276, 0}";
},
{
name = b.uni0328_1;
position = "{590, 0}";
},
{
name = t.uni0308_2;
position = "{210, 500}";
},
{
name = m.uni0335_3;
position = "{470, 641}";
}
);
layerId = "388820D5-7EEF-4EDE-95C9-B421FC6E7F1D";
shapes = (
{
closed = 1;
nodes = (
(34,104,o),
(140,-10,o),
(276,-10,cs),
(329,-10,o),
(373,8,o),
(406,36,c),
(406,-1,l),
(591,0,l),
(591,598,l),
(654,598,l),
(654,685,l),
(591,685,l),
(591,750,l),
(406,750,l),
(406,685,l),
(286,685,l),
(286,598,l),
(406,598,l),
(406,464,l),
(373,493,o),
(329,510,o),
(276,510,cs),
(140,510,o),
(34,396,o),
(34,250,cs)
);
},
{
closed = 1;
nodes = (
(219,306,o),
(263,349,o),
(319,349,cs),
(373,349,o),
(418,306,o),
(418,250,cs),
(418,194,o),
(373,151,o),
(319,151,cs),
(263,151,o),
(219,194,o),
(219,250,cs)
);
}
);
width = 661;
},
{
anchors = (
{
name = b.uni0326;
position = "{315, 0}";
},
{
name = b.uni0328_1;
position = "{578, 0}";
},
{
name = t.uni0308_2;
position = "{316, 500}";
},
{
name = m.uni0335_3;
position = "{500, 690}";
}
);
layerId = "9088FA62-0D59-4181-A049-8D6D4F8D84ED";
shapes = (
{
closed = 1;
nodes = (
(56,106,o),
(173,-10,o),
(316,-10,cs),
(388,-10,o),
(451,19,o),
(499,65,c),
(499,0,l),
(576,0,l),
(576,584,l),
(644,584,l),
(644,659,l),
(576,659,l),
(576,750,l),
(499,750,l),
(499,659,l),
(354,659,l),
(354,584,l),
(499,584,l),
(499,435,l),
(451,481,o),
(388,510,o),
(316,510,cs),
(173,510,o),
(56,394,o),
(56,250,cs)
);
},
{
closed = 1;
nodes = (
(134,351,o),
(215,433,o),
(316,433,cs),
(416,433,o),
(499,351,o),
(499,250,cs),
(499,149,o),
(416,68,o),
(316,68,cs),
(215,68,o),
(134,149,o),
(134,250,cs)
);
}
);
width = 668;
},
{
anchors = (
{
name = b.uni0326;
position = "{330, 0}";
},
{
name = b.uni0328_1;
position = "{590, 0}";
},
{
name = t.uni0308_2;
position = "{330, 500}";
},
{
name = m.uni0335_3;
position = "{545, 698}";
}
);
layerId = "445F1214-24C3-4409-A842-6A76E99C229F";
shapes = (
{
closed = 1;
nodes = (
(70,108,o),
(188,-10,o),
(330,-10,cs),
(438,-10,o),
(530,56,o),
(570,151,c),
(570,0,l),
(590,0,l),
(590,638,l),
(670,638,l),
(670,658,l),
(590,658,l),
(590,750,l),
(570,750,l),
(570,658,l),
(420,658,l),
(420,638,l),
(570,638,l),
(570,349,l),
(530,444,o),
(438,510,o),
(330,510,cs),
(188,510,o),
(70,393,o),
(70,250,cs)
);
},
{
closed = 1;
nodes = (
(90,383,o),
(198,490,o),
(330,490,cs),
(463,490,o),
(570,383,o),
(570,250,cs),
(570,118,o),
(463,10,o),
(330,10,cs),
(198,10,o),
(90,118,o),
(90,250,cs)
);
}
);
width = 700;
}
);
unicode = 273;
},
{
glyphname = e;
layers = (
{
anchors = (
{
name = b.uni0326;
position = "{339, -1}";
},
{
name = b.uni0328_1;
position = "{471, 20}";
},
{
name = t.uni0308_2;
position = "{328, 500}";
},
{
name = m.uni0335_3;
position = "{0, 0}";
}
);
layerId = "388820D5-7EEF-4EDE-95C9-B421FC6E7F1D";
shapes = (
{
closed = 1;
nodes = (
(34,90,o),
(150,-10,o),
(326,-10,cs),
(479,-10,o),
(573,63,o),
(595,171,c),
(418,171,l),
(409,139,o),
(376,120,o),
(325,120,cs),
(258,120,o),
(234,155,o),
(230,220,c),
(603,220,l),
(604,251,l),
(603,411,o),
(493,511,o),
(321,511,cs),
(151,511,o),
(34,411,o),
(34,250,cs)
);
},
{
closed = 1;
nodes = (
(238,323,l),
(250,356,o),
(275,375,o),
(325,375,cs),
(373,375,o),
(399,356,o),
(413,323,c)
);
}
);
width = 640;
},
{
anchors = (
{
name = b.uni0326;
position = "{323, 0}";
},
{
name = b.uni0328_1;
position = "{440, 25}";
},
{
name = t.uni0308_2;
position = "{321, 505}";
},
{
name = m.uni0335_3;
position = "{0, 0}";
}
);
layerId = "9088FA62-0D59-4181-A049-8D6D4F8D84ED";
shapes = (
{
closed = 1;
nodes = (
(56,106,o),
(173,-10,o),
(316,-10,cs),
(435,-10,o),
(534,69,o),
(566,176,c),
(484,176,l),
(456,111,o),
(391,68,o),
(316,68,cs),
(218,68,o),
(139,143,o),
(134,239,c),
(575,239,l),
(576,255,l),
(573,399,o),
(459,510,o),
(316,510,cs),
(173,510,o),
(56,394,o),
(56,250,cs)
);
},
{
closed = 1;
nodes = (
(144,309,l),
(169,381,o),
(236,433,o),
(316,433,cs),
(396,433,o),
(464,381,o),
(488,309,c)
);
}
);
width = 628;
},
{
anchors = (
{
name = b.uni0326;
position = "{328, 0}";
},
{
name = b.uni0328_1;
position = "{523, 78}";
},
{
name = t.uni0308_2;
position = "{330, 510}";
},
{
name = m.uni0335_3;
position = "{0, 0}";
}
);
layerId = "445F1214-24C3-4409-A842-6A76E99C229F";
shapes = (
{
closed = 1;
nodes = (
(70,108,o),
(188,-10,o),
(330,-10,cs),
(445,-10,o),
(544,66,o),
(578,171,c),
(558,171,l),
(525,78,o),
(435,10,o),
(330,10,cs),
(193,10,o),
(90,119,o),
(90,255,c),
(589,255,l),
(589,263,l),
(580,404,o),
(469,510,o),
(330,510,cs),
(188,510,o),
(70,393,o),
(70,250,cs)
);
},
{
closed = 1;
nodes = (
(91,275,l),
(106,398,o),
(205,490,o),
(330,490,cs),
(454,490,o),
(555,396,o),
(569,275,c)
);
}
);
width = 654;
}
);
leftKerningGroup = a2;
rightKerningGroup = b;
unicode = 101;
},
{
glyphname = eacute;
layers = (
{
anchors = (
{
name = b.uni0326;
position = "{339, -1}";
},
{
name = b.uni0328_1;
position = "{471, 20}";
},
{
name = t.uni0308_2;
position = "{328, 500}";
},
{
name = m.uni0335_3;
position = "{0, 0}";
}
);
layerId = "388820D5-7EEF-4EDE-95C9-B421FC6E7F1D";
shapes = (
{
closed = 1;
nodes = (
(256,563,l),
(378,563,l),
(535,750,l),
(366,750,l)
);
},
{
closed = 1;
nodes = (
(34,90,o),
(150,-10,o),
(326,-10,cs),
(479,-10,o),
(573,63,o),
(595,171,c),
(418,171,l),
(409,139,o),
(376,120,o),
(325,120,cs),
(258,120,o),
(234,155,o),
(230,220,c),
(603,220,l),
(604,251,l),
(603,411,o),
(493,511,o),
(321,511,cs),
(151,511,o),
(34,411,o),
(34,250,cs)
);
},
{
closed = 1;
nodes = (
(238,323,l),
(250,356,o),
(275,375,o),
(325,375,cs),
(373,375,o),
(399,356,o),
(413,323,c)
);
}
);
width = 640;
},
{
anchors = (
{
name = b.uni0326;
position = "{323, 0}";
},
{
name = b.uni0328_1;
position = "{440, 25}";
},
{
name = t.uni0308_2;
position = "{321, 505}";
},
{
name = m.uni0335_3;
position = "{0, 0}";
}
);
layerId = "9088FA62-0D59-4181-A049-8D6D4F8D84ED";
shapes = (
{
closed = 1;
nodes = (
(290,570,l),
(343,570,l),
(490,755,l),
(400,755,l)
);
},
{
closed = 1;
nodes = (
(56,106,o),
(173,-10,o),
(316,-10,cs),
(435,-10,o),
(534,69,o),
(566,176,c),
(484,176,l),
(456,111,o),
(391,68,o),
(316,68,cs),
(218,68,o),
(139,143,o),
(134,239,c),
(575,239,l),
(576,255,l),
(573,399,o),
(459,510,o),
(316,510,cs),
(173,510,o),
(56,394,o),
(56,250,cs)
);
},
{
closed = 1;
nodes = (
(144,309,l),
(169,381,o),
(236,433,o),
(316,433,cs),
(396,433,o),
(464,381,o),
(488,309,c)
);
}
);
width = 628;
},
{
anchors = (
{
name = b.uni0326;
position = "{328, 0}";
},
{
name = b.uni0328_1;
position = "{523, 78}";
},
{
name = t.uni0308_2;
position = "{330, 510}";
},
{
name = m.uni0335_3;
position = "{0, 0}";
}
);
layerId = "445F1214-24C3-4409-A842-6A76E99C229F";
shapes = (
{
closed = 1;
nodes = (
(318,579,l),
(343,579,l),
(450,760,l),
(418,760,l)
);
},
{
closed = 1;
nodes = (
(70,108,o),
(188,-10,o),
(330,-10,cs),
(445,-10,o),
(544,66,o),
(578,171,c),
(558,171,l),
(525,78,o),
(435,10,o),
(330,10,cs),
(193,10,o),
(90,119,o),
(90,255,c),
(589,255,l),
(589,263,l),
(580,404,o),
(469,510,o),
(330,510,cs),
(188,510,o),
(70,393,o),
(70,250,cs)
);
},
{
closed = 1;
nodes = (
(91,275,l),
(106,398,o),
(205,490,o),
(330,490,cs),
(454,490,o),
(555,396,o),
(569,275,c)
);
}
);
width = 654;
}
);
unicode = 233;
},
{
glyphname = ecaron;
layers = (
{
anchors = (
{
name = b.uni0326;
position = "{339, -1}";
},
{
name = b.uni0328_1;
position = "{471, 20}";
},
{
name = t.uni0308_2;
position = "{328, 750}";
},
{
name = m.uni0335_3;
position = "{0, 0}";
}
);
layerId = "388820D5-7EEF-4EDE-95C9-B421FC6E7F1D";
shapes = (
{
closed = 1;
nodes = (
(278,563,l),
(378,563,l),
(510,750,l),
(398,750,l),
(328,664,l),
(259,750,l),
(146,750,l)
);
},
{
closed = 1;
nodes = (
(34,90,o),
(150,-10,o),
(326,-10,cs),
(479,-10,o),
(573,63,o),
(595,171,c),
(418,171,l),
(409,139,o),
(376,120,o),
(325,120,cs),
(258,120,o),
(234,155,o),
(230,220,c),
(603,220,l),
(604,251,l),
(603,411,o),
(493,511,o),
(321,511,cs),
(151,511,o),
(34,411,o),
(34,250,cs)
);
},
{
closed = 1;
nodes = (
(238,323,l),
(250,356,o),
(275,375,o),
(325,375,cs),
(373,375,o),
(399,356,o),
(413,323,c)
);
}
);
width = 640;
},
{
anchors = (
{
name = b.uni0326;
position = "{323, 0}";
},
{
name = b.uni0328_1;
position = "{440, 25}";
},
{
name = t.uni0308_2;
position = "{321, 755}";
},
{
name = m.uni0335_3;
position = "{0, 0}";
}
);
layerId = "9088FA62-0D59-4181-A049-8D6D4F8D84ED";
shapes = (
{
closed = 1;
nodes = (
(281,570,l),
(361,570,l),
(460,755,l),
(399,755,l),
(321,623,l),
(244,755,l),
(184,755,l)
);
},
{
closed = 1;
nodes = (
(56,106,o),
(173,-10,o),
(316,-10,cs),
(435,-10,o),
(534,69,o),
(566,176,c),
(484,176,l),
(456,111,o),
(391,68,o),
(316,68,cs),
(218,68,o),
(139,143,o),
(134,239,c),
(575,239,l),
(576,255,l),
(573,399,o),
(459,510,o),
(316,510,cs),
(173,510,o),
(56,394,o),
(56,250,cs)
);
},
{
closed = 1;
nodes = (
(144,309,l),
(169,381,o),
(236,433,o),
(316,433,cs),
(396,433,o),
(464,381,o),
(488,309,c)
);
}
);
width = 628;
},
{
anchors = (
{
name = b.uni0326;
position = "{328, 0}";
},
{
name = b.uni0328_1;
position = "{523, 78}";
},
{
name = t.uni0308_2;
position = "{330, 760}";
},
{
name = m.uni0335_3;
position = "{0, 0}";
}
);
layerId = "445F1214-24C3-4409-A842-6A76E99C229F";
shapes = (
{
closed = 1;
nodes = (
(316,579,l),
(341,579,l),
(439,760,l),
(408,760,l),
(330,603,l),
(250,760,l),
(220,760,l)
);
},
{
closed = 1;
nodes = (
(70,108,o),
(188,-10,o),
(330,-10,cs),
(445,-10,o),
(544,66,o),
(578,171,c),
(558,171,l),
(525,78,o),
(435,10,o),
(330,10,cs),
(193,10,o),
(90,119,o),
(90,255,c),
(589,255,l),
(589,263,l),
(580,404,o),
(469,510,o),
(330,510,cs),
(188,510,o),
(70,393,o),
(70,250,cs)
);
},
{
closed = 1;
nodes = (
(91,275,l),
(106,398,o),
(205,490,o),
(330,490,cs),
(454,490,o),
(555,396,o),
(569,275,c)
);
}
);
width = 654;
}
);
unicode = 283;
},
{
glyphname = ecircumflex;
layers = (
{
anchors = (
{
name = b.uni0326;
position = "{339, -1}";
},
{
name = b.uni0328_1;
position = "{471, 20}";
},
{
name = t.uni0308_2;
position = "{328, 750}";
},
{
name = m.uni0335_3;
position = "{0, 0}";
}
);
layerId = "388820D5-7EEF-4EDE-95C9-B421FC6E7F1D";
shapes = (
{
closed = 1;
nodes = (
(146,563,l),
(259,563,l),
(328,650,l),
(398,563,l),
(510,563,l),
(378,750,l),
(278,750,l)
);
},
{
closed = 1;
nodes = (
(34,90,o),
(150,-10,o),
(326,-10,cs),
(479,-10,o),
(573,63,o),
(595,171,c),
(418,171,l),
(409,139,o),
(376,120,o),
(325,120,cs),
(258,120,o),
(234,155,o),
(230,220,c),
(603,220,l),
(604,251,l),
(603,411,o),
(493,511,o),
(321,511,cs),
(151,511,o),
(34,411,o),
(34,250,cs)
);
},
{
closed = 1;
nodes = (
(238,323,l),
(250,356,o),
(275,375,o),
(325,375,cs),
(373,375,o),
(399,356,o),
(413,323,c)
);
}
);
width = 640;
},
{
anchors = (
{
name = b.uni0326;
position = "{323, 0}";
},
{
name = b.uni0328_1;
position = "{440, 25}";
},
{
name = t.uni0308_2;
position = "{321, 755}";
},
{
name = m.uni0335_3;
position = "{0, 0}";
}
);
layerId = "9088FA62-0D59-4181-A049-8D6D4F8D84ED";
shapes = (
{
closed = 1;
nodes = (
(184,570,l),
(244,570,l),
(321,704,l),
(399,570,l),
(460,570,l),
(361,755,l),
(281,755,l)
);
},
{
closed = 1;
nodes = (
(56,106,o),
(173,-10,o),
(316,-10,cs),
(435,-10,o),
(534,69,o),
(566,176,c),
(484,176,l),
(456,111,o),
(391,68,o),
(316,68,cs),
(218,68,o),
(139,143,o),
(134,239,c),
(575,239,l),
(576,255,l),
(573,399,o),
(459,510,o),
(316,510,cs),
(173,510,o),
(56,394,o),
(56,250,cs)
);
},
{
closed = 1;
nodes = (
(144,309,l),
(169,381,o),
(236,433,o),
(316,433,cs),
(396,433,o),
(464,381,o),
(488,309,c)
);
}
);
width = 628;
},
{
anchors = (
{
name = b.uni0326;
position = "{328, 0}";
},
{
name = b.uni0328_1;
position = "{523, 78}";
},
{
name = t.uni0308_2;
position = "{330, 760}";
},
{
name = m.uni0335_3;
position = "{0, 0}";
}
);
layerId = "445F1214-24C3-4409-A842-6A76E99C229F";
shapes = (
{
closed = 1;
nodes = (
(220,579,l),
(250,579,l),
(330,738,l),
(408,579,l),
(439,579,l),
(341,760,l),
(316,760,l)
);
},
{
closed = 1;
nodes = (
(70,108,o),
(188,-10,o),
(330,-10,cs),
(445,-10,o),
(544,66,o),
(578,171,c),
(558,171,l),
(525,78,o),
(435,10,o),
(330,10,cs),
(193,10,o),
(90,119,o),
(90,255,c),
(589,255,l),
(589,263,l),
(580,404,o),
(469,510,o),
(330,510,cs),
(188,510,o),
(70,393,o),
(70,250,cs)
);
},
{
closed = 1;
nodes = (
(91,275,l),
(106,398,o),
(205,490,o),
(330,490,cs),
(454,490,o),
(555,396,o),
(569,275,c)
);
}
);
width = 654;
}
);
unicode = 234;
},
{
glyphname = edieresis;
layers = (
{
anchors = (
{
name = b.uni0326;
position = "{339, -1}";
},
{
name = b.uni0328_1;
position = "{471, 20}";
},
{
name = t.uni0308_2;
position = "{328, 736}";
},
{
name = m.uni0335_3;
position = "{0, 0}";
}
);
layerId = "388820D5-7EEF-4EDE-95C9-B421FC6E7F1D";
shapes = (
{
closed = 1;
nodes = (
(136,624,o),
(174,586,o),
(219,586,cs),
(263,586,o),
(300,624,o),
(300,668,cs),
(300,713,o),
(263,749,o),
(219,749,cs),
(174,749,o),
(136,713,o),
(136,668,cs)
);
},
{
closed = 1;
nodes = (
(355,624,o),
(393,586,o),
(436,586,cs),
(481,586,o),
(519,624,o),
(519,668,cs),
(519,713,o),
(481,749,o),
(436,749,cs),
(393,749,o),
(355,713,o),
(355,668,cs)
);
},
{
closed = 1;
nodes = (
(34,90,o),
(150,-10,o),
(326,-10,cs),
(479,-10,o),
(573,63,o),
(595,171,c),
(418,171,l),
(409,139,o),
(376,120,o),
(325,120,cs),
(258,120,o),
(234,155,o),
(230,220,c),
(603,220,l),
(604,251,l),
(603,411,o),
(493,511,o),
(321,511,cs),
(151,511,o),
(34,411,o),
(34,250,cs)
);
},
{
closed = 1;
nodes = (
(238,323,l),
(250,356,o),
(275,375,o),
(325,375,cs),
(373,375,o),
(399,356,o),
(413,323,c)
);
}
);
width = 640;
},
{
anchors = (
{
name = b.uni0326;
position = "{323, 0}";
},
{
name = b.uni0328_1;
position = "{440, 25}";
},
{
name = t.uni0308_2;
position = "{321, 701}";
},
{
name = m.uni0335_3;
position = "{0, 0}";
}
);
layerId = "9088FA62-0D59-4181-A049-8D6D4F8D84ED";
shapes = (
{
closed = 1;
nodes = (
(176,623,o),
(201,599,o),
(231,599,cs),
(260,599,o),
(285,623,o),
(285,651,cs),
(285,683,o),
(260,705,o),
(231,705,cs),
(201,705,o),
(176,683,o),
(176,651,cs)
);
},
{
closed = 1;
nodes = (
(359,623,o),
(384,599,o),
(413,599,cs),
(443,599,o),
(466,623,o),
(466,651,cs),
(466,683,o),
(443,705,o),
(413,705,cs),
(384,705,o),
(359,683,o),
(359,651,cs)
);
},
{
closed = 1;
nodes = (
(56,106,o),
(173,-10,o),
(316,-10,cs),
(435,-10,o),
(534,69,o),
(566,176,c),
(484,176,l),
(456,111,o),
(391,68,o),
(316,68,cs),
(218,68,o),
(139,143,o),
(134,239,c),
(575,239,l),
(576,255,l),
(573,399,o),
(459,510,o),
(316,510,cs),
(173,510,o),
(56,394,o),
(56,250,cs)
);
},
{
closed = 1;
nodes = (
(144,309,l),
(169,381,o),
(236,433,o),
(316,433,cs),
(396,433,o),
(464,381,o),
(488,309,c)
);
}
);
width = 628;
},
{
anchors = (
{
name = b.uni0326;
position = "{328, 0}";
},
{
name = b.uni0328_1;
position = "{523, 78}";
},
{
name = t.uni0308_2;
position = "{330, 643}";
},
{
name = m.uni0335_3;
position = "{0, 0}";
}
);
layerId = "445F1214-24C3-4409-A842-6A76E99C229F";
shapes = (
{
closed = 1;
nodes = (
(225,623,o),
(239,610,o),
(255,610,cs),
(271,610,o),
(285,623,o),
(285,640,cs),
(285,656,o),
(271,670,o),
(255,670,cs),
(239,670,o),
(225,656,o),
(225,640,cs)
);
},
{
closed = 1;
nodes = (
(375,623,o),
(389,610,o),
(405,610,cs),
(421,610,o),
(435,623,o),
(435,640,cs),
(435,656,o),
(421,670,o),
(405,670,cs),
(389,670,o),
(375,656,o),
(375,640,cs)
);
},
{
closed = 1;
nodes = (
(70,108,o),
(188,-10,o),
(330,-10,cs),
(445,-10,o),
(544,66,o),
(578,171,c),
(558,171,l),
(525,78,o),
(435,10,o),
(330,10,cs),
(193,10,o),
(90,119,o),
(90,255,c),
(589,255,l),
(589,263,l),
(580,404,o),
(469,510,o),
(330,510,cs),
(188,510,o),
(70,393,o),
(70,250,cs)
);
},
{
closed = 1;
nodes = (
(91,275,l),
(106,398,o),
(205,490,o),
(330,490,cs),
(454,490,o),
(555,396,o),
(569,275,c)
);
}
);
width = 654;
}
);
unicode = 235;
},
{
glyphname = eogonek;
layers = (
{
anchors = (
{
name = b.uni0326;
position = "{339, -1}";
},
{
name = b.uni0328_1;
position = "{471, 20}";
},
{
name = t.uni0308_2;
position = "{328, 500}";
},
{
name = m.uni0335_3;
position = "{0, 0}";
}
);
layerId = "388820D5-7EEF-4EDE-95C9-B421FC6E7F1D";
shapes = (
{
closed = 1;
nodes = (
(34,103,o),
(135,4,o),
(290,-9,c),
(295,-9,o),
(300,-8,o),
(305,-5,c),
(293,1,l),
(255,-23,o),
(231,-59,o),
(231,-105,cs),
(231,-173,o),
(276,-231,o),
(364,-238,cs),
(421,-243,o),
(486,-218,o),
(529,-174,c),
(471,-94,l),
(455,-129,o),
(425,-151,o),
(394,-151,cs),
(363,-151,o),
(343,-131,o),
(343,-89,cs),
(343,-44,o),
(380,-21,o),
(441,6,c),
(526,34,o),
(579,94,o),
(595,171,c),
(418,171,l),
(409,139,o),
(376,120,o),
(325,120,cs),
(258,120,o),
(234,155,o),
(230,220,c),
(603,220,l),
(604,251,l),
(603,411,o),
(493,511,o),
(321,511,cs),
(151,511,o),
(34,411,o),
(34,250,cs)
);
},
{
closed = 1;
nodes = (
(238,323,l),
(250,356,o),
(275,375,o),
(325,375,cs),
(373,375,o),
(399,356,o),
(413,323,c)
);
}
);
width = 640;
},
{
anchors = (
{
name = b.uni0326;
position = "{323, 0}";
},
{
name = b.uni0328_1;
position = "{440, 25}";
},
{
name = t.uni0308_2;
position = "{321, 505}";
},
{
name = m.uni0335_3;
position = "{0, 0}";
}
);
layerId = "9088FA62-0D59-4181-A049-8D6D4F8D84ED";
shapes = (
{
closed = 1;
nodes = (
(56,106,o),
(173,-10,o),
(316,-10,cs),
(321,-10,o),
(345,-8,o),
(350,-6,c),
(341,0,l),
(293,-36,o),
(259,-76,o),
(259,-130,cs),
(259,-194,o),
(303,-231,o),
(370,-234,cs),
(420,-236,o),
(465,-220,o),
(503,-184,c),
(475,-145,l),
(453,-175,o),
(419,-191,o),
(381,-191,cs),
(338,-191,o),
(314,-163,o),
(314,-124,cs),
(314,-65,o),
(358,-26,o),
(413,9,c),
(486,38,o),
(543,100,o),
(566,176,c),
(484,176,l),
(456,111,o),
(391,68,o),
(316,68,cs),
(218,68,o),
(139,143,o),
(134,239,c),
(575,239,l),
(576,255,l),
(573,399,o),
(459,510,o),
(316,510,cs),
(173,510,o),
(56,394,o),
(56,250,cs)
);
},
{
closed = 1;
nodes = (
(144,309,l),
(169,381,o),
(236,433,o),
(316,433,cs),
(396,433,o),
(464,381,o),
(488,309,c)
);
}
);
width = 628;
},
{
anchors = (
{
name = b.uni0326;
position = "{328, 0}";
},
{
name = b.uni0328_1;
position = "{523, 78}";
},
{
name = t.uni0308_2;
position = "{330, 510}";
},
{
name = m.uni0335_3;
position = "{0, 0}";
}
);
layerId = "445F1214-24C3-4409-A842-6A76E99C229F";
shapes = (
{
closed = 1;
nodes = (
(70,108,o),
(188,-10,o),
(330,-10,cs),
(378,-10,o),
(424,4,o),
(463,28,c),
(460,31,l),
(431,-1,o),
(413,-39,o),
(413,-84,cs),
(413,-144,o),
(444,-183,o),
(505,-183,cs),
(549,-183,o),
(575,-169,o),
(605,-140,c),
(596,-125,l),
(569,-150,o),
(545,-163,o),
(505,-163,cs),
(455,-163,o),
(430,-130,o),
(430,-84,cs),
(430,-28,o),
(465,16,o),
(499,54,c),
(535,84,o),
(563,125,o),
(578,171,c),
(558,171,l),
(525,78,o),
(435,10,o),
(330,10,cs),
(193,10,o),
(90,119,o),
(90,255,c),
(589,255,l),
(589,263,l),
(580,404,o),
(469,510,o),
(330,510,cs),
(188,510,o),
(70,393,o),
(70,250,cs)
);
},
{
closed = 1;
nodes = (
(91,275,l),
(106,398,o),
(205,490,o),
(330,490,cs),
(454,490,o),
(555,396,o),
(569,275,c)
);
}
);
width = 654;
}
);
unicode = 281;
},
{
glyphname = f;
layers = (
{
layerId = "388820D5-7EEF-4EDE-95C9-B421FC6E7F1D";
shapes = (
{
closed = 1;
nodes = (
(90,0,l),
(276,0,l),
(276,363,l),
(390,363,l),
(390,500,l),
(276,500,l),
(276,535,ls),
(276,575,o),
(295,600,o),
(326,600,c),
(388,600,l),
(388,744,l),
(375,753,o),
(340,760,o),
(303,760,cs),
(188,760,o),
(90,672,o),
(90,557,cs),
(90,500,l),
(6,500,l),
(6,363,l),
(90,363,l)
);
}
);
width = 388;
},
{
layerId = "9088FA62-0D59-4181-A049-8D6D4F8D84ED";
shapes = (
{
closed = 1;
nodes = (
(36,425,l),
(120,425,l),
(120,0,l),
(198,0,l),
(198,425,l),
(331,425,l),
(331,500,l),
(198,500,l),
(198,609,ls),
(198,655,o),
(233,685,o),
(273,685,c),
(330,684,l),
(330,744,l),
(316,753,o),
(289,760,o),
(264,760,cs),
(186,760,o),
(120,698,o),
(120,619,cs),
(120,500,l),
(36,500,l)
);
}
);
width = 345;
},
{
layerId = "445F1214-24C3-4409-A842-6A76E99C229F";
shapes = (
{
closed = 1;
nodes = (
(55,480,l),
(139,480,l),
(139,0,l),
(159,0,l),
(159,480,l),
(303,480,l),
(303,500,l),
(159,500,l),
(159,651,ls),
(159,701,o),
(198,740,o),
(248,740,c),
(303,731,l),
(303,744,l),
(290,753,o),
(265,760,o),
(248,760,cs),
(188,760,o),
(139,711,o),
(139,651,cs),
(139,500,l),
(55,500,l)
);
}
);
width = 350;
}
);
leftKerningGroup = f2;
rightKerningGroup = f;
unicode = 102;
},
{
glyphname = g;
layers = (
{
anchors = (
{
name = b.uni0326;
position = "{325, -243}";
},
{
name = b.uni0328_1;
position = "{0, 0}";
},
{
name = t.uni0308_2;
position = "{329, 500}";
},
{
name = m.uni0335_3;
position = "{0, 0}";
}
);
layerId = "388820D5-7EEF-4EDE-95C9-B421FC6E7F1D";
shapes = (
{
closed = 1;
nodes = (
(33,-94,l),
(76,-196,o),
(170,-250,o),
(308,-250,cs),
(503,-250,o),
(609,-141,o),
(609,58,cs),
(609,500,l),
(421,500,l),
(421,464,l),
(388,493,o),
(344,510,o),
(291,510,cs),
(155,510,o),
(50,396,o),
(50,250,cs),
(50,104,o),
(155,-10,o),
(291,-10,cs),
(345,-10,o),
(390,8,o),
(424,38,c),
(424,27,ls),
(424,-64,o),
(383,-93,o),
(308,-93,cs),
(258,-93,o),
(221,-70,o),
(204,-28,c)
);
},
{
closed = 1;
nodes = (
(235,306,o),
(278,349,o),
(334,349,cs),
(389,349,o),
(433,306,o),
(433,250,cs),
(433,194,o),
(389,151,o),
(334,151,cs),
(278,151,o),
(235,194,o),
(235,250,cs)
);
}
);
width = 678;
},
{
anchors = (
{
name = b.uni0326;
position = "{304, -243}";
},
{
name = b.uni0328_1;
position = "{0, 0}";
},
{
name = t.uni0308_2;
position = "{316, 500}";
},
{
name = m.uni0335_3;
position = "{0, 0}";
}
);
layerId = "9088FA62-0D59-4181-A049-8D6D4F8D84ED";
shapes = (
{
closed = 1;
nodes = (
(71,-77,l),
(108,-179,o),
(204,-250,o),
(316,-250,cs),
(460,-250,o),
(576,-134,o),
(576,10,cs),
(576,500,l),
(498,500,l),
(498,438,l),
(451,483,o),
(386,510,o),
(316,510,cs),
(173,510,o),
(56,395,o),
(56,250,cs),
(56,106,o),
(173,-10,o),
(316,-10,cs),
(388,-10,o),
(451,19,o),
(499,65,c),
(499,10,ls),
(499,-90,o),
(416,-172,o),
(316,-172,cs),
(235,-172,o),
(166,-119,o),
(143,-46,c)
);
},
{
closed = 1;
nodes = (
(134,351,o),
(215,433,o),
(316,433,cs),
(416,433,o),
(499,351,o),
(499,250,cs),
(499,150,o),
(416,68,o),
(316,68,cs),
(215,68,o),
(134,150,o),
(134,250,cs)
);
}
);
width = 668;
},
{
anchors = (
{
name = b.uni0326;
position = "{329, -243}";
},
{
name = b.uni0328_1;
position = "{0, 0}";
},
{
name = t.uni0308_2;
position = "{330, 500}";
},
{
name = m.uni0335_3;
position = "{0, 0}";
}
);
layerId = "445F1214-24C3-4409-A842-6A76E99C229F";
shapes = (
{
closed = 1;
nodes = (
(101,-113,l),
(148,-198,o),
(235,-250,o),
(330,-250,cs),
(473,-250,o),
(590,-133,o),
(590,10,cs),
(590,500,l),
(570,500,l),
(570,350,l),
(530,444,o),
(438,510,o),
(330,510,cs),
(188,510,o),
(70,394,o),
(70,250,cs),
(70,108,o),
(188,-10,o),
(330,-10,cs),
(438,-10,o),
(530,56,o),
(570,151,c),
(570,10,ls),
(570,-123,o),
(463,-230,o),
(330,-230,cs),
(243,-230,o),
(163,-183,o),
(119,-104,c)
);
},
{
closed = 1;
nodes = (
(90,383,o),
(198,490,o),
(330,490,cs),
(463,490,o),
(570,383,o),
(570,250,cs),
(570,118,o),
(463,10,o),
(330,10,cs),
(198,10,o),
(90,118,o),
(90,250,cs)
);
}
);
width = 700;
}
);
leftKerningGroup = a2;
unicode = 103;
},
{
glyphname = h;
layers = (
{
anchors = (
{
name = b.uni0326;
position = "{320, 0}";
},
{
name = b.uni0328_1;
position = "{0, 0}";
},
{
name = t.uni0308_2;
position = "{465, 500}";
},
{
name = m.uni0335_3;
position = "{190, 646}";
}
);
layerId = "388820D5-7EEF-4EDE-95C9-B421FC6E7F1D";
shapes = (
{
closed = 1;
nodes = (
(69,0,l),
(254,0,l),
(254,270,ls),
(254,309,o),
(286,349,o),
(331,349,cs),
(371,349,o),
(398,318,o),
(398,281,cs),
(398,0,l),
(583,0,l),
(583,316,ls),
(583,428,o),
(505,510,o),
(405,510,cs),
(343,510,o),
(290,479,o),
(254,428,c),
(254,750,l),
(69,750,l)
);
}
);
width = 639;
},
{
anchors = (
{
name = b.uni0326;
position = "{289, 0}";
},
{
name = b.uni0328_1;
position = "{0, 0}";
},
{
name = t.uni0308_2;
position = "{129, 750}";
},
{
name = m.uni0335_3;
position = "{169, 698}";
}
);
layerId = "9088FA62-0D59-4181-A049-8D6D4F8D84ED";
shapes = (
{
closed = 1;
nodes = (
(91,0,l),
(169,0,l),
(169,320,ls),
(169,384,o),
(219,433,o),
(280,433,cs),
(341,433,o),
(393,384,o),
(393,320,cs),
(393,0,l),
(469,0,l),
(469,320,ls),
(469,426,o),
(385,510,o),
(280,510,cs),
(239,510,o),
(200,496,o),
(169,474,c),
(169,750,l),
(91,750,l)
);
}
);
width = 554;
},
{
anchors = (
{
name = b.uni0326;
position = "{279, 0}";
},
{
name = b.uni0328_1;
position = "{0, 0}";
},
{
name = t.uni0308_2;
position = "{281, 500}";
},
{
name = m.uni0335_3;
position = "{158, 698}";
}
);
layerId = "445F1214-24C3-4409-A842-6A76E99C229F";
shapes = (
{
closed = 1;
nodes = (
(110,0,l),
(130,0,l),
(130,326,ls),
(130,418,o),
(200,491,o),
(285,491,cs),
(371,491,o),
(441,418,o),
(441,326,cs),
(441,0,l),
(461,0,l),
(461,326,ls),
(461,428,o),
(383,510,o),
(286,510,cs),
(218,510,o),
(159,469,o),
(130,409,c),
(130,750,l),
(110,750,l)
);
}
);
width = 561;
}
);
rightKerningGroup = h;
unicode = 104;
},
{
glyphname = hbar;
layers = (
{
anchors = (
{
name = b.uni0326;
position = "{320, 0}";
},
{
name = b.uni0328_1;
position = "{0, 0}";
},
{
name = t.uni0308_2;
position = "{465, 500}";
},
{
name = m.uni0335_3;
position = "{190, 646}";
}
);
layerId = "388820D5-7EEF-4EDE-95C9-B421FC6E7F1D";
shapes = (
{
closed = 1;
nodes = (
(69,0,l),
(254,0,l),
(254,270,ls),
(254,309,o),
(286,349,o),
(331,349,cs),
(371,349,o),
(398,318,o),
(398,281,cs),
(398,0,l),
(583,0,l),
(583,316,ls),
(583,428,o),
(505,510,o),
(405,510,cs),
(343,510,o),
(290,479,o),
(254,428,c),
(254,573,l),
(374,573,l),
(374,660,l),
(254,660,l),
(254,750,l),
(69,750,l),
(69,660,l),
(6,660,l),
(6,573,l),
(69,573,l)
);
}
);
width = 639;
},
{
anchors = (
{
name = b.uni0326;
position = "{289, 0}";
},
{
name = b.uni0328_1;
position = "{0, 0}";
},
{
name = t.uni0308_2;
position = "{289, 500}";
},
{
name = m.uni0335_3;
position = "{169, 698}";
}
);
layerId = "9088FA62-0D59-4181-A049-8D6D4F8D84ED";
shapes = (
{
closed = 1;
nodes = (
(91,0,l),
(169,0,l),
(169,320,ls),
(169,384,o),
(219,433,o),
(280,433,cs),
(341,433,o),
(393,384,o),
(393,320,cs),
(393,0,l),
(469,0,l),
(469,320,ls),
(469,426,o),
(385,510,o),
(280,510,cs),
(239,510,o),
(200,496,o),
(169,474,c),
(169,611,l),
(313,611,l),
(313,686,l),
(169,686,l),
(169,750,l),
(91,750,l),
(91,686,l),
(23,686,l),
(23,611,l),
(91,611,l)
);
}
);
width = 554;
},
{
anchors = (
{
name = b.uni0326;
position = "{279, 0}";
},
{
name = b.uni0328_1;
position = "{0, 0}";
},
{
name = t.uni0308_2;
position = "{281, 500}";
},
{
name = m.uni0335_3;
position = "{158, 698}";
}
);
layerId = "445F1214-24C3-4409-A842-6A76E99C229F";
shapes = (
{
closed = 1;
nodes = (
(110,0,l),
(130,0,l),
(130,326,ls),
(130,418,o),
(200,491,o),
(285,491,cs),
(371,491,o),
(441,418,o),
(441,326,cs),
(441,0,l),
(461,0,l),
(461,326,ls),
(461,428,o),
(383,510,o),
(286,510,cs),
(218,510,o),
(159,469,o),
(130,409,c),
(130,638,l),
(283,638,l),
(283,658,l),
(130,658,l),
(130,750,l),
(110,750,l),
(110,658,l),
(33,658,l),
(33,638,l),
(110,638,l)
);
}
);
width = 561;
}
);
unicode = 295;
},
{
glyphname = i;
layers = (
{
layerId = "388820D5-7EEF-4EDE-95C9-B421FC6E7F1D";
shapes = (
{
closed = 1;
nodes = (
(63,626,o),
(108,581,o),
(161,581,cs),
(215,581,o),
(260,626,o),
(260,680,cs),
(260,734,o),
(215,778,o),
(161,778,cs),
(108,778,o),
(63,734,o),
(63,680,cs)
);
},
{
closed = 1;
nodes = (
(69,0,l),
(254,0,l),
(254,500,l),
(69,500,l)
);
}
);
width = 324;
},
{
layerId = "9088FA62-0D59-4181-A049-8D6D4F8D84ED";
shapes = (
{
closed = 1;
nodes = (
(85,618,o),
(110,594,o),
(140,594,cs),
(169,594,o),
(194,618,o),
(194,646,cs),
(194,678,o),
(169,700,o),
(140,700,cs),
(110,700,o),
(85,678,o),
(85,646,cs)
);
},
{
closed = 1;
nodes = (
(101,0,l),
(179,0,l),
(179,500,l),
(101,500,l)
);
}
);
width = 279;
},
{
layerId = "445F1214-24C3-4409-A842-6A76E99C229F";
shapes = (
{
closed = 1;
nodes = (
(104,613,o),
(118,600,o),
(134,600,cs),
(150,600,o),
(164,613,o),
(164,630,cs),
(164,646,o),
(150,660,o),
(134,660,cs),
(118,660,o),
(104,646,o),
(104,630,cs)
);
},
{
closed = 1;
nodes = (
(124,0,l),
(144,0,l),
(144,500,l),
(124,500,l)
);
}
);
width = 268;
}
);
leftKerningGroup = i;
rightKerningGroup = a;
unicode = 105;
},
{
glyphname = dotlessi;
layers = (
{
anchors = (
{
name = b.uni0326;
position = "{168, 0}";
},
{
name = b.uni0328_1;
position = "{243, 0}";
},
{
name = t.uni0308_2;
position = "{168, 500}";
},
{
name = m.uni0335_3;
position = "{0, 0}";
}
);
layerId = "388820D5-7EEF-4EDE-95C9-B421FC6E7F1D";
shapes = (
{
closed = 1;
nodes = (
(75,0,l),
(260,0,l),
(260,500,l),
(75,500,l)
);
}
);
width = 335;
},
{
anchors = (
{
name = b.uni0326;
position = "{138, 0}";
},
{
name = b.uni0328_1;
position = "{169, 0}";
},
{
name = t.uni0308_2;
position = "{138, 500}";
},
{
name = m.uni0335_3;
position = "{0, 0}";
}
);
layerId = "9088FA62-0D59-4181-A049-8D6D4F8D84ED";
shapes = (
{
closed = 1;
nodes = (
(99,0,l),
(176,0,l),
(176,500,l),
(99,500,l)
);
}
);
width = 274;
},
{
anchors = (
{
name = b.uni0326;
position = "{126, 0}";
},
{
name = b.uni0328_1;
position = "{136, 0}";
},
{
name = t.uni0308_2;
position = "{126, 500}";
},
{
name = m.uni0335_3;
position = "{0, 0}";
}
);
layerId = "445F1214-24C3-4409-A842-6A76E99C229F";
shapes = (
{
closed = 1;
nodes = (
(116,0,l),
(136,0,l),
(136,500,l),
(116,500,l)
);
}
);
width = 253;
}
);
leftKerningGroup = i;
rightKerningGroup = a;
unicode = 305;
},
{
glyphname = iogonek;
layers = (
{
anchors = (
{
name = b.uni0326;
position = "{168, 0}";
},
{
name = b.uni0328_1;
position = "{243, 0}";
},
{
name = t.uni0308_2;
position = "{168, 748}";
},
{
name = m.uni0335_3;
position = "{0, 0}";
}
);
layerId = "388820D5-7EEF-4EDE-95C9-B421FC6E7F1D";
shapes = (
{
closed = 1;
nodes = (
(69,606,o),
(114,561,o),
(168,561,cs),
(221,561,o),
(266,606,o),
(266,660,cs),
(266,714,o),
(221,758,o),
(168,758,cs),
(114,758,o),
(69,714,o),
(69,660,cs)
);
},
{
closed = 1;
nodes = (
(3,-193,o),
(48,-251,o),
(135,-258,cs),
(193,-263,o),
(258,-238,o),
(300,-194,c),
(243,-114,l),
(226,-149,o),
(196,-171,o),
(165,-171,cs),
(134,-171,o),
(114,-151,o),
(114,-109,cs),
(114,-56,o),
(164,-35,o),
(243,0,c),
(260,0,l),
(260,500,l),
(75,500,l),
(75,0,l),
(95,0,l),
(43,-26,o),
(3,-65,o),
(3,-125,cs)
);
}
);
width = 335;
},
{
anchors = (
{
name = b.uni0326;
position = "{138, 0}";
},
{
name = b.uni0328_1;
position = "{169, 0}";
},
{
name = t.uni0308_2;
position = "{138, 673}";
},
{
name = m.uni0335_3;
position = "{0, 0}";
}
);
layerId = "9088FA62-0D59-4181-A049-8D6D4F8D84ED";
shapes = (
{
closed = 1;
nodes = (
(84,599,o),
(109,575,o),
(138,575,cs),
(166,575,o),
(191,599,o),
(191,629,cs),
(191,659,o),
(166,683,o),
(138,683,cs),
(109,683,o),
(84,659,o),
(84,629,cs)
);
},
{
closed = 1;
nodes = (
(-13,-219,o),
(31,-256,o),
(99,-259,cs),
(149,-261,o),
(194,-245,o),
(231,-209,c),
(204,-170,l),
(181,-200,o),
(148,-216,o),
(110,-216,cs),
(66,-216,o),
(43,-188,o),
(43,-149,cs),
(43,-80,o),
(103,-39,o),
(169,0,c),
(176,0,l),
(176,500,l),
(99,500,l),
(99,0,l),
(105,0,l),
(38,-44,o),
(-13,-90,o),
(-13,-155,cs)
);
}
);
width = 274;
},
{
anchors = (
{
name = b.uni0326;
position = "{126, 0}";
},
{
name = b.uni0328_1;
position = "{136, 0}";
},
{
name = t.uni0308_2;
position = "{126, 650}";
},
{
name = m.uni0335_3;
position = "{0, 0}";
}
);
layerId = "445F1214-24C3-4409-A842-6A76E99C229F";
shapes = (
{
closed = 1;
nodes = (
(96,613,o),
(110,600,o),
(126,600,cs),
(141,600,o),
(156,613,o),
(156,630,cs),
(156,646,o),
(141,660,o),
(126,660,cs),
(110,660,o),
(96,646,o),
(96,630,cs)
);
},
{
closed = 1;
nodes = (
(26,-221,o),
(58,-260,o),
(119,-260,cs),
(163,-260,o),
(189,-246,o),
(219,-218,c),
(210,-203,l),
(183,-228,o),
(159,-240,o),
(119,-240,cs),
(69,-240,o),
(44,-208,o),
(44,-161,cs),
(44,-93,o),
(96,-41,o),
(136,0,c),
(136,0,l),
(136,500,l),
(116,500,l),
(116,5,l),
(116,5,l),
(71,-46,o),
(26,-93,o),
(26,-161,cs)
);
}
);
width = 253;
}
);
unicode = 303;
},
{
glyphname = j;
layers = (
{
layerId = "388820D5-7EEF-4EDE-95C9-B421FC6E7F1D";
shapes = (
{
closed = 1;
nodes = (
(63,626,o),
(108,581,o),
(163,581,cs),
(215,581,o),
(260,626,o),
(260,680,cs),
(260,734,o),
(215,778,o),
(163,778,cs),
(108,778,o),
(63,734,o),
(63,680,cs)
);
},
{
closed = 1;
nodes = (
(-44,-234,l),
(-30,-243,o),
(5,-250,o),
(41,-250,cs),
(156,-250,o),
(254,-161,o),
(254,-48,cs),
(254,500,l),
(69,500,l),
(69,-25,ls),
(69,-65,o),
(49,-90,o),
(18,-90,cs),
(-44,-90,l)
);
}
);
width = 324;
},
{
layerId = "9088FA62-0D59-4181-A049-8D6D4F8D84ED";
shapes = (
{
closed = 1;
nodes = (
(86,618,o),
(111,594,o),
(140,594,cs),
(169,594,o),
(194,618,o),
(194,646,cs),
(194,678,o),
(169,700,o),
(140,700,cs),
(111,700,o),
(86,678,o),
(86,646,cs)
);
},
{
closed = 1;
nodes = (
(-30,-234,l),
(-18,-243,o),
(10,-250,o),
(36,-250,cs),
(114,-250,o),
(179,-188,o),
(179,-109,cs),
(179,500,l),
(101,500,l),
(101,-99,ls),
(101,-145,o),
(66,-175,o),
(26,-175,c),
(-30,-174,l)
);
}
);
width = 280;
},
{
layerId = "445F1214-24C3-4409-A842-6A76E99C229F";
shapes = (
{
closed = 1;
nodes = (
(114,613,o),
(128,600,o),
(144,600,cs),
(160,600,o),
(174,613,o),
(174,630,cs),
(174,646,o),
(160,660,o),
(144,660,cs),
(128,660,o),
(114,646,o),
(114,630,cs)
);
},
{
closed = 1;
nodes = (
(-10,-234,l),
(3,-243,o),
(28,-250,o),
(45,-250,cs),
(105,-250,o),
(154,-201,o),
(154,-141,cs),
(154,500,l),
(134,500,l),
(134,-141,ls),
(134,-191,o),
(95,-230,o),
(45,-230,c),
(-10,-221,l)
);
}
);
width = 278;
}
);
leftKerningGroup = i;
rightKerningGroup = a;
unicode = 106;
},
{
glyphname = dotlessj;
layers = (
{
layerId = "388820D5-7EEF-4EDE-95C9-B421FC6E7F1D";
shapes = (
{
closed = 1;
nodes = (
(-44,-234,l),
(-30,-243,o),
(5,-250,o),
(41,-250,cs),
(156,-250,o),
(254,-161,o),
(254,-48,cs),
(254,500,l),
(69,500,l),
(69,-25,ls),
(69,-65,o),
(49,-90,o),
(18,-90,cs),
(-44,-90,l)
);
}
);
width = 324;
},
{
layerId = "9088FA62-0D59-4181-A049-8D6D4F8D84ED";
shapes = (
{
closed = 1;
nodes = (
(-30,-234,l),
(-18,-243,o),
(10,-250,o),
(36,-250,cs),
(114,-250,o),
(179,-188,o),
(179,-109,cs),
(179,500,l),
(101,500,l),
(101,-99,ls),
(101,-145,o),
(66,-175,o),
(26,-175,c),
(-30,-174,l)
);
}
);
width = 280;
},
{
layerId = "445F1214-24C3-4409-A842-6A76E99C229F";
shapes = (
{
closed = 1;
nodes = (
(-10,-234,l),
(3,-243,o),
(28,-250,o),
(45,-250,cs),
(105,-250,o),
(154,-201,o),
(154,-141,cs),
(154,500,l),
(134,500,l),
(134,-141,ls),
(134,-191,o),
(95,-230,o),
(45,-230,c),
(-10,-221,l)
);
}
);
width = 278;
}
);
leftKerningGroup = i;
rightKerningGroup = a;
unicode = 567;
},
{
glyphname = k;
layers = (
{
anchors = (
{
name = b.uni0326;
position = "{339, 0}";
},
{
name = b.uni0328_1;
position = "{0, 0}";
},
{
name = t.uni0308_2;
position = "{336, 500}";
},
{
name = m.uni0335_3;
position = "{0, 0}";
}
);
layerId = "388820D5-7EEF-4EDE-95C9-B421FC6E7F1D";
shapes = (
{
closed = 1;
nodes = (
(76,0,l),
(261,0,l),
(261,750,l),
(76,750,l)
);
},
{
closed = 1;
nodes = (
(209,280,l),
(415,0,l),
(653,0,l),
(421,273,l),
(636,500,l),
(418,500,l)
);
}
);
width = 629;
},
{
anchors = (
{
name = b.uni0326;
position = "{271, 0}";
},
{
name = b.uni0328_1;
position = "{0, 0}";
},
{
name = t.uni0308_2;
position = "{259, 500}";
},
{
name = m.uni0335_3;
position = "{0, 0}";
}
);
layerId = "9088FA62-0D59-4181-A049-8D6D4F8D84ED";
shapes = (
{
closed = 1;
nodes = (
(99,0,l),
(176,0,l),
(176,750,l),
(99,750,l)
);
},
{
closed = 1;
nodes = (
(175,280,l),
(423,0,l),
(529,0,l),
(275,278,l),
(508,500,l),
(404,500,l)
);
}
);
width = 516;
},
{
anchors = (
{
name = b.uni0326;
position = "{243, 0}";
},
{
name = b.uni0328_1;
position = "{0, 0}";
},
{
name = t.uni0308_2;
position = "{223, 500}";
},
{
name = m.uni0335_3;
position = "{0, 0}";
}
);
layerId = "445F1214-24C3-4409-A842-6A76E99C229F";
shapes = (
{
closed = 1;
nodes = (
(118,1,l),
(138,1,l),
(138,750,l),
(118,750,l)
);
},
{
closed = 1;
nodes = (
(153,280,l),
(430,0,l),
(459,0,l),
(183,280,l),
(439,500,l),
(408,500,l)
);
}
);
width = 479;
}
);
unicode = 107;
},
{
glyphname = l;
layers = (
{
anchors = (
{
name = b.uni0326;
position = "{161, 0}";
},
{
name = b.uni0328_1;
position = "{0, 0}";
},
{
name = t.uni0308_2;
position = "{161, 836}";
},
{
name = m.uni0335_3;
position = "{161, 404}";
}
);
layerId = "388820D5-7EEF-4EDE-95C9-B421FC6E7F1D";
shapes = (
{
closed = 1;
nodes = (
(69,0,l),
(254,0,l),
(254,750,l),
(69,750,l)
);
}
);
width = 323;
},
{
anchors = (
{
name = b.uni0326;
position = "{130, 0}";
},
{
name = b.uni0328_1;
position = "{0, 0}";
},
{
name = t.uni0308_2;
position = "{130, 920}";
},
{
name = m.uni0335_3;
position = "{130, 459}";
}
);
layerId = "9088FA62-0D59-4181-A049-8D6D4F8D84ED";
shapes = (
{
closed = 1;
nodes = (
(91,0,l),
(169,0,l),
(169,750,l),
(91,750,l)
);
}
);
width = 260;
},
{
anchors = (
{
name = b.uni0326;
position = "{120, 0}";
},
{
name = b.uni0328_1;
position = "{0, 0}";
},
{
name = t.uni0308_2;
position = "{120, 920}";
},
{
name = m.uni0335_3;
position = "{120, 464}";
}
);
layerId = "445F1214-24C3-4409-A842-6A76E99C229F";
shapes = (
{
closed = 1;
nodes = (
(110,0,l),
(130,0,l),
(130,750,l),
(110,750,l)
);
}
);
width = 240;
}
);
unicode = 108;
},
{
glyphname = lacute;
layers = (
{
anchors = (
{
name = b.uni0326;
position = "{161, 0}";
},
{
name = b.uni0328_1;
position = "{0, 0}";
},
{
name = t.uni0308_2;
position = "{161, 836}";
},
{
name = m.uni0335_3;
position = "{161, 404}";
}
);
layerId = "388820D5-7EEF-4EDE-95C9-B421FC6E7F1D";
shapes = (
{
closed = 1;
nodes = (
(90,813,l),
(211,813,l),
(369,1000,l),
(200,1000,l)
);
},
{
closed = 1;
nodes = (
(69,0,l),
(254,0,l),
(254,750,l),
(69,750,l)
);
}
);
width = 323;
},
{
anchors = (
{
name = b.uni0326;
position = "{130, 0}";
},
{
name = b.uni0328_1;
position = "{0, 0}";
},
{
name = t.uni0308_2;
position = "{130, 920}";
},
{
name = m.uni0335_3;
position = "{130, 459}";
}
);
layerId = "9088FA62-0D59-4181-A049-8D6D4F8D84ED";
shapes = (
{
closed = 1;
nodes = (
(99,815,l),
(151,815,l),
(299,1000,l),
(209,1000,l)
);
},
{
closed = 1;
nodes = (
(91,0,l),
(169,0,l),
(169,750,l),
(91,750,l)
);
}
);
width = 260;
},
{
anchors = (
{
name = b.uni0326;
position = "{120, 0}";
},
{
name = b.uni0328_1;
position = "{0, 0}";
},
{
name = t.uni0308_2;
position = "{120, 920}";
},
{
name = m.uni0335_3;
position = "{120, 464}";
}
);
layerId = "445F1214-24C3-4409-A842-6A76E99C229F";
shapes = (
{
closed = 1;
nodes = (
(108,819,l),
(133,819,l),
(240,1000,l),
(208,1000,l)
);
},
{
closed = 1;
nodes = (
(110,0,l),
(130,0,l),
(130,750,l),
(110,750,l)
);
}
);
width = 240;
}
);
unicode = 314;
},
{
glyphname = lcaron;
layers = (
{
anchors = (
{
name = b.uni0326;
position = "{161, 0}";
},
{
name = b.uni0328_1;
position = "{0, 0}";
},
{
name = t.uni0308_2;
position = "{161, 836}";
},
{
name = m.uni0335_3;
position = "{161, 404}";
}
);
layerId = "388820D5-7EEF-4EDE-95C9-B421FC6E7F1D";
shapes = (
{
closed = 1;
nodes = (
(69,0,l),
(254,0,l),
(254,750,l),
(69,750,l)
);
},
{
closed = 1;
nodes = (
(316,534,l),
(406,534,l),
(548,750,l),
(403,750,l)
);
}
);
width = 520;
},
{
anchors = (
{
name = b.uni0326;
position = "{130, 0}";
},
{
name = b.uni0328_1;
position = "{0, 0}";
},
{
name = t.uni0308_2;
position = "{130, 920}";
},
{
name = m.uni0335_3;
position = "{130, 459}";
}
);
layerId = "9088FA62-0D59-4181-A049-8D6D4F8D84ED";
shapes = (
{
closed = 1;
nodes = (
(91,0,l),
(169,0,l),
(169,750,l),
(91,750,l)
);
},
{
closed = 1;
nodes = (
(221,449,l),
(278,449,l),
(391,750,l),
(303,750,l)
);
}
);
width = 384;
},
{
anchors = (
{
name = b.uni0326;
position = "{120, 0}";
},
{
name = b.uni0328_1;
position = "{0, 0}";
},
{
name = t.uni0308_2;
position = "{120, 920}";
},
{
name = m.uni0335_3;
position = "{120, 464}";
}
);
layerId = "445F1214-24C3-4409-A842-6A76E99C229F";
shapes = (
{
closed = 1;
nodes = (
(110,0,l),
(130,0,l),
(130,750,l),
(110,750,l)
);
},
{
closed = 1;
nodes = (
(214,448,l),
(235,448,l),
(329,750,l),
(306,750,l)
);
}
);
width = 338;
}
);
unicode = 318;
},
{
glyphname = ldot;
layers = (
{
anchors = (
{
name = b.uni0326;
position = "{161, 0}";
},
{
name = b.uni0328_1;
position = "{0, 0}";
},
{
name = t.uni0308_2;
position = "{161, 836}";
},
{
name = m.uni0335_3;
position = "{161, 404}";
}
);
layerId = "388820D5-7EEF-4EDE-95C9-B421FC6E7F1D";
shapes = (
{
closed = 1;
nodes = (
(69,0,l),
(254,0,l),
(254,750,l),
(69,750,l)
);
},
{
closed = 1;
nodes = (
(284,328,o),
(313,303,o),
(344,303,cs),
(376,303,o),
(406,328,o),
(406,363,cs),
(406,394,o),
(376,423,o),
(344,423,cs),
(313,423,o),
(284,394,o),
(284,363,cs)
);
}
);
width = 323;
},
{
anchors = (
{
name = b.uni0326;
position = "{130, 0}";
},
{
name = b.uni0328_1;
position = "{0, 0}";
},
{
name = t.uni0308_2;
position = "{130, 920}";
},
{
name = m.uni0335_3;
position = "{130, 459}";
}
);
layerId = "9088FA62-0D59-4181-A049-8D6D4F8D84ED";
shapes = (
{
closed = 1;
nodes = (
(91,0,l),
(169,0,l),
(169,750,l),
(91,750,l)
);
},
{
closed = 1;
nodes = (
(215,335,o),
(235,316,o),
(259,316,cs),
(283,316,o),
(304,335,o),
(304,360,cs),
(304,384,o),
(283,404,o),
(259,404,cs),
(235,404,o),
(215,384,o),
(215,360,cs)
);
}
);
width = 260;
},
{
anchors = (
{
name = b.uni0326;
position = "{120, 0}";
},
{
name = b.uni0328_1;
position = "{0, 0}";
},
{
name = t.uni0308_2;
position = "{120, 920}";
},
{
name = m.uni0335_3;
position = "{120, 464}";
}
);
layerId = "445F1214-24C3-4409-A842-6A76E99C229F";
shapes = (
{
closed = 1;
nodes = (
(110,0,l),
(130,0,l),
(130,750,l),
(110,750,l)
);
},
{
closed = 1;
nodes = (
(160,343,o),
(174,330,o),
(190,330,cs),
(205,330,o),
(220,343,o),
(220,360,cs),
(220,376,o),
(205,390,o),
(190,390,cs),
(174,390,o),
(160,376,o),
(160,360,cs)
);
}
);
width = 240;
}
);
unicode = 320;
},
{
glyphname = lslash;
layers = (
{
anchors = (
{
name = b.uni0326;
position = "{161, 0}";
},
{
name = b.uni0328_1;
position = "{0, 0}";
},
{
name = t.uni0308_2;
position = "{161, 836}";
},
{
name = m.uni0335_3;
position = "{161, 404}";
}
);
layerId = "388820D5-7EEF-4EDE-95C9-B421FC6E7F1D";
shapes = (
{
closed = 1;
nodes = (
(-58,243,l),
(13,181,l),
(69,240,l),
(69,0,l),
(254,0,l),
(254,434,l),
(381,566,l),
(310,628,l),
(254,569,l),
(254,750,l),
(69,750,l),
(69,375,l)
);
}
);
width = 323;
},
{
anchors = (
{
name = b.uni0326;
position = "{130, 0}";
},
{
name = b.uni0328_1;
position = "{0, 0}";
},
{
name = t.uni0308_2;
position = "{130, 920}";
},
{
name = m.uni0335_3;
position = "{130, 459}";
}
);
layerId = "9088FA62-0D59-4181-A049-8D6D4F8D84ED";
shapes = (
{
closed = 1;
nodes = (
(-25,335,l),
(18,299,l),
(91,378,l),
(91,0,l),
(169,0,l),
(169,459,l),
(285,583,l),
(241,619,l),
(169,541,l),
(169,750,l),
(91,750,l),
(91,459,l)
);
}
);
width = 260;
},
{
anchors = (
{
name = b.uni0326;
position = "{120, 0}";
},
{
name = b.uni0328_1;
position = "{0, 0}";
},
{
name = t.uni0308_2;
position = "{120, 920}";
},
{
name = m.uni0335_3;
position = "{120, 464}";
}
);
layerId = "445F1214-24C3-4409-A842-6A76E99C229F";
shapes = (
{
closed = 1;
nodes = (
(24,373,l),
(39,361,l),
(110,439,l),
(110,0,l),
(130,0,l),
(130,461,l),
(215,554,l),
(200,568,l),
(130,490,l),
(130,750,l),
(110,750,l),
(110,468,l)
);
}
);
width = 240;
}
);
unicode = 322;
},
{
glyphname = m;
layers = (
{
layerId = "388820D5-7EEF-4EDE-95C9-B421FC6E7F1D";
shapes = (
{
closed = 1;
nodes = (
(69,0,l),
(254,0,l),
(254,281,ls),
(254,309,o),
(269,349,o),
(314,349,cs),
(354,349,o),
(376,318,o),
(376,281,cs),
(376,0,l),
(563,0,l),
(563,281,ls),
(563,309,o),
(576,349,o),
(621,349,cs),
(661,349,o),
(685,318,o),
(685,281,cs),
(685,0,l),
(870,0,l),
(870,316,ls),
(870,435,o),
(815,510,o),
(704,510,cs),
(629,510,o),
(573,476,o),
(541,418,c),
(516,473,o),
(466,510,o),
(398,510,cs),
(336,510,o),
(288,480,o),
(254,434,c),
(254,500,l),
(69,500,l)
);
}
);
width = 926;
},
{
layerId = "9088FA62-0D59-4181-A049-8D6D4F8D84ED";
shapes = (
{
closed = 1;
nodes = (
(91,0,l),
(169,0,l),
(169,320,ls),
(169,383,o),
(216,433,o),
(278,433,cs),
(336,433,o),
(385,383,o),
(385,320,cs),
(385,0,l),
(463,0,l),
(463,320,ls),
(463,383,o),
(511,433,o),
(570,433,cs),
(630,433,o),
(679,383,o),
(679,320,cs),
(679,0,l),
(756,0,l),
(756,320,ls),
(756,425,o),
(674,510,o),
(570,510,cs),
(510,510,o),
(458,481,o),
(424,435,c),
(390,481,o),
(338,510,o),
(285,510,cs),
(240,510,o),
(199,488,o),
(169,454,c),
(169,500,l),
(91,500,l)
);
}
);
width = 840;
},
{
layerId = "445F1214-24C3-4409-A842-6A76E99C229F";
shapes = (
{
closed = 1;
nodes = (
(110,0,l),
(130,0,l),
(130,336,ls),
(130,428,o),
(195,490,o),
(276,490,cs),
(358,490,o),
(423,428,o),
(423,336,cs),
(423,0,l),
(443,0,l),
(443,336,ls),
(443,428,o),
(508,490,o),
(589,490,cs),
(670,490,o),
(736,428,o),
(736,336,cs),
(736,0,l),
(755,0,l),
(755,336,ls),
(755,438,o),
(681,510,o),
(590,510,cs),
(518,510,o),
(456,465,o),
(433,396,c),
(410,465,o),
(349,510,o),
(278,510,cs),
(214,510,o),
(158,475,o),
(130,419,c),
(130,500,l),
(110,500,l)
);
}
);
width = 855;
}
);
leftKerningGroup = m;
rightKerningGroup = h;
unicode = 109;
},
{
glyphname = n;
layers = (
{
anchors = (
{
name = b.uni0326;
position = "{325, 0}";
},
{
name = b.uni0328_1;
position = "{0, 0}";
},
{
name = t.uni0308_2;
position = "{329, 500}";
},
{
name = m.uni0335_3;
position = "{0, 0}";
}
);
layerId = "388820D5-7EEF-4EDE-95C9-B421FC6E7F1D";
shapes = (
{
closed = 1;
nodes = (
(69,0,l),
(254,0,l),
(254,280,ls),
(254,320,o),
(288,349,o),
(329,349,cs),
(370,349,o),
(398,320,o),
(398,280,cs),
(398,0,l),
(583,0,l),
(583,326,ls),
(583,438,o),
(515,510,o),
(415,510,cs),
(348,510,o),
(291,479,o),
(254,428,c),
(254,500,l),
(69,500,l)
);
}
);
width = 639;
},
{
anchors = (
{
name = b.uni0326;
position = "{285, 0}";
},
{
name = b.uni0328_1;
position = "{0, 0}";
},
{
name = t.uni0308_2;
position = "{284, 500}";
},
{
name = m.uni0335_3;
position = "{0, 0}";
}
);
layerId = "9088FA62-0D59-4181-A049-8D6D4F8D84ED";
shapes = (
{
closed = 1;
nodes = (
(91,0,l),
(169,0,l),
(169,319,ls),
(169,383,o),
(220,433,o),
(284,433,cs),
(348,433,o),
(398,383,o),
(398,319,cs),
(398,0,l),
(475,0,l),
(475,319,ls),
(475,425,o),
(386,510,o),
(290,510,cs),
(244,510,o),
(201,491,o),
(169,460,c),
(169,500,l),
(91,500,l)
);
}
);
width = 560;
},
{
anchors = (
{
name = b.uni0326;
position = "{295, 0}";
},
{
name = b.uni0328_1;
position = "{0, 0}";
},
{
name = t.uni0308_2;
position = "{295, 500}";
},
{
name = m.uni0335_3;
position = "{0, 0}";
}
);
layerId = "445F1214-24C3-4409-A842-6A76E99C229F";
shapes = (
{
closed = 1;
nodes = (
(110,0,l),
(130,0,l),
(130,326,ls),
(130,418,o),
(204,491,o),
(295,491,cs),
(386,491,o),
(459,418,o),
(459,326,cs),
(459,0,l),
(479,0,l),
(479,326,ls),
(479,428,o),
(398,510,o),
(295,510,cs),
(223,510,o),
(160,469,o),
(130,408,c),
(130,500,l),
(110,500,l)
);
}
);
width = 579;
}
);
leftKerningGroup = m;
rightKerningGroup = h;
unicode = 110;
},
{
glyphname = eng;
layers = (
{
anchors = (
{
name = b.uni0326;
position = "{325, 0}";
},
{
name = b.uni0328_1;
position = "{0, 0}";
},
{
name = t.uni0308_2;
position = "{388, 500}";
},
{
name = m.uni0335_3;
position = "{0, 0}";
}
);
layerId = "388820D5-7EEF-4EDE-95C9-B421FC6E7F1D";
shapes = (
{
closed = 1;
nodes = (
(69,0,l),
(254,0,l),
(254,281,ls),
(254,321,o),
(286,349,o),
(329,349,cs),
(369,349,o),
(398,321,o),
(398,281,cs),
(398,-74,ls),
(398,-166,o),
(364,-170,o),
(320,-171,c),
(320,-280,l),
(470,-279,o),
(583,-231,o),
(583,-71,cs),
(583,316,ls),
(583,428,o),
(505,510,o),
(405,510,cs),
(344,510,o),
(290,479,o),
(254,429,c),
(254,500,l),
(69,500,l)
);
}
);
width = 639;
},
{
anchors = (
{
name = b.uni0326;
position = "{285, 0}";
},
{
name = b.uni0328_1;
position = "{0, 0}";
},
{
name = t.uni0308_2;
position = "{284, 500}";
},
{
name = m.uni0335_3;
position = "{0, 0}";
}
);
layerId = "9088FA62-0D59-4181-A049-8D6D4F8D84ED";
shapes = (
{
closed = 1;
nodes = (
(91,0,l),
(169,0,l),
(169,319,ls),
(169,383,o),
(220,433,o),
(284,433,cs),
(348,433,o),
(398,383,o),
(398,319,cs),
(398,-143,ls),
(398,-206,o),
(369,-218,o),
(334,-216,c),
(334,-269,l),
(430,-270,o),
(475,-234,o),
(475,-130,cs),
(475,319,ls),
(475,425,o),
(386,510,o),
(290,510,cs),
(244,510,o),
(201,491,o),
(169,460,c),
(169,500,l),
(91,500,l)
);
}
);
width = 560;
},
{
anchors = (
{
name = b.uni0326;
position = "{295, 0}";
},
{
name = b.uni0328_1;
position = "{0, 0}";
},
{
name = t.uni0308_2;
position = "{295, 500}";
},
{
name = m.uni0335_3;
position = "{0, 0}";
}
);
layerId = "445F1214-24C3-4409-A842-6A76E99C229F";
shapes = (
{
closed = 1;
nodes = (
(110,0,l),
(130,0,l),
(130,326,ls),
(130,418,o),
(204,491,o),
(295,491,cs),
(386,491,o),
(459,418,o),
(459,326,cs),
(459,-143,ls),
(459,-193,o),
(428,-225,o),
(384,-218,c),
(384,-238,l),
(439,-243,o),
(479,-203,o),
(479,-143,cs),
(479,326,ls),
(479,428,o),
(398,510,o),
(295,510,cs),
(223,510,o),
(160,469,o),
(130,408,c),
(130,500,l),
(110,500,l)
);
}
);
width = 579;
}
);
leftKerningGroup = m;
rightKerningGroup = h;
unicode = 331;
},
{
glyphname = o;
layers = (
{
anchors = (
{
name = b.uni0326;
position = "{319, 0}";
},
{
name = b.uni0328_1;
position = "{410, 11}";
},
{
name = t.uni0308_2;
position = "{319, 500}";
},
{
name = m.uni0335_3;
position = "{320, 250}";
}
);
layerId = "388820D5-7EEF-4EDE-95C9-B421FC6E7F1D";
shapes = (
{
closed = 1;
nodes = (
(34,99,o),
(143,-10,o),
(319,-10,cs),
(494,-10,o),
(603,99,o),
(603,250,cs),
(603,401,o),
(494,510,o),
(319,510,cs),
(143,510,o),
(34,401,o),
(34,250,cs)
);
},
{
closed = 1;
nodes = (
(219,308,o),
(260,348,o),
(319,349,c),
(376,348,o),
(418,308,o),
(418,250,cs),
(418,193,o),
(376,153,o),
(319,151,c),
(260,153,o),
(219,193,o),
(219,250,cs)
);
}
);
width = 636;
},
{
anchors = (
{
name = b.uni0326;
position = "{316, 0}";
},
{
name = b.uni0328_1;
position = "{406, 10}";
},
{
name = t.uni0308_2;
position = "{316, 500}";
},
{
name = m.uni0335_3;
position = "{316, 250}";
}
);
layerId = "9088FA62-0D59-4181-A049-8D6D4F8D84ED";
shapes = (
{
closed = 1;
nodes = (
(56,106,o),
(173,-10,o),
(316,-10,cs),
(460,-10,o),
(576,106,o),
(576,250,cs),
(576,394,o),
(460,510,o),
(316,510,cs),
(173,510,o),
(56,394,o),
(56,250,cs)
);
},
{
closed = 1;
nodes = (
(134,351,o),
(215,433,o),
(316,433,cs),
(416,433,o),
(499,351,o),
(499,250,cs),
(499,149,o),
(416,68,o),
(316,68,cs),
(215,68,o),
(134,149,o),
(134,250,cs)
);
}
);
width = 633;
},
{
anchors = (
{
name = b.uni0326;
position = "{330, 0}";
},
{
name = b.uni0328_1;
position = "{420, 10}";
},
{
name = t.uni0308_2;
position = "{330, 500}";
},
{
name = m.uni0335_3;
position = "{330, 250}";
}
);
layerId = "445F1214-24C3-4409-A842-6A76E99C229F";
shapes = (
{
closed = 1;
nodes = (
(70,108,o),
(188,-10,o),
(330,-10,cs),
(473,-10,o),
(590,108,o),
(590,250,cs),
(590,393,o),
(473,510,o),
(330,510,cs),
(188,510,o),
(70,393,o),
(70,250,cs)
);
},
{
closed = 1;
nodes = (
(90,383,o),
(198,490,o),
(330,490,cs),
(463,490,o),
(570,383,o),
(570,250,cs),
(570,118,o),
(463,10,o),
(330,10,cs),
(198,10,o),
(90,118,o),
(90,250,cs)
);
}
);
width = 660;
}
);
leftKerningGroup = a2;
rightKerningGroup = b;
unicode = 111;
},
{
glyphname = oslash;
layers = (
{
anchors = (
{
name = b.uni0326;
position = "{319, 0}";
},
{
name = b.uni0328_1;
position = "{410, 11}";
},
{
name = t.uni0308_2;
position = "{319, 500}";
},
{
name = m.uni0335_3;
position = "{320, 250}";
}
);
layerId = "388820D5-7EEF-4EDE-95C9-B421FC6E7F1D";
shapes = (
{
closed = 1;
nodes = (
(94,0,l),
(168,-44,l),
(204,8,l),
(238,-4,o),
(276,-10,o),
(319,-10,cs),
(494,-10,o),
(603,99,o),
(603,250,cs),
(603,334,o),
(570,404,o),
(510,450,c),
(545,500,l),
(471,543,l),
(435,491,l),
(401,504,o),
(363,510,o),
(319,510,cs),
(143,510,o),
(34,401,o),
(34,250,cs),
(34,166,o),
(68,95,o),
(128,49,c)
);
},
{
closed = 1;
nodes = (
(233,199,l),
(224,214,o),
(219,230,o),
(219,250,cs),
(219,308,o),
(260,348,o),
(319,349,c),
(325,349,o),
(330,348,o),
(335,348,c)
);
},
{
closed = 1;
nodes = (
(405,299,l),
(414,285,o),
(418,269,o),
(418,250,cs),
(418,193,o),
(376,153,o),
(319,151,c),
(314,151,o),
(309,151,o),
(304,153,c)
);
}
);
width = 636;
},
{
anchors = (
{
name = b.uni0326;
position = "{316, 0}";
},
{
name = b.uni0328_1;
position = "{406, 10}";
},
{
name = t.uni0308_2;
position = "{316, 500}";
},
{
name = m.uni0335_3;
position = "{316, 250}";
}
);
layerId = "9088FA62-0D59-4181-A049-8D6D4F8D84ED";
shapes = (
{
closed = 1;
nodes = (
(104,-15,l),
(144,-40,l),
(189,24,l),
(226,3,o),
(270,-10,o),
(316,-10,cs),
(460,-10,o),
(576,106,o),
(576,250,cs),
(576,330,o),
(540,401,o),
(485,449,c),
(530,514,l),
(490,539,l),
(446,475,l),
(408,498,o),
(364,510,o),
(316,510,cs),
(173,510,o),
(56,394,o),
(56,250,cs),
(56,170,o),
(93,99,o),
(150,50,c)
);
},
{
closed = 1;
nodes = (
(134,351,o),
(215,433,o),
(316,433,cs),
(346,433,o),
(376,425,o),
(401,411,c),
(194,114,l),
(158,148,o),
(134,196,o),
(134,250,cs)
);
},
{
closed = 1;
nodes = (
(440,384,l),
(476,351,o),
(499,304,o),
(499,250,cs),
(499,149,o),
(416,68,o),
(316,68,cs),
(286,68,o),
(258,75,o),
(233,88,c)
);
}
);
width = 633;
},
{
anchors = (
{
name = b.uni0326;
position = "{330, 0}";
},
{
name = b.uni0328_1;
position = "{420, 10}";
},
{
name = t.uni0308_2;
position = "{330, 500}";
},
{
name = m.uni0335_3;
position = "{330, 250}";
}
);
layerId = "445F1214-24C3-4409-A842-6A76E99C229F";
shapes = (
{
closed = 1;
nodes = (
(110,-53,l),
(124,-61,l),
(189,33,l),
(230,5,o),
(279,-10,o),
(330,-10,cs),
(473,-10,o),
(590,108,o),
(590,250,cs),
(590,335,o),
(549,410,o),
(485,458,c),
(550,550,l),
(536,559,l),
(473,468,l),
(431,494,o),
(383,510,o),
(330,510,cs),
(188,510,o),
(70,393,o),
(70,250,cs),
(70,165,o),
(111,89,o),
(175,41,c)
);
},
{
closed = 1;
nodes = (
(90,383,o),
(198,490,o),
(330,490,cs),
(379,490,o),
(424,476,o),
(461,451,c),
(186,58,l),
(128,101,o),
(90,171,o),
(90,250,cs)
);
},
{
closed = 1;
nodes = (
(475,441,l),
(533,398,o),
(570,329,o),
(570,250,cs),
(570,118,o),
(463,10,o),
(330,10,cs),
(283,10,o),
(238,24,o),
(200,49,c)
);
}
);
width = 660;
}
);
unicode = 248;
},
{
glyphname = oe;
layers = (
{
anchors = (
{
name = b.uni0326;
position = "{319, 0}";
},
{
name = b.uni0328_1;
position = "{410, 11}";
},
{
name = t.uni0308_2;
position = "{319, 500}";
},
{
name = m.uni0335_3;
position = "{320, 250}";
}
);
layerId = "388820D5-7EEF-4EDE-95C9-B421FC6E7F1D";
shapes = (
{
closed = 1;
nodes = (
(34,99,o),
(143,-10,o),
(319,-10,cs),
(398,-10,o),
(464,13,o),
(511,50,c),
(563,11,o),
(631,-10,o),
(713,-10,cs),
(865,-10,o),
(959,63,o),
(981,171,c),
(804,171,l),
(795,139,o),
(763,120,o),
(711,120,cs),
(644,120,o),
(620,155,o),
(616,220,c),
(989,220,l),
(990,251,l),
(989,411,o),
(879,511,o),
(708,511,cs),
(629,511,o),
(560,490,o),
(511,450,c),
(463,488,o),
(398,510,o),
(319,510,cs),
(143,510,o),
(34,401,o),
(34,250,cs)
);
},
{
closed = 1;
nodes = (
(219,308,o),
(260,348,o),
(319,349,c),
(376,348,o),
(418,308,o),
(418,250,cs),
(418,193,o),
(376,153,o),
(319,151,c),
(260,153,o),
(219,193,o),
(219,250,cs)
);
},
{
closed = 1;
nodes = (
(624,323,l),
(636,356,o),
(661,375,o),
(711,375,cs),
(759,375,o),
(785,356,o),
(799,323,c)
);
}
);
width = 1026;
},
{
anchors = (
{
name = b.uni0326;
position = "{316, 0}";
},
{
name = b.uni0328_1;
position = "{406, 10}";
},
{
name = t.uni0308_2;
position = "{316, 500}";
},
{
name = m.uni0335_3;
position = "{316, 250}";
}
);
layerId = "9088FA62-0D59-4181-A049-8D6D4F8D84ED";
shapes = (
{
closed = 1;
nodes = (
(56,106,o),
(173,-10,o),
(316,-10,cs),
(411,-10,o),
(494,40,o),
(539,115,c),
(584,40,o),
(666,-10,o),
(761,-10,cs),
(880,-10,o),
(979,69,o),
(1011,176,c),
(929,176,l),
(901,111,o),
(836,68,o),
(761,68,cs),
(663,68,o),
(584,143,o),
(579,239,c),
(1020,239,l),
(1021,255,l),
(1018,399,o),
(904,510,o),
(761,510,cs),
(666,510,o),
(584,460,o),
(539,385,c),
(494,460,o),
(411,510,o),
(316,510,cs),
(173,510,o),
(56,394,o),
(56,250,cs)
);
},
{
closed = 1;
nodes = (
(134,351,o),
(215,433,o),
(316,433,cs),
(416,433,o),
(499,351,o),
(499,250,cs),
(499,149,o),
(416,68,o),
(316,68,cs),
(215,68,o),
(134,149,o),
(134,250,cs)
);
},
{
closed = 1;
nodes = (
(589,309,l),
(614,381,o),
(681,433,o),
(761,433,cs),
(841,433,o),
(909,381,o),
(933,309,c)
);
}
);
width = 1073;
},
{
anchors = (
{
name = b.uni0326;
position = "{330, 0}";
},
{
name = b.uni0328_1;
position = "{420, 10}";
},
{
name = t.uni0308_2;
position = "{330, 500}";
},
{
name = m.uni0335_3;
position = "{330, 250}";
}
);
layerId = "445F1214-24C3-4409-A842-6A76E99C229F";
shapes = (
{
closed = 1;
nodes = (
(70,108,o),
(188,-10,o),
(330,-10,cs),
(449,-10,o),
(550,71,o),
(581,181,c),
(611,71,o),
(713,-10,o),
(831,-10,cs),
(946,-10,o),
(1045,66,o),
(1079,171,c),
(1059,171,l),
(1026,78,o),
(936,10,o),
(831,10,cs),
(694,10,o),
(591,119,o),
(591,255,c),
(1090,255,l),
(1090,263,l),
(1081,404,o),
(970,510,o),
(831,510,cs),
(713,510,o),
(611,429,o),
(581,319,c),
(550,429,o),
(449,510,o),
(330,510,cs),
(188,510,o),
(70,393,o),
(70,250,cs)
);
},
{
closed = 1;
nodes = (
(90,383,o),
(198,490,o),
(330,490,cs),
(463,490,o),
(570,383,o),
(570,250,cs),
(570,118,o),
(463,10,o),
(330,10,cs),
(198,10,o),
(90,118,o),
(90,250,cs)
);
},
{
closed = 1;
nodes = (
(593,275,l),
(608,398,o),
(706,490,o),
(831,490,cs),
(955,490,o),
(1056,396,o),
(1070,275,c)
);
}
);
width = 1155;
}
);
leftKerningGroup = a2;
rightKerningGroup = b;
unicode = 339;
},
{
glyphname = p;
layers = (
{
anchors = (
{
name = b.uni0326;
position = "{0, 0}";
},
{
name = b.uni0328_1;
position = "{0, 0}";
},
{
name = t.uni0308_2;
position = "{383, 500}";
},
{
name = m.uni0335_3;
position = "{0, 0}";
}
);
layerId = "388820D5-7EEF-4EDE-95C9-B421FC6E7F1D";
shapes = (
{
closed = 1;
nodes = (
(69,-250,l),
(254,-250,l),
(254,36,l),
(288,8,o),
(333,-10,o),
(385,-10,cs),
(520,-10,o),
(626,104,o),
(626,250,cs),
(626,396,o),
(520,510,o),
(385,510,cs),
(333,510,o),
(288,493,o),
(254,464,c),
(254,499,l),
(69,500,l)
);
},
{
closed = 1;
nodes = (
(244,306,o),
(288,349,o),
(343,349,cs),
(399,349,o),
(441,306,o),
(441,250,cs),
(441,194,o),
(399,151,o),
(343,151,cs),
(288,151,o),
(244,194,o),
(244,250,cs)
);
}
);
width = 661;
},
{
anchors = (
{
name = b.uni0326;
position = "{0, 0}";
},
{
name = b.uni0328_1;
position = "{0, 0}";
},
{
name = t.uni0308_2;
position = "{354, 500}";
},
{
name = m.uni0335_3;
position = "{0, 0}";
}
);
layerId = "9088FA62-0D59-4181-A049-8D6D4F8D84ED";
shapes = (
{
closed = 1;
nodes = (
(91,-250,l),
(169,-250,l),
(169,65,l),
(216,19,o),
(280,-10,o),
(351,-10,cs),
(495,-10,o),
(611,106,o),
(611,250,cs),
(611,394,o),
(495,510,o),
(351,510,cs),
(280,510,o),
(216,481,o),
(169,435,c),
(169,500,l),
(91,500,l)
);
},
{
closed = 1;
nodes = (
(169,351,o),
(250,433,o),
(351,433,cs),
(453,433,o),
(534,351,o),
(534,250,cs),
(534,149,o),
(453,68,o),
(351,68,cs),
(250,68,o),
(169,149,o),
(169,250,cs)
);
}
);
width = 668;
},
{
anchors = (
{
name = b.uni0326;
position = "{0, 0}";
},
{
name = b.uni0328_1;
position = "{0, 0}";
},
{
name = t.uni0308_2;
position = "{370, 500}";
},
{
name = m.uni0335_3;
position = "{0, 0}";
}
);
layerId = "445F1214-24C3-4409-A842-6A76E99C229F";
shapes = (
{
closed = 1;
nodes = (
(110,-250,l),
(130,-250,l),
(130,151,l),
(170,56,o),
(263,-10,o),
(370,-10,cs),
(513,-10,o),
(630,108,o),
(630,250,cs),
(630,393,o),
(513,510,o),
(370,510,cs),
(263,510,o),
(170,444,o),
(130,349,c),
(130,500,l),
(110,500,l)
);
},
{
closed = 1;
nodes = (
(130,383,o),
(238,490,o),
(370,490,cs),
(503,490,o),
(610,383,o),
(610,250,cs),
(610,118,o),
(503,10,o),
(370,10,cs),
(238,10,o),
(130,118,o),
(130,250,cs)
);
}
);
width = 700;
}
);
leftKerningGroup = m;
rightKerningGroup = b;
unicode = 112;
},
{
glyphname = thorn;
layers = (
{
layerId = "388820D5-7EEF-4EDE-95C9-B421FC6E7F1D";
shapes = (
{
closed = 1;
nodes = (
(76,-250,l),
(261,-250,l),
(261,35,l),
(295,6,o),
(339,-10,o),
(390,-10,cs),
(528,-10,o),
(631,104,o),
(631,250,cs),
(631,396,o),
(528,510,o),
(390,510,cs),
(339,510,o),
(295,494,o),
(261,465,c),
(261,750,l),
(76,750,l)
);
},
{
closed = 1;
nodes = (
(261,306,o),
(304,349,o),
(359,349,cs),
(415,349,o),
(459,306,o),
(459,250,cs),
(459,194,o),
(415,151,o),
(359,151,cs),
(304,151,o),
(261,194,o),
(261,250,cs)
);
}
);
width = 666;
},
{
layerId = "9088FA62-0D59-4181-A049-8D6D4F8D84ED";
shapes = (
{
closed = 1;
nodes = (
(99,-250,l),
(176,-250,l),
(176,65,l),
(224,19,o),
(288,-10,o),
(359,-10,cs),
(503,-10,o),
(619,106,o),
(619,250,cs),
(619,394,o),
(503,510,o),
(359,510,cs),
(288,510,o),
(224,481,o),
(176,435,c),
(176,750,l),
(99,750,l)
);
},
{
closed = 1;
nodes = (
(176,351,o),
(258,433,o),
(359,433,cs),
(459,433,o),
(541,351,o),
(541,250,cs),
(541,149,o),
(459,68,o),
(359,68,cs),
(258,68,o),
(176,149,o),
(176,250,cs)
);
}
);
width = 675;
},
{
layerId = "445F1214-24C3-4409-A842-6A76E99C229F";
shapes = (
{
closed = 1;
nodes = (
(118,-250,l),
(138,-250,l),
(138,150,l),
(176,56,o),
(269,-10,o),
(378,-10,cs),
(520,-10,o),
(638,108,o),
(638,250,cs),
(638,393,o),
(520,510,o),
(378,510,cs),
(269,510,o),
(176,444,o),
(138,350,c),
(138,750,l),
(118,750,l)
);
},
{
closed = 1;
nodes = (
(138,383,o),
(244,490,o),
(378,490,cs),
(510,490,o),
(618,383,o),
(618,250,cs),
(618,118,o),
(510,10,o),
(378,10,cs),
(244,10,o),
(138,118,o),
(138,250,cs)
);
}
);
width = 708;
}
);
rightKerningGroup = b;
unicode = 254;
},
{
glyphname = q;
layers = (
{
anchors = (
{
name = b.uni0326;
position = "{276, 0}";
},
{
name = b.uni0328_1;
position = "{0, 0}";
},
{
name = t.uni0308_2;
position = "{276, 500}";
},
{
name = m.uni0335_3;
position = "{0, 0}";
}
);
layerId = "388820D5-7EEF-4EDE-95C9-B421FC6E7F1D";
shapes = (
{
closed = 1;
nodes = (
(34,104,o),
(140,-10,o),
(276,-10,cs),
(329,-10,o),
(373,8,o),
(406,36,c),
(406,-48,ls),
(406,-161,o),
(504,-250,o),
(619,-250,cs),
(646,-250,o),
(673,-245,o),
(690,-240,c),
(690,-90,l),
(643,-90,ls),
(611,-90,o),
(591,-65,o),
(591,-25,cs),
(591,500,l),
(406,500,l),
(406,464,l),
(373,493,o),
(329,510,o),
(276,510,cs),
(140,510,o),
(34,396,o),
(34,250,cs)
);
},
{
closed = 1;
nodes = (
(219,306,o),
(263,349,o),
(319,349,cs),
(373,349,o),
(418,306,o),
(418,250,cs),
(418,194,o),
(373,151,o),
(319,151,cs),
(263,151,o),
(219,194,o),
(219,250,cs)
);
}
);
width = 661;
},
{
anchors = (
{
name = b.uni0326;
position = "{300, 0}";
},
{
name = b.uni0328_1;
position = "{0, 0}";
},
{
name = t.uni0308_2;
position = "{300, 500}";
},
{
name = m.uni0335_3;
position = "{0, 0}";
}
);
layerId = "9088FA62-0D59-4181-A049-8D6D4F8D84ED";
shapes = (
{
closed = 1;
nodes = (
(56,106,o),
(173,-10,o),
(316,-10,cs),
(388,-10,o),
(451,19,o),
(499,65,c),
(499,-109,ls),
(499,-188,o),
(565,-250,o),
(643,-250,cs),
(663,-250,o),
(683,-246,o),
(698,-240,c),
(698,-175,l),
(651,-175,ls),
(611,-175,o),
(576,-145,o),
(576,-99,cs),
(576,500,l),
(499,500,l),
(499,435,l),
(451,481,o),
(388,510,o),
(316,510,cs),
(173,510,o),
(56,394,o),
(56,250,cs)
);
},
{
closed = 1;
nodes = (
(134,351,o),
(215,433,o),
(316,433,cs),
(416,433,o),
(499,351,o),
(499,250,cs),
(499,149,o),
(416,68,o),
(316,68,cs),
(215,68,o),
(134,149,o),
(134,250,cs)
);
}
);
width = 668;
},
{
anchors = (
{
name = b.uni0326;
position = "{330, 0}";
},
{
name = b.uni0328_1;
position = "{0, 0}";
},
{
name = t.uni0308_2;
position = "{330, 500}";
},
{
name = m.uni0335_3;
position = "{0, 0}";
}
);
layerId = "445F1214-24C3-4409-A842-6A76E99C229F";
shapes = (
{
closed = 1;
nodes = (
(70,108,o),
(188,-10,o),
(330,-10,cs),
(438,-10,o),
(530,56,o),
(570,151,c),
(570,-141,ls),
(570,-201,o),
(619,-250,o),
(679,-250,cs),
(693,-250,o),
(710,-246,o),
(724,-240,c),
(724,-230,l),
(679,-230,ls),
(629,-230,o),
(590,-191,o),
(590,-141,cs),
(590,500,l),
(570,500,l),
(570,349,l),
(530,444,o),
(438,510,o),
(330,510,cs),
(188,510,o),
(70,393,o),
(70,250,cs)
);
},
{
closed = 1;
nodes = (
(90,383,o),
(198,490,o),
(330,490,cs),
(463,490,o),
(570,383,o),
(570,250,cs),
(570,118,o),
(463,10,o),
(330,10,cs),
(198,10,o),
(90,118,o),
(90,250,cs)
);
}
);
width = 700;
}
);
leftKerningGroup = a2;
unicode = 113;
},
{
glyphname = r;
layers = (
{
anchors = (
{
name = b.uni0326;
position = "{161, 0}";
},
{
name = b.uni0328_1;
position = "{0, 0}";
},
{
name = t.uni0308_2;
position = "{223, 500}";
},
{
name = m.uni0335_3;
position = "{0, 0}";
}
);
layerId = "388820D5-7EEF-4EDE-95C9-B421FC6E7F1D";
shapes = (
{
closed = 1;
nodes = (
(69,0,l),
(254,0,l),
(254,230,ls),
(254,309,o),
(305,355,o),
(379,355,cs),
(395,355,o),
(413,353,o),
(429,349,c),
(429,504,l),
(418,508,o),
(401,510,o),
(386,510,cs),
(331,510,o),
(285,480,o),
(254,430,c),
(254,500,l),
(69,500,l)
);
}
);
width = 423;
},
{
anchors = (
{
name = b.uni0326;
position = "{130, 0}";
},
{
name = b.uni0328_1;
position = "{0, 0}";
},
{
name = t.uni0308_2;
position = "{223, 500}";
},
{
name = m.uni0335_3;
position = "{0, 0}";
}
);
layerId = "9088FA62-0D59-4181-A049-8D6D4F8D84ED";
shapes = (
{
closed = 1;
nodes = (
(91,0,l),
(169,0,l),
(169,271,ls),
(169,363,o),
(244,433,o),
(335,433,cs),
(350,433,o),
(363,431,o),
(374,428,c),
(374,506,l),
(363,509,o),
(350,510,o),
(335,510,cs),
(264,510,o),
(206,479,o),
(169,429,c),
(169,500,l),
(91,500,l)
);
}
);
width = 380;
},
{
anchors = (
{
name = b.uni0326;
position = "{120, 0}";
},
{
name = b.uni0328_1;
position = "{0, 0}";
},
{
name = t.uni0308_2;
position = "{221, 500}";
},
{
name = m.uni0335_3;
position = "{0, 0}";
}
);
layerId = "445F1214-24C3-4409-A842-6A76E99C229F";
shapes = (
{
closed = 1;
nodes = (
(110,0,l),
(130,0,l),
(130,316,ls),
(130,413,o),
(209,490,o),
(305,490,cs),
(323,490,o),
(338,488,o),
(353,483,c),
(353,505,l),
(338,508,o),
(323,510,o),
(305,510,cs),
(229,510,o),
(161,465,o),
(130,401,c),
(130,500,l),
(110,500,l)
);
}
);
width = 368;
}
);
leftKerningGroup = r;
unicode = 114;
},
{
glyphname = rcaron;
layers = (
{
anchors = (
{
name = b.uni0326;
position = "{161, 0}";
},
{
name = b.uni0328_1;
position = "{0, 0}";
},
{
name = t.uni0308_2;
position = "{223, 750}";
},
{
name = m.uni0335_3;
position = "{0, 0}";
}
);
layerId = "388820D5-7EEF-4EDE-95C9-B421FC6E7F1D";
shapes = (
{
closed = 1;
nodes = (
(173,563,l),
(273,563,l),
(405,750,l),
(293,750,l),
(223,664,l),
(154,750,l),
(41,750,l)
);
},
{
closed = 1;
nodes = (
(69,0,l),
(254,0,l),
(254,230,ls),
(254,309,o),
(305,355,o),
(379,355,cs),
(395,355,o),
(413,353,o),
(429,349,c),
(429,504,l),
(418,508,o),
(401,510,o),
(386,510,cs),
(331,510,o),
(285,480,o),
(254,430,c),
(254,500,l),
(69,500,l)
);
}
);
width = 423;
},
{
anchors = (
{
name = b.uni0326;
position = "{130, 0}";
},
{
name = b.uni0328_1;
position = "{0, 0}";
},
{
name = t.uni0308_2;
position = "{223, 750}";
},
{
name = m.uni0335_3;
position = "{0, 0}";
}
);
layerId = "9088FA62-0D59-4181-A049-8D6D4F8D84ED";
shapes = (
{
closed = 1;
nodes = (
(183,565,l),
(263,565,l),
(361,750,l),
(300,750,l),
(223,618,l),
(145,750,l),
(85,750,l)
);
},
{
closed = 1;
nodes = (
(91,0,l),
(169,0,l),
(169,271,ls),
(169,363,o),
(244,433,o),
(335,433,cs),
(350,433,o),
(363,431,o),
(374,428,c),
(374,506,l),
(363,509,o),
(350,510,o),
(335,510,cs),
(264,510,o),
(206,479,o),
(169,429,c),
(169,500,l),
(91,500,l)
);
}
);
width = 380;
},
{
anchors = (
{
name = b.uni0326;
position = "{120, 0}";
},
{
name = b.uni0328_1;
position = "{0, 0}";
},
{
name = t.uni0308_2;
position = "{221, 750}";
},
{
name = m.uni0335_3;
position = "{0, 0}";
}
);
layerId = "445F1214-24C3-4409-A842-6A76E99C229F";
shapes = (
{
closed = 1;
nodes = (
(208,569,l),
(233,569,l),
(330,750,l),
(299,750,l),
(221,593,l),
(141,750,l),
(111,750,l)
);
},
{
closed = 1;
nodes = (
(110,0,l),
(130,0,l),
(130,316,ls),
(130,413,o),
(209,490,o),
(305,490,cs),
(323,490,o),
(338,488,o),
(353,483,c),
(353,505,l),
(338,508,o),
(323,510,o),
(305,510,cs),
(229,510,o),
(161,465,o),
(130,401,c),
(130,500,l),
(110,500,l)
);
}
);
width = 368;
}
);
unicode = 345;
},
{
glyphname = rcommaaccent;
layers = (
{
anchors = (
{
name = b.uni0326;
position = "{161, 0}";
},
{
name = b.uni0328_1;
position = "{0, 0}";
},
{
name = t.uni0308_2;
position = "{223, 500}";
},
{
name = m.uni0335_3;
position = "{0, 0}";
}
);
layerId = "388820D5-7EEF-4EDE-95C9-B421FC6E7F1D";
shapes = (
{
closed = 1;
nodes = (
(19,-254,l),
(101,-254,l),
(236,-60,l),
(86,-60,l)
);
},
{
closed = 1;
nodes = (
(69,0,l),
(254,0,l),
(254,230,ls),
(254,309,o),
(305,355,o),
(379,355,cs),
(395,355,o),
(413,353,o),
(429,349,c),
(429,504,l),
(418,508,o),
(401,510,o),
(386,510,cs),
(331,510,o),
(285,480,o),
(254,430,c),
(254,500,l),
(69,500,l)
);
}
);
width = 423;
},
{
anchors = (
{
name = b.uni0326;
position = "{130, 0}";
},
{
name = b.uni0328_1;
position = "{0, 0}";
},
{
name = t.uni0308_2;
position = "{223, 500}";
},
{
name = m.uni0335_3;
position = "{0, 0}";
}
);
layerId = "9088FA62-0D59-4181-A049-8D6D4F8D84ED";
shapes = (
{
closed = 1;
nodes = (
(6,-236,l),
(61,-236,l),
(179,-60,l),
(81,-60,l)
);
},
{
closed = 1;
nodes = (
(91,0,l),
(169,0,l),
(169,271,ls),
(169,363,o),
(244,433,o),
(335,433,cs),
(350,433,o),
(363,431,o),
(374,428,c),
(374,506,l),
(363,509,o),
(350,510,o),
(335,510,cs),
(264,510,o),
(206,479,o),
(169,429,c),
(169,500,l),
(91,500,l)
);
}
);
width = 380;
},
{
anchors = (
{
name = b.uni0326;
position = "{120, 0}";
},
{
name = b.uni0328_1;
position = "{0, 0}";
},
{
name = t.uni0308_2;
position = "{221, 500}";
},
{
name = m.uni0335_3;
position = "{0, 0}";
}
);
layerId = "445F1214-24C3-4409-A842-6A76E99C229F";
shapes = (
{
closed = 1;
nodes = (
(26,-250,l),
(49,-250,l),
(131,-60,l),
(109,-60,l)
);
},
{
closed = 1;
nodes = (
(110,0,l),
(130,0,l),
(130,316,ls),
(130,413,o),
(209,490,o),
(305,490,cs),
(323,490,o),
(338,488,o),
(353,483,c),
(353,505,l),
(338,508,o),
(323,510,o),
(305,510,cs),
(229,510,o),
(161,465,o),
(130,401,c),
(130,500,l),
(110,500,l)
);
}
);
width = 368;
}
);
unicode = 343;
},
{
glyphname = s;
layers = (
{
anchors = (
{
name = b.uni0326;
position = "{240, 0}";
},
{
name = b.uni0328_1;
position = "{0, 0}";
},
{
name = t.uni0308_2;
position = "{244, 500}";
},
{
name = m.uni0335_3;
position = "{0, 0}";
}
);
layerId = "388820D5-7EEF-4EDE-95C9-B421FC6E7F1D";
shapes = (
{
closed = 1;
nodes = (
(19,113,l),
(51,30,o),
(150,-10,o),
(241,-10,cs),
(363,-10,o),
(431,63,o),
(431,158,cs),
(431,261,o),
(344,303,o),
(271,331,c),
(244,343,o),
(230,348,o),
(230,359,cs),
(230,368,o),
(238,378,o),
(261,378,cs),
(294,378,o),
(324,359,o),
(341,343,c),
(423,449,l),
(379,485,o),
(319,510,o),
(248,510,cs),
(120,510,o),
(49,428,o),
(49,344,cs),
(49,238,o),
(165,206,o),
(210,189,cs),
(251,174,o),
(261,163,o),
(261,151,cs),
(261,139,o),
(249,131,o),
(228,131,cs),
(209,131,o),
(176,136,o),
(149,180,c)
);
}
);
width = 460;
},
{
anchors = (
{
name = b.uni0326;
position = "{215, 0}";
},
{
name = b.uni0328_1;
position = "{0, 0}";
},
{
name = t.uni0308_2;
position = "{218, 500}";
},
{
name = m.uni0335_3;
position = "{0, 0}";
}
);
layerId = "9088FA62-0D59-4181-A049-8D6D4F8D84ED";
shapes = (
{
closed = 1;
nodes = (
(41,99,l),
(60,39,o),
(135,-10,o),
(215,-10,cs),
(303,-10,o),
(375,49,o),
(375,135,cs),
(375,225,o),
(300,260,o),
(235,286,c),
(174,313,o),
(143,326,o),
(143,370,cs),
(143,413,o),
(171,433,o),
(213,433,cs),
(245,433,o),
(274,419,o),
(288,393,c),
(355,428,l),
(336,473,o),
(273,510,o),
(209,510,cs),
(135,510,o),
(64,459,o),
(64,368,cs),
(64,289,o),
(116,249,o),
(205,215,cs),
(265,191,o),
(298,175,o),
(298,135,cs),
(298,91,o),
(260,66,o),
(215,66,cs),
(169,66,o),
(124,93,o),
(116,129,c)
);
}
);
width = 414;
},
{
anchors = (
{
name = b.uni0326;
position = "{220, 0}";
},
{
name = b.uni0328_1;
position = "{0, 0}";
},
{
name = t.uni0308_2;
position = "{224, 500}";
},
{
name = m.uni0335_3;
position = "{0, 0}";
}
);
layerId = "445F1214-24C3-4409-A842-6A76E99C229F";
shapes = (
{
closed = 1;
nodes = (
(60,86,l),
(80,33,o),
(150,-10,o),
(221,-10,cs),
(303,-10,o),
(368,45,o),
(368,115,cs),
(368,204,o),
(298,233,o),
(229,261,cs),
(166,288,o),
(105,313,o),
(105,385,cs),
(105,459,o),
(168,489,o),
(223,489,cs),
(261,489,o),
(300,474,o),
(324,440,c),
(340,453,l),
(318,483,o),
(271,510,o),
(221,510,cs),
(164,510,o),
(85,475,o),
(85,383,cs),
(85,296,o),
(155,268,o),
(223,241,cs),
(286,216,o),
(348,190,o),
(348,120,cs),
(348,50,o),
(288,10,o),
(221,10,cs),
(158,10,o),
(95,48,o),
(79,93,c)
);
}
);
width = 428;
}
);
unicode = 115;
},
{
glyphname = scedilla;
layers = (
{
anchors = (
{
name = b.uni0326;
position = "{246, -260}";
},
{
name = b.uni0328_1;
position = "{0, 0}";
},
{
name = t.uni0308_2;
position = "{244, 500}";
},
{
name = m.uni0335_3;
position = "{0, 0}";
}
);
layerId = "388820D5-7EEF-4EDE-95C9-B421FC6E7F1D";
shapes = (
{
closed = 1;
nodes = (
(19,113,l),
(46,44,o),
(119,5,o),
(195,-6,c),
(146,-94,l),
(208,-129,l),
(248,-106,o),
(279,-115,o),
(279,-146,cs),
(279,-165,o),
(264,-180,o),
(246,-180,cs),
(230,-180,o),
(213,-169,o),
(205,-154,c),
(128,-179,l),
(140,-224,o),
(193,-260,o),
(246,-260,cs),
(309,-260,o),
(359,-210,o),
(359,-146,cs),
(359,-86,o),
(310,-45,o),
(248,-55,c),
(278,-8,l),
(376,5,o),
(431,73,o),
(431,158,cs),
(431,261,o),
(344,303,o),
(271,331,c),
(244,343,o),
(230,348,o),
(230,359,cs),
(230,368,o),
(238,378,o),
(261,378,cs),
(294,378,o),
(324,359,o),
(341,343,c),
(423,449,l),
(379,485,o),
(319,510,o),
(248,510,cs),
(120,510,o),
(49,428,o),
(49,344,cs),
(49,238,o),
(165,206,o),
(210,189,cs),
(251,174,o),
(261,163,o),
(261,151,cs),
(261,139,o),
(249,131,o),
(228,131,cs),
(209,131,o),
(176,136,o),
(149,180,c)
);
}
);
width = 460;
},
{
anchors = (
{
name = b.uni0326;
position = "{228, -260}";
},
{
name = b.uni0328_1;
position = "{0, 0}";
},
{
name = t.uni0308_2;
position = "{218, 500}";
},
{
name = m.uni0335_3;
position = "{0, 0}";
}
);
layerId = "9088FA62-0D59-4181-A049-8D6D4F8D84ED";
shapes = (
{
closed = 1;
nodes = (
(113,-195,l),
(131,-231,o),
(183,-260,o),
(228,-260,cs),
(286,-260,o),
(330,-214,o),
(330,-156,cs),
(330,-94,o),
(275,-53,o),
(206,-66,c),
(234,-9,l),
(313,-1,o),
(375,55,o),
(375,135,cs),
(375,225,o),
(300,260,o),
(235,286,c),
(174,313,o),
(143,326,o),
(143,370,cs),
(143,413,o),
(171,433,o),
(213,433,cs),
(245,433,o),
(274,419,o),
(288,393,c),
(355,428,l),
(336,473,o),
(273,510,o),
(209,510,cs),
(135,510,o),
(64,459,o),
(64,368,cs),
(64,289,o),
(116,249,o),
(205,215,cs),
(265,191,o),
(298,175,o),
(298,135,cs),
(298,91,o),
(260,66,o),
(215,66,cs),
(169,66,o),
(124,93,o),
(116,129,c),
(41,99,l),
(58,46,o),
(119,1,o),
(188,-8,c),
(148,-88,l),
(185,-113,l),
(240,-91,o),
(284,-111,o),
(284,-156,cs),
(284,-189,o),
(259,-214,o),
(228,-214,cs),
(203,-214,o),
(170,-198,o),
(155,-178,c)
);
}
);
width = 414;
},
{
anchors = (
{
name = b.uni0326;
position = "{238, -260}";
},
{
name = b.uni0328_1;
position = "{0, 0}";
},
{
name = t.uni0308_2;
position = "{224, 500}";
},
{
name = m.uni0335_3;
position = "{0, 0}";
}
);
layerId = "445F1214-24C3-4409-A842-6A76E99C229F";
shapes = (
{
closed = 1;
nodes = (
(125,-210,l),
(149,-238,o),
(199,-260,o),
(238,-260,cs),
(290,-260,o),
(331,-218,o),
(331,-165,cs),
(331,-99,o),
(273,-60,o),
(198,-76,c),
(226,-10,l),
(305,-8,o),
(368,46,o),
(368,115,cs),
(368,204,o),
(298,233,o),
(229,261,cs),
(166,288,o),
(105,313,o),
(105,385,cs),
(105,459,o),
(168,489,o),
(223,489,cs),
(261,489,o),
(300,474,o),
(324,440,c),
(340,453,l),
(318,483,o),
(271,510,o),
(221,510,cs),
(164,510,o),
(85,475,o),
(85,383,cs),
(85,296,o),
(155,268,o),
(223,241,cs),
(286,216,o),
(348,190,o),
(348,120,cs),
(348,50,o),
(288,10,o),
(221,10,cs),
(158,10,o),
(95,48,o),
(79,93,c),
(60,86,l),
(79,36,o),
(140,-4,o),
(206,-9,c),
(173,-83,l),
(190,-99,l),
(259,-79,o),
(311,-108,o),
(311,-165,cs),
(311,-208,o),
(280,-240,o),
(238,-240,cs),
(204,-240,o),
(160,-221,o),
(140,-198,c)
);
}
);
width = 428;
}
);
unicode = 351;
},
{
glyphname = germandbls;
layers = (
{
layerId = "388820D5-7EEF-4EDE-95C9-B421FC6E7F1D";
shapes = (
{
closed = 1;
nodes = (
(76,0,l),
(261,0,l),
(261,505,ls),
(261,554,o),
(304,589,o),
(361,589,cs),
(410,589,o),
(446,564,o),
(446,529,cs),
(446,491,o),
(410,458,o),
(369,458,cs),
(358,458,l),
(358,308,l),
(386,308,ls),
(438,308,o),
(478,270,o),
(478,225,cs),
(478,188,o),
(446,161,o),
(416,160,c),
(341,160,l),
(341,0,l),
(453,0,l),
(574,-10,o),
(663,90,o),
(663,213,cs),
(663,289,o),
(628,353,o),
(571,398,c),
(603,434,o),
(620,480,o),
(620,531,cs),
(620,656,o),
(511,750,o),
(359,750,cs),
(199,750,o),
(76,646,o),
(76,505,cs)
);
}
);
width = 719;
},
{
layerId = "9088FA62-0D59-4181-A049-8D6D4F8D84ED";
shapes = (
{
closed = 1;
nodes = (
(99,0,l),
(176,0,l),
(176,538,ls),
(176,620,o),
(244,681,o),
(334,681,cs),
(423,681,o),
(484,624,o),
(484,545,cs),
(484,466,o),
(423,404,o),
(345,404,cs),
(320,404,l),
(320,339,l),
(379,339,ls),
(459,339,o),
(523,276,o),
(523,198,cs),
(523,121,o),
(461,80,o),
(393,80,cs),
(260,80,l),
(260,0,l),
(405,0,ls),
(513,0,o),
(601,80,o),
(601,194,cs),
(601,279,o),
(551,349,o),
(478,383,c),
(526,420,o),
(558,479,o),
(558,546,cs),
(558,664,o),
(464,750,o),
(334,750,cs),
(200,750,o),
(99,660,o),
(99,538,cs)
);
}
);
width = 679;
},
{
layerId = "445F1214-24C3-4409-A842-6A76E99C229F";
shapes = (
{
closed = 1;
nodes = (
(118,0,l),
(138,0,l),
(138,554,ls),
(138,656,o),
(218,730,o),
(326,730,cs),
(434,730,o),
(511,655,o),
(511,554,cs),
(511,453,o),
(434,375,o),
(338,375,cs),
(305,375,l),
(305,355,l),
(380,355,ls),
(478,355,o),
(554,279,o),
(554,183,cs),
(554,86,o),
(475,20,o),
(386,20,cs),
(229,20,l),
(229,0,l),
(388,0,ls),
(486,0,o),
(574,74,o),
(574,183,cs),
(574,278,o),
(508,355,o),
(416,371,c),
(484,403,o),
(531,471,o),
(531,555,cs),
(531,668,o),
(445,750,o),
(325,750,cs),
(206,750,o),
(118,668,o),
(118,554,cs)
);
}
);
width = 671;
}
);
unicode = 223;
},
{
glyphname = t;
layers = (
{
anchors = (
{
name = b.uni0326;
position = "{305, 0}";
},
{
name = b.uni0328_1;
position = "{0, 0}";
},
{
name = t.uni0308_2;
position = "{198, 630}";
},
{
name = m.uni0335_3;
position = "{203, 250}";
}
);
layerId = "388820D5-7EEF-4EDE-95C9-B421FC6E7F1D";
shapes = (
{
closed = 1;
nodes = (
(93,193,ls),
(93,79,o),
(190,-10,o),
(305,-10,cs),
(341,-10,o),
(378,-3,o),
(390,6,c),
(390,150,l),
(329,150,ls),
(298,150,o),
(278,175,o),
(278,215,cs),
(278,363,l),
(393,363,l),
(393,500,l),
(278,500,l),
(278,630,l),
(93,630,l),
(93,500,l),
(9,500,l),
(9,363,l),
(93,363,l)
);
}
);
width = 411;
},
{
anchors = (
{
name = b.uni0326;
position = "{254, 0}";
},
{
name = b.uni0328_1;
position = "{0, 0}";
},
{
name = t.uni0308_2;
position = "{153, 630}";
},
{
name = m.uni0335_3;
position = "{171, 250}";
}
);
layerId = "9088FA62-0D59-4181-A049-8D6D4F8D84ED";
shapes = (
{
closed = 1;
nodes = (
(110,131,ls),
(110,53,o),
(176,-10,o),
(254,-10,cs),
(279,-10,o),
(306,-3,o),
(320,6,c),
(320,65,l),
(263,65,ls),
(223,65,o),
(188,95,o),
(188,141,cs),
(188,425,l),
(321,425,l),
(321,500,l),
(188,500,l),
(188,630,l),
(110,630,l),
(110,500,l),
(26,500,l),
(26,425,l),
(110,425,l)
);
}
);
width = 363;
},
{
anchors = (
{
name = b.uni0326;
position = "{238, 0}";
},
{
name = b.uni0328_1;
position = "{0, 0}";
},
{
name = t.uni0308_2;
position = "{140, 630}";
},
{
name = m.uni0335_3;
position = "{169, 250}";
}
);
layerId = "445F1214-24C3-4409-A842-6A76E99C229F";
shapes = (
{
closed = 1;
nodes = (
(129,99,ls),
(129,39,o),
(178,-10,o),
(238,-10,cs),
(255,-10,o),
(280,-3,o),
(293,6,c),
(293,10,l),
(238,10,ls),
(188,10,o),
(149,49,o),
(149,99,cs),
(149,480,l),
(295,480,l),
(295,500,l),
(149,500,l),
(149,630,l),
(129,630,l),
(129,500,l),
(45,500,l),
(45,480,l),
(129,480,l)
);
}
);
width = 350;
}
);
leftKerningGroup = f2;
rightKerningGroup = f;
unicode = 116;
},
{
color = (255, 153, 153, 255);
glyphname = tbar;
layers = (
{
anchors = (
{
name = b.uni0326;
position = "{305, 0}";
},
{
name = b.uni0328_1;
position = "{0, 0}";
},
{
name = t.uni0308_2;
position = "{198, 656}";
},
{
name = m.uni0335_3;
position = "{203, 250}";
}
);
layerId = "388820D5-7EEF-4EDE-95C9-B421FC6E7F1D";
shapes = (
{
closed = 1;
nodes = (
(19,206,l),
(93,206,l),
(93,193,ls),
(93,79,o),
(190,-10,o),
(305,-10,cs),
(341,-10,o),
(378,-3,o),
(390,6,c),
(390,150,l),
(329,150,ls),
(299,150,o),
(278,174,o),
(278,213,cs),
(278,226,l),
(263,206,l),
(386,206,l),
(386,294,l),
(278,294,l),
(278,363,l),
(393,363,l),
(393,500,l),
(278,500,l),
(278,630,l),
(93,630,l),
(93,500,l),
(9,500,l),
(9,363,l),
(93,363,l),
(93,294,l),
(19,294,l)
);
}
);
width = 411;
},
{
anchors = (
{
name = b.uni0326;
position = "{254, 0}";
},
{
name = b.uni0328_1;
position = "{0, 0}";
},
{
name = t.uni0308_2;
position = "{153, 658}";
},
{
name = m.uni0335_3;
position = "{171, 250}";
}
);
layerId = "9088FA62-0D59-4181-A049-8D6D4F8D84ED";
shapes = (
{
closed = 1;
nodes = (
(25,214,l),
(110,214,l),
(110,131,ls),
(110,53,o),
(176,-10,o),
(254,-10,cs),
(279,-10,o),
(306,-3,o),
(320,6,c),
(320,65,l),
(263,65,ls),
(223,65,o),
(188,95,o),
(188,141,cs),
(188,229,l),
(173,214,l),
(315,214,l),
(315,289,l),
(188,289,l),
(188,425,l),
(321,425,l),
(321,500,l),
(188,500,l),
(188,630,l),
(110,630,l),
(110,500,l),
(26,500,l),
(26,425,l),
(110,425,l),
(110,289,l),
(25,289,l)
);
}
);
width = 363;
},
{
anchors = (
{
name = b.uni0326;
position = "{238, 0}";
},
{
name = b.uni0328_1;
position = "{0, 0}";
},
{
name = t.uni0308_2;
position = "{140, 658}";
},
{
name = m.uni0335_3;
position = "{169, 250}";
}
);
layerId = "445F1214-24C3-4409-A842-6A76E99C229F";
shapes = (
{
closed = 1;
nodes = (
(44,240,l),
(129,240,l),
(129,99,ls),
(129,39,o),
(178,-10,o),
(238,-10,cs),
(255,-10,o),
(280,-3,o),
(293,6,c),
(293,10,l),
(238,10,ls),
(188,10,o),
(149,49,o),
(149,99,cs),
(149,255,l),
(134,240,l),
(294,240,l),
(294,260,l),
(149,260,l),
(149,480,l),
(295,480,l),
(295,500,l),
(149,500,l),
(149,630,l),
(129,630,l),
(129,500,l),
(45,500,l),
(45,480,l),
(129,480,l),
(129,260,l),
(44,260,l)
);
}
);
width = 350;
}
);
unicode = 359;
},
{
glyphname = tcaron;
layers = (
{
anchors = (
{
name = b.uni0326;
position = "{303, 0}";
},
{
name = b.uni0328_1;
position = "{0, 0}";
},
{
name = t.uni0308_2;
position = "{185, 680}";
},
{
name = m.uni0335_3;
position = "{185, 250}";
}
);
layerId = "388820D5-7EEF-4EDE-95C9-B421FC6E7F1D";
shapes = (
{
closed = 1;
nodes = (
(311,538,l),
(401,538,l),
(543,840,l),
(398,840,l)
);
},
{
closed = 1;
nodes = (
(93,193,ls),
(93,79,o),
(190,-10,o),
(305,-10,cs),
(341,-10,o),
(378,-3,o),
(390,6,c),
(390,150,l),
(329,150,ls),
(298,150,o),
(278,175,o),
(278,215,cs),
(278,363,l),
(393,363,l),
(393,500,l),
(278,500,l),
(278,630,l),
(93,630,l),
(93,500,l),
(9,500,l),
(9,363,l),
(93,363,l)
);
}
);
width = 504;
},
{
anchors = (
{
name = b.uni0326;
position = "{264, 0}";
},
{
name = b.uni0328_1;
position = "{0, 0}";
},
{
name = t.uni0308_2;
position = "{173, 680}";
},
{
name = m.uni0335_3;
position = "{173, 250}";
}
);
layerId = "9088FA62-0D59-4181-A049-8D6D4F8D84ED";
shapes = (
{
closed = 1;
nodes = (
(290,539,l),
(346,539,l),
(460,840,l),
(371,840,l)
);
},
{
closed = 1;
nodes = (
(110,131,ls),
(110,53,o),
(176,-10,o),
(254,-10,cs),
(279,-10,o),
(306,-3,o),
(320,6,c),
(320,65,l),
(263,65,ls),
(223,65,o),
(188,95,o),
(188,141,cs),
(188,425,l),
(321,425,l),
(321,500,l),
(188,500,l),
(188,630,l),
(110,630,l),
(110,500,l),
(26,500,l),
(26,425,l),
(110,425,l)
);
}
);
width = 454;
},
{
anchors = (
{
name = b.uni0326;
position = "{248, 0}";
},
{
name = b.uni0328_1;
position = "{0, 0}";
},
{
name = t.uni0308_2;
position = "{168, 680}";
},
{
name = m.uni0335_3;
position = "{168, 250}";
}
);
layerId = "445F1214-24C3-4409-A842-6A76E99C229F";
shapes = (
{
closed = 1;
nodes = (
(254,538,l),
(275,538,l),
(369,840,l),
(346,840,l)
);
},
{
closed = 1;
nodes = (
(129,99,ls),
(129,39,o),
(178,-10,o),
(238,-10,cs),
(255,-10,o),
(280,-3,o),
(293,6,c),
(293,10,l),
(238,10,ls),
(188,10,o),
(149,49,o),
(149,99,cs),
(149,480,l),
(295,480,l),
(295,500,l),
(149,500,l),
(149,630,l),
(129,630,l),
(129,500,l),
(45,500,l),
(45,480,l),
(129,480,l)
);
}
);
width = 408;
}
);
leftKerningGroup = f2;
rightKerningGroup = f;
unicode = 357;
},
{
glyphname = tcedilla;
layers = (
{
anchors = (
{
name = b.uni0326;
position = "{311, -260}";
},
{
name = b.uni0328_1;
position = "{0, 0}";
},
{
name = t.uni0308_2;
position = "{198, 656}";
},
{
name = m.uni0335_3;
position = "{203, 250}";
}
);
layerId = "388820D5-7EEF-4EDE-95C9-B421FC6E7F1D";
shapes = (
{
closed = 1;
nodes = (
(93,193,ls),
(93,94,o),
(166,14,o),
(261,-5,c),
(211,-94,l),
(273,-129,l),
(313,-106,o),
(344,-115,o),
(344,-146,cs),
(344,-165,o),
(329,-180,o),
(311,-180,cs),
(295,-180,o),
(278,-169,o),
(270,-154,c),
(193,-179,l),
(205,-224,o),
(258,-260,o),
(311,-260,cs),
(374,-260,o),
(424,-210,o),
(424,-146,cs),
(424,-86,o),
(375,-45,o),
(313,-55,c),
(343,-8,l),
(364,-5,o),
(383,1,o),
(390,6,c),
(390,150,l),
(329,150,ls),
(298,150,o),
(278,175,o),
(278,215,cs),
(278,363,l),
(393,363,l),
(393,500,l),
(278,500,l),
(278,630,l),
(93,630,l),
(93,500,l),
(9,500,l),
(9,363,l),
(93,363,l)
);
}
);
width = 411;
},
{
anchors = (
{
name = b.uni0326;
position = "{266, -260}";
},
{
name = b.uni0328_1;
position = "{0, 0}";
},
{
name = t.uni0308_2;
position = "{153, 658}";
},
{
name = m.uni0335_3;
position = "{171, 250}";
}
);
layerId = "9088FA62-0D59-4181-A049-8D6D4F8D84ED";
shapes = (
{
closed = 1;
nodes = (
(110,131,ls),
(110,63,o),
(161,5,o),
(226,-8,c),
(186,-88,l),
(224,-113,l),
(279,-91,o),
(323,-111,o),
(323,-156,cs),
(323,-189,o),
(298,-214,o),
(266,-214,cs),
(241,-214,o),
(209,-198,o),
(194,-178,c),
(151,-195,l),
(170,-231,o),
(221,-260,o),
(266,-260,cs),
(325,-260,o),
(369,-214,o),
(369,-156,cs),
(369,-94,o),
(314,-53,o),
(245,-66,c),
(274,-9,l),
(293,-6,o),
(310,0,o),
(320,6,c),
(320,65,l),
(263,65,ls),
(223,65,o),
(188,95,o),
(188,141,cs),
(188,425,l),
(321,425,l),
(321,500,l),
(188,500,l),
(188,630,l),
(110,630,l),
(110,500,l),
(26,500,l),
(26,425,l),
(110,425,l)
);
}
);
width = 363;
},
{
anchors = (
{
name = b.uni0326;
position = "{255, -260}";
},
{
name = b.uni0328_1;
position = "{0, 0}";
},
{
name = t.uni0308_2;
position = "{140, 658}";
},
{
name = m.uni0335_3;
position = "{169, 250}";
}
);
layerId = "445F1214-24C3-4409-A842-6A76E99C229F";
shapes = (
{
closed = 1;
nodes = (
(143,-210,l),
(166,-238,o),
(216,-260,o),
(255,-260,cs),
(308,-260,o),
(349,-218,o),
(349,-165,cs),
(349,-99,o),
(290,-60,o),
(215,-76,c),
(244,-10,l),
(260,-9,o),
(281,-1,o),
(293,6,c),
(293,10,l),
(238,10,ls),
(188,10,o),
(149,49,o),
(149,99,cs),
(149,480,l),
(295,480,l),
(295,500,l),
(149,500,l),
(149,630,l),
(129,630,l),
(129,500,l),
(45,500,l),
(45,480,l),
(129,480,l),
(129,99,ls),
(129,44,o),
(170,-3,o),
(224,-9,c),
(190,-83,l),
(208,-99,l),
(276,-79,o),
(329,-108,o),
(329,-165,cs),
(329,-208,o),
(298,-240,o),
(255,-240,cs),
(221,-240,o),
(178,-221,o),
(158,-198,c)
);
}
);
width = 350;
}
);
unicode = 355;
},
{
glyphname = u;
layers = (
{
anchors = (
{
name = b.uni0326;
position = "{310, 0}";
},
{
name = b.uni0328_1;
position = "{480, 33}";
},
{
name = t.uni0308_2;
position = "{314, 500}";
},
{
name = m.uni0335_3;
position = "{0, 0}";
}
);
layerId = "388820D5-7EEF-4EDE-95C9-B421FC6E7F1D";
shapes = (
{
closed = 1;
nodes = (
(59,196,ls),
(59,70,o),
(145,-10,o),
(309,-10,cs),
(474,-10,o),
(560,70,o),
(560,196,cs),
(560,500,l),
(375,500,l),
(375,220,ls),
(375,181,o),
(346,151,o),
(309,151,cs),
(273,151,o),
(245,181,o),
(245,220,cs),
(245,500,l),
(59,500,l)
);
}
);
width = 620;
},
{
anchors = (
{
name = b.uni0326;
position = "{263, 0}";
},
{
name = b.uni0328_1;
position = "{385, 31}";
},
{
name = t.uni0308_2;
position = "{265, 500}";
},
{
name = m.uni0335_3;
position = "{0, 0}";
}
);
layerId = "9088FA62-0D59-4181-A049-8D6D4F8D84ED";
shapes = (
{
closed = 1;
nodes = (
(75,180,ls),
(75,64,o),
(150,-10,o),
(263,-10,cs),
(374,-10,o),
(450,64,o),
(450,180,cs),
(450,500,l),
(374,500,l),
(374,189,ls),
(374,114,o),
(328,68,o),
(263,68,cs),
(199,68,o),
(151,114,o),
(151,189,cs),
(151,500,l),
(75,500,l)
);
}
);
width = 524;
},
{
anchors = (
{
name = b.uni0326;
position = "{268, 0}";
},
{
name = b.uni0328_1;
position = "{365, 24}";
},
{
name = t.uni0308_2;
position = "{268, 500}";
},
{
name = m.uni0335_3;
position = "{0, 0}";
}
);
layerId = "445F1214-24C3-4409-A842-6A76E99C229F";
shapes = (
{
closed = 1;
nodes = (
(93,184,ls),
(93,78,o),
(171,-10,o),
(268,-10,cs),
(365,-10,o),
(444,78,o),
(444,184,cs),
(444,500,l),
(424,500,l),
(424,184,ls),
(424,88,o),
(354,10,o),
(268,10,cs),
(183,10,o),
(113,88,o),
(113,184,cs),
(113,500,l),
(93,500,l)
);
}
);
width = 538;
}
);
leftKerningGroup = r;
unicode = 117;
},
{
glyphname = uogonek;
layers = (
{
anchors = (
{
name = b.uni0326;
position = "{310, 0}";
},
{
name = b.uni0328_1;
position = "{480, 33}";
},
{
name = t.uni0308_2;
position = "{314, 500}";
},
{
name = m.uni0335_3;
position = "{0, 0}";
}
);
layerId = "388820D5-7EEF-4EDE-95C9-B421FC6E7F1D";
shapes = (
{
closed = 1;
nodes = (
(59,196,ls),
(59,76,o),
(135,0,o),
(283,-10,c),
(286,-10,o),
(290,-9,o),
(294,-8,c),
(285,1,l),
(258,-23,o),
(240,-54,o),
(240,-93,cs),
(240,-160,o),
(285,-219,o),
(373,-225,cs),
(430,-230,o),
(495,-205,o),
(538,-161,c),
(480,-81,l),
(464,-116,o),
(434,-139,o),
(403,-139,cs),
(371,-139,o),
(351,-119,o),
(351,-76,cs),
(351,-8,o),
(431,1,o),
(475,30,c),
(528,68,o),
(560,125,o),
(560,196,cs),
(560,500,l),
(375,500,l),
(375,220,ls),
(375,181,o),
(346,151,o),
(309,151,cs),
(273,151,o),
(245,181,o),
(245,220,cs),
(245,500,l),
(59,500,l)
);
}
);
width = 620;
},
{
anchors = (
{
name = b.uni0326;
position = "{263, 0}";
},
{
name = b.uni0328_1;
position = "{385, 31}";
},
{
name = t.uni0308_2;
position = "{265, 500}";
},
{
name = m.uni0335_3;
position = "{0, 0}";
}
);
layerId = "9088FA62-0D59-4181-A049-8D6D4F8D84ED";
shapes = (
{
closed = 1;
nodes = (
(75,180,ls),
(75,64,o),
(150,-10,o),
(263,-10,c),
(269,-10,o),
(276,-9,o),
(283,-8,c),
(279,1,l),
(234,-35,o),
(204,-74,o),
(204,-124,cs),
(204,-188,o),
(248,-225,o),
(315,-228,cs),
(365,-230,o),
(410,-214,o),
(448,-178,c),
(420,-139,l),
(398,-169,o),
(364,-185,o),
(326,-185,cs),
(283,-185,o),
(259,-156,o),
(259,-118,cs),
(259,-64,o),
(291,-21,o),
(343,5,cs),
(406,38,o),
(450,94,o),
(450,180,cs),
(450,500,l),
(374,500,l),
(374,189,ls),
(374,114,o),
(328,68,o),
(263,68,cs),
(199,68,o),
(151,114,o),
(151,189,cs),
(151,500,l),
(75,500,l)
);
}
);
width = 524;
},
{
anchors = (
{
name = b.uni0326;
position = "{268, 0}";
},
{
name = b.uni0328_1;
position = "{365, 24}";
},
{
name = t.uni0308_2;
position = "{268, 500}";
},
{
name = m.uni0335_3;
position = "{0, 0}";
}
);
layerId = "445F1214-24C3-4409-A842-6A76E99C229F";
shapes = (
{
closed = 1;
nodes = (
(93,184,ls),
(93,78,o),
(171,-10,o),
(268,-10,cs),
(290,-10,o),
(313,-6,o),
(333,5,c),
(329,10,l),
(290,-34,o),
(255,-78,o),
(255,-138,cs),
(255,-198,o),
(286,-236,o),
(348,-236,cs),
(391,-236,o),
(418,-223,o),
(448,-194,c),
(439,-179,l),
(411,-204,o),
(388,-216,o),
(348,-216,cs),
(298,-216,o),
(273,-184,o),
(273,-138,cs),
(273,-71,o),
(318,-16,o),
(361,20,cs),
(408,59,o),
(444,115,o),
(444,184,cs),
(444,500,l),
(424,500,l),
(424,184,ls),
(424,88,o),
(354,10,o),
(268,10,cs),
(183,10,o),
(113,88,o),
(113,184,cs),
(113,500,l),
(93,500,l)
);
}
);
width = 538;
}
);
unicode = 371;
},
{
glyphname = v;
layers = (
{
layerId = "388820D5-7EEF-4EDE-95C9-B421FC6E7F1D";
shapes = (
{
closed = 1;
nodes = (
(189,0,l),
(363,0,l),
(565,500,l),
(366,500,l),
(276,201,l),
(186,500,l),
(-11,500,l)
);
}
);
width = 554;
},
{
layerId = "9088FA62-0D59-4181-A049-8D6D4F8D84ED";
shapes = (
{
closed = 1;
nodes = (
(211,0,l),
(286,0,l),
(488,500,l),
(404,500,l),
(250,90,l),
(95,500,l),
(11,500,l)
);
}
);
width = 499;
},
{
layerId = "445F1214-24C3-4409-A842-6A76E99C229F";
shapes = (
{
closed = 1;
nodes = (
(230,0,l),
(253,0,l),
(453,500,l),
(431,500,l),
(243,26,l),
(53,500,l),
(30,500,l)
);
}
);
width = 483;
}
);
unicode = 118;
},
{
glyphname = w;
layers = (
{
anchors = (
{
name = b.uni0326;
position = "{436, 0}";
},
{
name = b.uni0328_1;
position = "{0, 0}";
},
{
name = t.uni0308_2;
position = "{436, 500}";
},
{
name = m.uni0335_3;
position = "{0, 0}";
}
);
layerId = "388820D5-7EEF-4EDE-95C9-B421FC6E7F1D";
shapes = (
{
closed = 1;
nodes = (
(161,0,l),
(355,0,l),
(436,246,l),
(518,0,l),
(711,0,l),
(883,500,l),
(675,500,l),
(604,193,l),
(506,500,l),
(366,500,l),
(270,195,l),
(199,500,l),
(-11,500,l)
);
}
);
width = 871;
},
{
anchors = (
{
name = b.uni0326;
position = "{403, 0}";
},
{
name = b.uni0328_1;
position = "{0, 0}";
},
{
name = t.uni0308_2;
position = "{403, 500}";
},
{
name = m.uni0335_3;
position = "{0, 0}";
}
);
layerId = "9088FA62-0D59-4181-A049-8D6D4F8D84ED";
shapes = (
{
closed = 1;
nodes = (
(184,0,l),
(269,0,l),
(403,393,l),
(535,0,l),
(620,0,l),
(791,500,l),
(708,500,l),
(575,90,l),
(439,500,l),
(365,500,l),
(229,93,l),
(99,500,l),
(11,500,l)
);
}
);
width = 803;
},
{
anchors = (
{
name = b.uni0326;
position = "{390, 0}";
},
{
name = b.uni0328_1;
position = "{0, 0}";
},
{
name = t.uni0308_2;
position = "{390, 500}";
},
{
name = m.uni0335_3;
position = "{0, 0}";
}
);
layerId = "445F1214-24C3-4409-A842-6A76E99C229F";
shapes = (
{
closed = 1;
nodes = (
(203,0,l),
(228,0,l),
(390,471,l),
(553,0,l),
(578,0,l),
(749,500,l),
(730,500,l),
(565,23,l),
(401,500,l),
(379,500,l),
(215,24,l),
(51,500,l),
(30,500,l)
);
}
);
width = 779;
}
);
unicode = 119;
},
{
glyphname = wcircumflex;
layers = (
{
anchors = (
{
name = b.uni0326;
position = "{436, 0}";
},
{
name = b.uni0328_1;
position = "{0, 0}";
},
{
name = t.uni0308_2;
position = "{436, 750}";
},
{
name = m.uni0335_3;
position = "{0, 0}";
}
);
layerId = "388820D5-7EEF-4EDE-95C9-B421FC6E7F1D";
shapes = (
{
closed = 1;
nodes = (
(255,563,l),
(368,563,l),
(436,650,l),
(506,563,l),
(619,563,l),
(486,750,l),
(386,750,l)
);
},
{
closed = 1;
nodes = (
(161,0,l),
(355,0,l),
(436,246,l),
(518,0,l),
(711,0,l),
(883,500,l),
(675,500,l),
(604,193,l),
(506,500,l),
(366,500,l),
(270,195,l),
(199,500,l),
(-11,500,l)
);
}
);
width = 871;
},
{
anchors = (
{
name = b.uni0326;
position = "{403, 0}";
},
{
name = b.uni0328_1;
position = "{0, 0}";
},
{
name = t.uni0308_2;
position = "{403, 750}";
},
{
name = m.uni0335_3;
position = "{0, 0}";
}
);
layerId = "9088FA62-0D59-4181-A049-8D6D4F8D84ED";
shapes = (
{
closed = 1;
nodes = (
(265,565,l),
(325,565,l),
(403,699,l),
(480,565,l),
(541,565,l),
(443,750,l),
(363,750,l)
);
},
{
closed = 1;
nodes = (
(184,0,l),
(269,0,l),
(403,393,l),
(535,0,l),
(620,0,l),
(791,500,l),
(708,500,l),
(575,90,l),
(439,500,l),
(365,500,l),
(229,93,l),
(99,500,l),
(11,500,l)
);
}
);
width = 803;
},
{
anchors = (
{
name = b.uni0326;
position = "{390, 0}";
},
{
name = b.uni0328_1;
position = "{0, 0}";
},
{
name = t.uni0308_2;
position = "{390, 750}";
},
{
name = m.uni0335_3;
position = "{0, 0}";
}
);
layerId = "445F1214-24C3-4409-A842-6A76E99C229F";
shapes = (
{
closed = 1;
nodes = (
(280,569,l),
(310,569,l),
(390,728,l),
(468,569,l),
(499,569,l),
(401,750,l),
(376,750,l)
);
},
{
closed = 1;
nodes = (
(203,0,l),
(228,0,l),
(390,471,l),
(553,0,l),
(578,0,l),
(749,500,l),
(730,500,l),
(565,23,l),
(401,500,l),
(379,500,l),
(215,24,l),
(51,500,l),
(30,500,l)
);
}
);
width = 779;
}
);
unicode = 373;
},
{
glyphname = x;
layers = (
{
layerId = "388820D5-7EEF-4EDE-95C9-B421FC6E7F1D";
shapes = (
{
closed = 1;
nodes = (
(-11,0,l),
(211,0,l),
(313,119,l),
(413,0,l),
(635,0,l),
(423,249,l),
(635,500,l),
(414,500,l),
(311,380,l),
(209,500,l),
(-11,500,l),
(201,250,l)
);
}
);
width = 624;
},
{
layerId = "9088FA62-0D59-4181-A049-8D6D4F8D84ED";
shapes = (
{
closed = 1;
nodes = (
(11,0,l),
(106,0,l),
(268,194,l),
(429,0,l),
(521,0,l),
(314,250,l),
(521,500,l),
(429,500,l),
(266,306,l),
(105,500,l),
(11,500,l),
(220,250,l)
);
}
);
width = 533;
},
{
layerId = "445F1214-24C3-4409-A842-6A76E99C229F";
shapes = (
{
closed = 1;
nodes = (
(30,0,l),
(56,0,l),
(249,235,l),
(443,0,l),
(468,0,l),
(263,250,l),
(468,500,l),
(443,500,l),
(249,265,l),
(56,500,l),
(30,500,l),
(236,250,l)
);
}
);
width = 498;
}
);
unicode = 120;
},
{
glyphname = y;
layers = (
{
anchors = (
{
name = b.uni0326;
position = "{501, -18}";
},
{
name = b.uni0328_1;
position = "{0, 0}";
},
{
name = t.uni0308_2;
position = "{291, 500}";
},
{
name = m.uni0335_3;
position = "{0, 0}";
}
);
layerId = "388820D5-7EEF-4EDE-95C9-B421FC6E7F1D";
shapes = (
{
closed = 1;
nodes = (
(101,-250,l),
(296,-250,l),
(595,500,l),
(406,500,l),
(294,195,l),
(180,500,l),
(-11,500,l),
(199,-13,l)
);
}
);
width = 585;
},
{
anchors = (
{
name = b.uni0326;
position = "{381, -70}";
},
{
name = b.uni0328_1;
position = "{0, 0}";
},
{
name = t.uni0308_2;
position = "{256, 500}";
},
{
name = m.uni0335_3;
position = "{0, 0}";
}
);
layerId = "9088FA62-0D59-4181-A049-8D6D4F8D84ED";
shapes = (
{
closed = 1;
nodes = (
(117,-250,l),
(200,-250,l),
(500,500,l),
(413,500,l),
(258,90,l),
(98,500,l),
(11,500,l),
(216,-4,l)
);
}
);
width = 511;
},
{
anchors = (
{
name = b.uni0326;
position = "{319, -100}";
},
{
name = b.uni0328_1;
position = "{0, 0}";
},
{
name = t.uni0308_2;
position = "{243, 500}";
},
{
name = m.uni0335_3;
position = "{0, 0}";
}
);
layerId = "445F1214-24C3-4409-A842-6A76E99C229F";
shapes = (
{
closed = 1;
nodes = (
(132,-250,l),
(154,-250,l),
(453,500,l),
(431,500,l),
(243,28,l),
(53,500,l),
(30,500,l),
(231,0,l)
);
}
);
width = 483;
}
);
unicode = 121;
},
